M48
; DRILL file {KiCad 6.0.10-1.fc36} date gio 12 gen 2023, 16:24:35
; FORMAT={-:-/ absolute / inch / decimal}
; #@! TF.CreationDate,2023-01-12T16:24:35+01:00
; #@! TF.GenerationSoftware,Kicad,Pcbnew,6.0.10-1.fc36
; #@! TF.FileFunction,Plated,1,2,PTH
FMAT,2
INCH
; #@! TA.AperFunction,Plated,PTH,ComponentDrill
T1C0.0315
; #@! TA.AperFunction,Plated,PTH,ComponentDrill
T2C0.0394
; #@! TA.AperFunction,Plated,PTH,ComponentDrill
T3C0.0630
%
G90
G05
T2
X3.934Y-3.792
X3.934Y-3.892
X3.934Y-3.992
X3.934Y-4.092
T3
X4.252Y-3.937
X4.8819Y-3.937
X5.5118Y-3.937
T1
G00X4.1535Y-3.9764
M15
G01X4.1535Y-3.8976
M16
G05
G00X4.2913Y-3.8386
M15
G01X4.2126Y-3.8386
M16
G05
G00X4.2913Y-4.0354
M15
G01X4.2126Y-4.0354
M16
G05
G00X4.3504Y-3.9764
M15
G01X4.3504Y-3.8976
M16
G05
G00X4.7835Y-3.9764
M15
G01X4.7835Y-3.8976
M16
G05
G00X4.9213Y-3.8386
M15
G01X4.8425Y-3.8386
M16
G05
G00X4.9213Y-4.0354
M15
G01X4.8425Y-4.0354
M16
G05
G00X4.9803Y-3.9764
M15
G01X4.9803Y-3.8976
M16
G05
G00X5.4134Y-3.9764
M15
G01X5.4134Y-3.8976
M16
G05
G00X5.5512Y-3.8386
M15
G01X5.4724Y-3.8386
M16
G05
G00X5.5512Y-4.0354
M15
G01X5.4724Y-4.0354
M16
G05
G00X5.6102Y-3.9764
M15
G01X5.6102Y-3.8976
M16
G05
T0
M30
