M48
; DRILL file {KiCad 6.0.10-1.fc36} date gio 12 gen 2023, 15:37:15
; FORMAT={-:-/ absolute / inch / decimal}
; #@! TF.CreationDate,2023-01-12T15:37:15+01:00
; #@! TF.GenerationSoftware,Kicad,Pcbnew,6.0.10-1.fc36
; #@! TF.FileFunction,Plated,1,2,PTH
FMAT,2
INCH
; #@! TA.AperFunction,Plated,PTH,ComponentDrill
T1C0.0295
; #@! TA.AperFunction,Plated,PTH,ComponentDrill
T2C0.0315
; #@! TA.AperFunction,Plated,PTH,ComponentDrill
T3C0.0394
%
G90
G05
T1
X5.55Y-4.2
X5.6Y-4.2
X5.65Y-4.2
T2
X5.4Y-4.7
X5.7Y-4.45
X5.8Y-4.7
X6.1Y-4.45
T3
X4.0Y-4.6681
X4.0Y-4.7681
X4.001Y-4.2518
X4.001Y-4.3518
X4.001Y-4.4518
X4.3Y-4.398
X4.3Y-4.498
X4.65Y-4.15
X4.75Y-4.15
X4.85Y-4.15
X4.95Y-4.15
X5.1937Y-4.9213
X5.1969Y-4.0157
X5.2937Y-4.9213
X5.2969Y-4.0157
X5.3937Y-4.9213
X5.3969Y-4.0157
X5.4937Y-4.9213
X5.4969Y-4.0157
X5.5937Y-4.9213
X5.5969Y-4.0157
X5.6937Y-4.9213
X5.6969Y-4.0157
X5.7937Y-4.9213
X5.7969Y-4.0157
X5.8937Y-4.9213
X5.8969Y-4.0157
X5.9937Y-4.9213
X5.9969Y-4.0157
X6.0937Y-4.9213
X6.0969Y-4.0157
X6.1937Y-4.9213
X6.1969Y-4.0157
X6.2937Y-4.9213
X6.2969Y-4.0157
X6.3937Y-4.9213
X6.3969Y-4.0157
X6.6Y-4.1
X6.6917Y-4.45
X6.6917Y-4.55
X6.7Y-4.1
X6.7Y-4.75
X6.7Y-4.85
T0
M30
