%TF.GenerationSoftware,KiCad,Pcbnew,6.0.10-1.fc36*%
%TF.CreationDate,2023-01-12T14:27:35+01:00*%
%TF.ProjectId,wererabbit_game,77657265-7261-4626-9269-745f67616d65,rev?*%
%TF.SameCoordinates,Original*%
%TF.FileFunction,Soldermask,Top*%
%TF.FilePolarity,Negative*%
%FSLAX46Y46*%
G04 Gerber Fmt 4.6, Leading zero omitted, Abs format (unit mm)*
G04 Created by KiCad (PCBNEW 6.0.10-1.fc36) date 2023-01-12 14:27:35*
%MOMM*%
%LPD*%
G01*
G04 APERTURE LIST*
%ADD10C,1.600000*%
%ADD11O,1.600000X1.600000*%
%ADD12C,2.000000*%
%ADD13R,1.700000X1.700000*%
%ADD14O,1.700000X1.700000*%
%ADD15R,1.050000X1.500000*%
%ADD16O,1.050000X1.500000*%
G04 APERTURE END LIST*
D10*
%TO.C,R1*%
X137160000Y-119380000D03*
D11*
X147320000Y-119380000D03*
%TD*%
D12*
%TO.C,J8*%
X101600000Y-121110000D03*
X101600000Y-118570000D03*
%TD*%
%TO.C,J10*%
X170180000Y-120650000D03*
X170180000Y-123190000D03*
%TD*%
%TO.C,J11*%
X109220000Y-111710000D03*
X109220000Y-114250000D03*
%TD*%
%TO.C,J6*%
X169970000Y-113030000D03*
X169970000Y-115570000D03*
%TD*%
D13*
%TO.C,SW1*%
X101625000Y-107995000D03*
D14*
X101625000Y-110535000D03*
X101625000Y-113075000D03*
%TD*%
D13*
%TO.C,J9*%
X125730000Y-105410000D03*
D14*
X123190000Y-105410000D03*
X120650000Y-105410000D03*
X118110000Y-105410000D03*
%TD*%
D13*
%TO.C,J2*%
X132000000Y-102000000D03*
D14*
X134540000Y-102000000D03*
X137080000Y-102000000D03*
X139620000Y-102000000D03*
X142160000Y-102000000D03*
X144700000Y-102000000D03*
X147240000Y-102000000D03*
X149780000Y-102000000D03*
X152320000Y-102000000D03*
X154860000Y-102000000D03*
X157400000Y-102000000D03*
X159940000Y-102000000D03*
X162480000Y-102000000D03*
%TD*%
D10*
%TO.C,R2*%
X154940000Y-113030000D03*
D11*
X144780000Y-113030000D03*
%TD*%
D12*
%TO.C,J7*%
X167640000Y-104140000D03*
X170180000Y-104140000D03*
%TD*%
D15*
%TO.C,Q1*%
X140970000Y-106680000D03*
D16*
X142240000Y-106680000D03*
X143510000Y-106680000D03*
%TD*%
D13*
%TO.C,J1*%
X162400000Y-125000000D03*
D14*
X159860000Y-125000000D03*
X157320000Y-125000000D03*
X154780000Y-125000000D03*
X152240000Y-125000000D03*
X149700000Y-125000000D03*
X147160000Y-125000000D03*
X144620000Y-125000000D03*
X142080000Y-125000000D03*
X139540000Y-125000000D03*
X137000000Y-125000000D03*
X134460000Y-125000000D03*
X131920000Y-125000000D03*
%TD*%
M02*
