%TF.GenerationSoftware,KiCad,Pcbnew,6.0.10-1.fc36*%
%TF.CreationDate,2023-01-12T14:27:34+01:00*%
%TF.ProjectId,wererabbit_game,77657265-7261-4626-9269-745f67616d65,rev?*%
%TF.SameCoordinates,Original*%
%TF.FileFunction,Copper,L1,Top*%
%TF.FilePolarity,Positive*%
%FSLAX46Y46*%
G04 Gerber Fmt 4.6, Leading zero omitted, Abs format (unit mm)*
G04 Created by KiCad (PCBNEW 6.0.10-1.fc36) date 2023-01-12 14:27:34*
%MOMM*%
%LPD*%
G01*
G04 APERTURE LIST*
%TA.AperFunction,ComponentPad*%
%ADD10C,1.600000*%
%TD*%
%TA.AperFunction,ComponentPad*%
%ADD11O,1.600000X1.600000*%
%TD*%
%TA.AperFunction,ComponentPad*%
%ADD12C,2.000000*%
%TD*%
%TA.AperFunction,ComponentPad*%
%ADD13R,1.700000X1.700000*%
%TD*%
%TA.AperFunction,ComponentPad*%
%ADD14O,1.700000X1.700000*%
%TD*%
%TA.AperFunction,ComponentPad*%
%ADD15R,1.050000X1.500000*%
%TD*%
%TA.AperFunction,ComponentPad*%
%ADD16O,1.050000X1.500000*%
%TD*%
%TA.AperFunction,Conductor*%
%ADD17C,0.400000*%
%TD*%
%TA.AperFunction,Conductor*%
%ADD18C,0.600000*%
%TD*%
G04 APERTURE END LIST*
D10*
%TO.P,R1,1*%
%TO.N,Net-(J1-Pad10)*%
X137160000Y-119380000D03*
D11*
%TO.P,R1,2*%
%TO.N,Net-(Q1-Pad2)*%
X147320000Y-119380000D03*
%TD*%
D12*
%TO.P,J8,1,Pin_1*%
%TO.N,Net-(J1-Pad7)*%
X101600000Y-121110000D03*
%TO.N,GND*%
X101600000Y-118570000D03*
%TD*%
%TO.P,J10,1,Pin_1*%
%TO.N,Net-(J10-Pad1)*%
X170180000Y-120650000D03*
%TO.N,GND*%
X170180000Y-123190000D03*
%TD*%
%TO.P,J11,1,Pin_1*%
%TO.N,Net-(J11-Pad1)*%
X109220000Y-111710000D03*
%TO.N,GND*%
X109220000Y-114250000D03*
%TD*%
%TO.P,J6,1,Pin_1*%
%TO.N,VCC*%
X169970000Y-113030000D03*
%TO.N,Net-(R2-Pad1)*%
X169970000Y-115570000D03*
%TD*%
D13*
%TO.P,SW1,1,A*%
%TO.N,Net-(J10-Pad1)*%
X101625000Y-107995000D03*
D14*
%TO.P,SW1,2,B*%
%TO.N,Net-(J11-Pad1)*%
X101625000Y-110535000D03*
%TO.P,SW1,3,C*%
%TO.N,unconnected-(SW1-Pad3)*%
X101625000Y-113075000D03*
%TD*%
D13*
%TO.P,J9,1,Pin_1*%
%TO.N,GND*%
X125730000Y-105410000D03*
D14*
%TO.P,J9,2,Pin_2*%
%TO.N,VCC*%
X123190000Y-105410000D03*
%TO.P,J9,3,Pin_3*%
%TO.N,Net-(J1-Pad8)*%
X120650000Y-105410000D03*
%TO.P,J9,4,Pin_4*%
%TO.N,Net-(J1-Pad9)*%
X118110000Y-105410000D03*
%TD*%
D13*
%TO.P,J2,1,Pin_1*%
%TO.N,VCC*%
X132000000Y-102000000D03*
D14*
%TO.P,J2,2,Pin_2*%
%TO.N,GND*%
X134540000Y-102000000D03*
%TO.P,J2,3,Pin_3*%
%TO.N,unconnected-(J2-Pad3)*%
X137080000Y-102000000D03*
%TO.P,J2,4,Pin_4*%
%TO.N,GND*%
X139620000Y-102000000D03*
%TO.P,J2,5,Pin_5*%
%TO.N,unconnected-(J2-Pad5)*%
X142160000Y-102000000D03*
%TO.P,J2,6,Pin_6*%
%TO.N,unconnected-(J2-Pad6)*%
X144700000Y-102000000D03*
%TO.P,J2,7,Pin_7*%
%TO.N,unconnected-(J2-Pad7)*%
X147240000Y-102000000D03*
%TO.P,J2,8,Pin_8*%
%TO.N,unconnected-(J2-Pad8)*%
X149780000Y-102000000D03*
%TO.P,J2,9,Pin_9*%
%TO.N,unconnected-(J2-Pad9)*%
X152320000Y-102000000D03*
%TO.P,J2,10,Pin_10*%
%TO.N,unconnected-(J2-Pad10)*%
X154860000Y-102000000D03*
%TO.P,J2,11,Pin_11*%
%TO.N,unconnected-(J2-Pad11)*%
X157400000Y-102000000D03*
%TO.P,J2,12,Pin_12*%
%TO.N,unconnected-(J2-Pad12)*%
X159940000Y-102000000D03*
%TO.P,J2,13,Pin_13*%
%TO.N,unconnected-(J2-Pad13)*%
X162480000Y-102000000D03*
%TD*%
D10*
%TO.P,R2,1*%
%TO.N,Net-(R2-Pad1)*%
X154940000Y-113030000D03*
D11*
%TO.P,R2,2*%
%TO.N,Net-(Q1-Pad3)*%
X144780000Y-113030000D03*
%TD*%
D12*
%TO.P,J7,1,Pin_1*%
%TO.N,Net-(J1-Pad6)*%
X167640000Y-104140000D03*
%TO.N,GND*%
X170180000Y-104140000D03*
%TD*%
D15*
%TO.P,Q1,1,E*%
%TO.N,GND*%
X140970000Y-106680000D03*
D16*
%TO.P,Q1,2,B*%
%TO.N,Net-(Q1-Pad2)*%
X142240000Y-106680000D03*
%TO.P,Q1,3,C*%
%TO.N,Net-(Q1-Pad3)*%
X143510000Y-106680000D03*
%TD*%
D13*
%TO.P,J1,1,Pin_1*%
%TO.N,unconnected-(J1-Pad1)*%
X162400000Y-125000000D03*
D14*
%TO.P,J1,2,Pin_2*%
%TO.N,unconnected-(J1-Pad2)*%
X159860000Y-125000000D03*
%TO.P,J1,3,Pin_3*%
%TO.N,unconnected-(J1-Pad3)*%
X157320000Y-125000000D03*
%TO.P,J1,4,Pin_4*%
%TO.N,unconnected-(J1-Pad4)*%
X154780000Y-125000000D03*
%TO.P,J1,5,Pin_5*%
%TO.N,unconnected-(J1-Pad5)*%
X152240000Y-125000000D03*
%TO.P,J1,6,Pin_6*%
%TO.N,Net-(J1-Pad6)*%
X149700000Y-125000000D03*
%TO.P,J1,7,Pin_7*%
%TO.N,Net-(J1-Pad7)*%
X147160000Y-125000000D03*
%TO.P,J1,8,Pin_8*%
%TO.N,Net-(J1-Pad8)*%
X144620000Y-125000000D03*
%TO.P,J1,9,Pin_9*%
%TO.N,Net-(J1-Pad9)*%
X142080000Y-125000000D03*
%TO.P,J1,10,Pin_10*%
%TO.N,Net-(J1-Pad10)*%
X139540000Y-125000000D03*
%TO.P,J1,11,Pin_11*%
%TO.N,unconnected-(J1-Pad11)*%
X137000000Y-125000000D03*
%TO.P,J1,12,Pin_12*%
%TO.N,unconnected-(J1-Pad12)*%
X134460000Y-125000000D03*
%TO.P,J1,13,Pin_13*%
%TO.N,unconnected-(J1-Pad13)*%
X131920000Y-125000000D03*
%TD*%
D17*
%TO.N,Net-(J1-Pad6)*%
X149700000Y-125000000D02*
X149700000Y-106840000D01*
X152400000Y-104140000D02*
X167640000Y-104140000D01*
X149700000Y-106840000D02*
X152400000Y-104140000D01*
%TO.N,Net-(J1-Pad8)*%
X144620000Y-125000000D02*
X144620000Y-123030000D01*
X120650000Y-113030000D02*
X120650000Y-105410000D01*
X135890000Y-114300000D02*
X121920000Y-114300000D01*
X121920000Y-114300000D02*
X120650000Y-113030000D01*
X144620000Y-123030000D02*
X135890000Y-114300000D01*
%TO.N,Net-(J1-Pad9)*%
X142080000Y-125000000D02*
X142080000Y-122602943D01*
X118110000Y-114300000D02*
X118110000Y-105410000D01*
X120650000Y-116840000D02*
X118110000Y-114300000D01*
X142080000Y-122602943D02*
X136317057Y-116840000D01*
X136317057Y-116840000D02*
X120650000Y-116840000D01*
D18*
%TO.N,Net-(J1-Pad10)*%
X139540000Y-121760000D02*
X137160000Y-119380000D01*
X139540000Y-125000000D02*
X139540000Y-121760000D01*
%TO.N,Net-(Q1-Pad2)*%
X144780000Y-119380000D02*
X142240000Y-116840000D01*
X142240000Y-116840000D02*
X142240000Y-106680000D01*
X147320000Y-119380000D02*
X144780000Y-119380000D01*
%TO.N,Net-(Q1-Pad3)*%
X143510000Y-106680000D02*
X143510000Y-111760000D01*
X143510000Y-111760000D02*
X144780000Y-113030000D01*
%TO.N,VCC*%
X123190000Y-102870000D02*
X123190000Y-105410000D01*
X132000000Y-102000000D02*
X124060000Y-102000000D01*
X124060000Y-102000000D02*
X123190000Y-102870000D01*
%TD*%
%TA.AperFunction,Conductor*%
%TO.N,GND*%
G36*
X171973621Y-100528502D02*
G01*
X172020114Y-100582158D01*
X172031500Y-100634500D01*
X172031500Y-126365500D01*
X172011498Y-126433621D01*
X171957842Y-126480114D01*
X171905500Y-126491500D01*
X163620226Y-126491500D01*
X163552105Y-126471498D01*
X163505612Y-126417842D01*
X163495508Y-126347568D01*
X163525002Y-126282988D01*
X163544661Y-126264674D01*
X163606080Y-126218643D01*
X163606081Y-126218642D01*
X163613261Y-126213261D01*
X163700615Y-126096705D01*
X163751745Y-125960316D01*
X163758500Y-125898134D01*
X163758500Y-124422670D01*
X169312160Y-124422670D01*
X169317887Y-124430320D01*
X169489042Y-124535205D01*
X169497837Y-124539687D01*
X169707988Y-124626734D01*
X169717373Y-124629783D01*
X169938554Y-124682885D01*
X169948301Y-124684428D01*
X170175070Y-124702275D01*
X170184930Y-124702275D01*
X170411699Y-124684428D01*
X170421446Y-124682885D01*
X170642627Y-124629783D01*
X170652012Y-124626734D01*
X170862163Y-124539687D01*
X170870958Y-124535205D01*
X171038445Y-124432568D01*
X171047907Y-124422110D01*
X171044124Y-124413334D01*
X170192812Y-123562022D01*
X170178868Y-123554408D01*
X170177035Y-123554539D01*
X170170420Y-123558790D01*
X169318920Y-124410290D01*
X169312160Y-124422670D01*
X163758500Y-124422670D01*
X163758500Y-124101866D01*
X163751745Y-124039684D01*
X163700615Y-123903295D01*
X163613261Y-123786739D01*
X163496705Y-123699385D01*
X163360316Y-123648255D01*
X163298134Y-123641500D01*
X161501866Y-123641500D01*
X161439684Y-123648255D01*
X161303295Y-123699385D01*
X161186739Y-123786739D01*
X161099385Y-123903295D01*
X161096233Y-123911703D01*
X161054919Y-124021907D01*
X161012277Y-124078671D01*
X160945716Y-124103371D01*
X160876367Y-124088163D01*
X160843743Y-124062476D01*
X160793151Y-124006875D01*
X160793142Y-124006866D01*
X160789670Y-124003051D01*
X160785619Y-123999852D01*
X160785615Y-123999848D01*
X160618414Y-123867800D01*
X160618410Y-123867798D01*
X160614359Y-123864598D01*
X160581229Y-123846309D01*
X160512371Y-123808298D01*
X160418789Y-123756638D01*
X160413920Y-123754914D01*
X160413916Y-123754912D01*
X160213087Y-123683795D01*
X160213083Y-123683794D01*
X160208212Y-123682069D01*
X160203119Y-123681162D01*
X160203116Y-123681161D01*
X159993373Y-123643800D01*
X159993367Y-123643799D01*
X159988284Y-123642894D01*
X159914452Y-123641992D01*
X159770081Y-123640228D01*
X159770079Y-123640228D01*
X159764911Y-123640165D01*
X159544091Y-123673955D01*
X159331756Y-123743357D01*
X159133607Y-123846507D01*
X159129474Y-123849610D01*
X159129471Y-123849612D01*
X159002172Y-123945191D01*
X158954965Y-123980635D01*
X158915525Y-124021907D01*
X158861280Y-124078671D01*
X158800629Y-124142138D01*
X158693201Y-124299621D01*
X158638293Y-124344621D01*
X158567768Y-124352792D01*
X158504021Y-124321538D01*
X158483324Y-124297054D01*
X158402822Y-124172617D01*
X158402820Y-124172614D01*
X158400014Y-124168277D01*
X158249670Y-124003051D01*
X158245619Y-123999852D01*
X158245615Y-123999848D01*
X158078414Y-123867800D01*
X158078410Y-123867798D01*
X158074359Y-123864598D01*
X158041229Y-123846309D01*
X157972371Y-123808298D01*
X157878789Y-123756638D01*
X157873920Y-123754914D01*
X157873916Y-123754912D01*
X157673087Y-123683795D01*
X157673083Y-123683794D01*
X157668212Y-123682069D01*
X157663119Y-123681162D01*
X157663116Y-123681161D01*
X157453373Y-123643800D01*
X157453367Y-123643799D01*
X157448284Y-123642894D01*
X157374452Y-123641992D01*
X157230081Y-123640228D01*
X157230079Y-123640228D01*
X157224911Y-123640165D01*
X157004091Y-123673955D01*
X156791756Y-123743357D01*
X156593607Y-123846507D01*
X156589474Y-123849610D01*
X156589471Y-123849612D01*
X156462172Y-123945191D01*
X156414965Y-123980635D01*
X156375525Y-124021907D01*
X156321280Y-124078671D01*
X156260629Y-124142138D01*
X156153201Y-124299621D01*
X156098293Y-124344621D01*
X156027768Y-124352792D01*
X155964021Y-124321538D01*
X155943324Y-124297054D01*
X155862822Y-124172617D01*
X155862820Y-124172614D01*
X155860014Y-124168277D01*
X155709670Y-124003051D01*
X155705619Y-123999852D01*
X155705615Y-123999848D01*
X155538414Y-123867800D01*
X155538410Y-123867798D01*
X155534359Y-123864598D01*
X155501229Y-123846309D01*
X155432371Y-123808298D01*
X155338789Y-123756638D01*
X155333920Y-123754914D01*
X155333916Y-123754912D01*
X155133087Y-123683795D01*
X155133083Y-123683794D01*
X155128212Y-123682069D01*
X155123119Y-123681162D01*
X155123116Y-123681161D01*
X154913373Y-123643800D01*
X154913367Y-123643799D01*
X154908284Y-123642894D01*
X154834452Y-123641992D01*
X154690081Y-123640228D01*
X154690079Y-123640228D01*
X154684911Y-123640165D01*
X154464091Y-123673955D01*
X154251756Y-123743357D01*
X154053607Y-123846507D01*
X154049474Y-123849610D01*
X154049471Y-123849612D01*
X153922172Y-123945191D01*
X153874965Y-123980635D01*
X153835525Y-124021907D01*
X153781280Y-124078671D01*
X153720629Y-124142138D01*
X153613201Y-124299621D01*
X153558293Y-124344621D01*
X153487768Y-124352792D01*
X153424021Y-124321538D01*
X153403324Y-124297054D01*
X153322822Y-124172617D01*
X153322820Y-124172614D01*
X153320014Y-124168277D01*
X153169670Y-124003051D01*
X153165619Y-123999852D01*
X153165615Y-123999848D01*
X152998414Y-123867800D01*
X152998410Y-123867798D01*
X152994359Y-123864598D01*
X152961229Y-123846309D01*
X152892371Y-123808298D01*
X152798789Y-123756638D01*
X152793920Y-123754914D01*
X152793916Y-123754912D01*
X152593087Y-123683795D01*
X152593083Y-123683794D01*
X152588212Y-123682069D01*
X152583119Y-123681162D01*
X152583116Y-123681161D01*
X152373373Y-123643800D01*
X152373367Y-123643799D01*
X152368284Y-123642894D01*
X152294452Y-123641992D01*
X152150081Y-123640228D01*
X152150079Y-123640228D01*
X152144911Y-123640165D01*
X151924091Y-123673955D01*
X151711756Y-123743357D01*
X151513607Y-123846507D01*
X151509474Y-123849610D01*
X151509471Y-123849612D01*
X151382172Y-123945191D01*
X151334965Y-123980635D01*
X151295525Y-124021907D01*
X151241280Y-124078671D01*
X151180629Y-124142138D01*
X151073201Y-124299621D01*
X151018293Y-124344621D01*
X150947768Y-124352792D01*
X150884021Y-124321538D01*
X150863324Y-124297054D01*
X150782822Y-124172617D01*
X150782820Y-124172614D01*
X150780014Y-124168277D01*
X150629670Y-124003051D01*
X150625619Y-123999852D01*
X150625615Y-123999848D01*
X150456408Y-123866216D01*
X150415345Y-123808298D01*
X150408500Y-123767334D01*
X150408500Y-123194930D01*
X168667725Y-123194930D01*
X168685572Y-123421699D01*
X168687115Y-123431446D01*
X168740217Y-123652627D01*
X168743266Y-123662012D01*
X168830313Y-123872163D01*
X168834795Y-123880958D01*
X168937432Y-124048445D01*
X168947890Y-124057907D01*
X168956666Y-124054124D01*
X169807978Y-123202812D01*
X169814356Y-123191132D01*
X170544408Y-123191132D01*
X170544539Y-123192965D01*
X170548790Y-123199580D01*
X171400290Y-124051080D01*
X171412670Y-124057840D01*
X171420320Y-124052113D01*
X171525205Y-123880958D01*
X171529687Y-123872163D01*
X171616734Y-123662012D01*
X171619783Y-123652627D01*
X171672885Y-123431446D01*
X171674428Y-123421699D01*
X171692275Y-123194930D01*
X171692275Y-123185070D01*
X171674428Y-122958301D01*
X171672885Y-122948554D01*
X171619783Y-122727373D01*
X171616734Y-122717988D01*
X171529687Y-122507837D01*
X171525205Y-122499042D01*
X171422568Y-122331555D01*
X171412110Y-122322093D01*
X171403334Y-122325876D01*
X170552022Y-123177188D01*
X170544408Y-123191132D01*
X169814356Y-123191132D01*
X169815592Y-123188868D01*
X169815461Y-123187035D01*
X169811210Y-123180420D01*
X168959710Y-122328920D01*
X168947330Y-122322160D01*
X168939680Y-122327887D01*
X168834795Y-122499042D01*
X168830313Y-122507837D01*
X168743266Y-122717988D01*
X168740217Y-122727373D01*
X168687115Y-122948554D01*
X168685572Y-122958301D01*
X168667725Y-123185070D01*
X168667725Y-123194930D01*
X150408500Y-123194930D01*
X150408500Y-120650000D01*
X168666835Y-120650000D01*
X168685465Y-120886711D01*
X168740895Y-121117594D01*
X168831760Y-121336963D01*
X168834346Y-121341183D01*
X168953241Y-121535202D01*
X168953245Y-121535208D01*
X168955824Y-121539416D01*
X169110031Y-121719969D01*
X169113787Y-121723177D01*
X169113792Y-121723182D01*
X169266616Y-121853706D01*
X169305426Y-121913156D01*
X169307640Y-121947558D01*
X169315877Y-121966667D01*
X170167188Y-122817978D01*
X170181132Y-122825592D01*
X170182965Y-122825461D01*
X170189580Y-122821210D01*
X171041080Y-121969710D01*
X171050260Y-121952898D01*
X171064020Y-121889650D01*
X171092776Y-121854225D01*
X171246213Y-121723177D01*
X171249969Y-121719969D01*
X171404176Y-121539416D01*
X171406755Y-121535208D01*
X171406759Y-121535202D01*
X171525654Y-121341183D01*
X171528240Y-121336963D01*
X171619105Y-121117594D01*
X171674535Y-120886711D01*
X171693165Y-120650000D01*
X171674535Y-120413289D01*
X171668790Y-120389357D01*
X171625370Y-120208502D01*
X171619105Y-120182406D01*
X171614299Y-120170803D01*
X171530135Y-119967611D01*
X171530133Y-119967607D01*
X171528240Y-119963037D01*
X171471441Y-119870350D01*
X171406759Y-119764798D01*
X171406755Y-119764792D01*
X171404176Y-119760584D01*
X171249969Y-119580031D01*
X171069416Y-119425824D01*
X171065208Y-119423245D01*
X171065202Y-119423241D01*
X170871183Y-119304346D01*
X170866963Y-119301760D01*
X170862393Y-119299867D01*
X170862389Y-119299865D01*
X170652167Y-119212789D01*
X170652165Y-119212788D01*
X170647594Y-119210895D01*
X170567391Y-119191640D01*
X170421524Y-119156620D01*
X170421518Y-119156619D01*
X170416711Y-119155465D01*
X170180000Y-119136835D01*
X169943289Y-119155465D01*
X169938482Y-119156619D01*
X169938476Y-119156620D01*
X169792609Y-119191640D01*
X169712406Y-119210895D01*
X169707835Y-119212788D01*
X169707833Y-119212789D01*
X169497611Y-119299865D01*
X169497607Y-119299867D01*
X169493037Y-119301760D01*
X169488817Y-119304346D01*
X169294798Y-119423241D01*
X169294792Y-119423245D01*
X169290584Y-119425824D01*
X169110031Y-119580031D01*
X168955824Y-119760584D01*
X168953245Y-119764792D01*
X168953241Y-119764798D01*
X168888559Y-119870350D01*
X168831760Y-119963037D01*
X168829867Y-119967607D01*
X168829865Y-119967611D01*
X168745701Y-120170803D01*
X168740895Y-120182406D01*
X168734630Y-120208502D01*
X168691211Y-120389357D01*
X168685465Y-120413289D01*
X168666835Y-120650000D01*
X150408500Y-120650000D01*
X150408500Y-115570000D01*
X168456835Y-115570000D01*
X168475465Y-115806711D01*
X168476619Y-115811518D01*
X168476620Y-115811524D01*
X168511640Y-115957391D01*
X168530895Y-116037594D01*
X168532788Y-116042165D01*
X168532789Y-116042167D01*
X168602726Y-116211010D01*
X168621760Y-116256963D01*
X168624346Y-116261183D01*
X168743241Y-116455202D01*
X168743245Y-116455208D01*
X168745824Y-116459416D01*
X168900031Y-116639969D01*
X169080584Y-116794176D01*
X169084792Y-116796755D01*
X169084798Y-116796759D01*
X169278034Y-116915174D01*
X169283037Y-116918240D01*
X169287607Y-116920133D01*
X169287611Y-116920135D01*
X169497833Y-117007211D01*
X169502406Y-117009105D01*
X169576569Y-117026910D01*
X169728476Y-117063380D01*
X169728482Y-117063381D01*
X169733289Y-117064535D01*
X169970000Y-117083165D01*
X170206711Y-117064535D01*
X170211518Y-117063381D01*
X170211524Y-117063380D01*
X170363431Y-117026910D01*
X170437594Y-117009105D01*
X170442167Y-117007211D01*
X170652389Y-116920135D01*
X170652393Y-116920133D01*
X170656963Y-116918240D01*
X170661966Y-116915174D01*
X170855202Y-116796759D01*
X170855208Y-116796755D01*
X170859416Y-116794176D01*
X171039969Y-116639969D01*
X171194176Y-116459416D01*
X171196755Y-116455208D01*
X171196759Y-116455202D01*
X171315654Y-116261183D01*
X171318240Y-116256963D01*
X171337275Y-116211010D01*
X171407211Y-116042167D01*
X171407212Y-116042165D01*
X171409105Y-116037594D01*
X171428360Y-115957391D01*
X171463380Y-115811524D01*
X171463381Y-115811518D01*
X171464535Y-115806711D01*
X171483165Y-115570000D01*
X171464535Y-115333289D01*
X171409105Y-115102406D01*
X171370208Y-115008500D01*
X171320135Y-114887611D01*
X171320133Y-114887607D01*
X171318240Y-114883037D01*
X171310892Y-114871046D01*
X171196759Y-114684798D01*
X171196755Y-114684792D01*
X171194176Y-114680584D01*
X171039969Y-114500031D01*
X171036213Y-114496823D01*
X171036208Y-114496818D01*
X170917944Y-114395811D01*
X170879134Y-114336361D01*
X170878628Y-114265366D01*
X170917944Y-114204189D01*
X171036208Y-114103182D01*
X171036213Y-114103177D01*
X171039969Y-114099969D01*
X171194176Y-113919416D01*
X171196755Y-113915208D01*
X171196759Y-113915202D01*
X171315654Y-113721183D01*
X171318240Y-113716963D01*
X171327744Y-113694020D01*
X171407211Y-113502167D01*
X171407212Y-113502165D01*
X171409105Y-113497594D01*
X171442633Y-113357939D01*
X171463380Y-113271524D01*
X171463381Y-113271518D01*
X171464535Y-113266711D01*
X171483165Y-113030000D01*
X171464535Y-112793289D01*
X171462108Y-112783177D01*
X171425562Y-112630954D01*
X171409105Y-112562406D01*
X171359187Y-112441892D01*
X171320135Y-112347611D01*
X171320133Y-112347607D01*
X171318240Y-112343037D01*
X171315654Y-112338817D01*
X171196759Y-112144798D01*
X171196755Y-112144792D01*
X171194176Y-112140584D01*
X171039969Y-111960031D01*
X170859416Y-111805824D01*
X170855208Y-111803245D01*
X170855202Y-111803241D01*
X170661183Y-111684346D01*
X170656963Y-111681760D01*
X170652393Y-111679867D01*
X170652389Y-111679865D01*
X170442167Y-111592789D01*
X170442165Y-111592788D01*
X170437594Y-111590895D01*
X170357391Y-111571640D01*
X170211524Y-111536620D01*
X170211518Y-111536619D01*
X170206711Y-111535465D01*
X169970000Y-111516835D01*
X169733289Y-111535465D01*
X169728482Y-111536619D01*
X169728476Y-111536620D01*
X169582609Y-111571640D01*
X169502406Y-111590895D01*
X169497835Y-111592788D01*
X169497833Y-111592789D01*
X169287611Y-111679865D01*
X169287607Y-111679867D01*
X169283037Y-111681760D01*
X169278817Y-111684346D01*
X169084798Y-111803241D01*
X169084792Y-111803245D01*
X169080584Y-111805824D01*
X168900031Y-111960031D01*
X168745824Y-112140584D01*
X168743245Y-112144792D01*
X168743241Y-112144798D01*
X168624346Y-112338817D01*
X168621760Y-112343037D01*
X168619867Y-112347607D01*
X168619865Y-112347611D01*
X168580813Y-112441892D01*
X168530895Y-112562406D01*
X168514438Y-112630954D01*
X168477893Y-112783177D01*
X168475465Y-112793289D01*
X168456835Y-113030000D01*
X168475465Y-113266711D01*
X168476619Y-113271518D01*
X168476620Y-113271524D01*
X168497367Y-113357939D01*
X168530895Y-113497594D01*
X168532788Y-113502165D01*
X168532789Y-113502167D01*
X168612257Y-113694020D01*
X168621760Y-113716963D01*
X168624346Y-113721183D01*
X168743241Y-113915202D01*
X168743245Y-113915208D01*
X168745824Y-113919416D01*
X168900031Y-114099969D01*
X168903787Y-114103177D01*
X168903792Y-114103182D01*
X169022056Y-114204189D01*
X169060866Y-114263639D01*
X169061372Y-114334634D01*
X169022056Y-114395811D01*
X168903792Y-114496818D01*
X168903787Y-114496823D01*
X168900031Y-114500031D01*
X168745824Y-114680584D01*
X168743245Y-114684792D01*
X168743241Y-114684798D01*
X168629108Y-114871046D01*
X168621760Y-114883037D01*
X168619867Y-114887607D01*
X168619865Y-114887611D01*
X168569792Y-115008500D01*
X168530895Y-115102406D01*
X168475465Y-115333289D01*
X168456835Y-115570000D01*
X150408500Y-115570000D01*
X150408500Y-113030000D01*
X153626502Y-113030000D01*
X153646457Y-113258087D01*
X153647881Y-113263400D01*
X153647881Y-113263402D01*
X153680222Y-113384097D01*
X153705716Y-113479243D01*
X153708039Y-113484224D01*
X153708039Y-113484225D01*
X153800151Y-113681762D01*
X153800154Y-113681767D01*
X153802477Y-113686749D01*
X153823633Y-113716963D01*
X153895417Y-113819480D01*
X153933802Y-113874300D01*
X154095700Y-114036198D01*
X154100208Y-114039355D01*
X154100211Y-114039357D01*
X154118610Y-114052240D01*
X154283251Y-114167523D01*
X154288233Y-114169846D01*
X154288238Y-114169849D01*
X154457697Y-114248868D01*
X154490757Y-114264284D01*
X154496065Y-114265706D01*
X154496067Y-114265707D01*
X154706598Y-114322119D01*
X154706600Y-114322119D01*
X154711913Y-114323543D01*
X154940000Y-114343498D01*
X155168087Y-114323543D01*
X155173400Y-114322119D01*
X155173402Y-114322119D01*
X155383933Y-114265707D01*
X155383935Y-114265706D01*
X155389243Y-114264284D01*
X155422303Y-114248868D01*
X155591762Y-114169849D01*
X155591767Y-114169846D01*
X155596749Y-114167523D01*
X155761390Y-114052240D01*
X155779789Y-114039357D01*
X155779792Y-114039355D01*
X155784300Y-114036198D01*
X155946198Y-113874300D01*
X155984584Y-113819480D01*
X156056367Y-113716963D01*
X156077523Y-113686749D01*
X156079846Y-113681767D01*
X156079849Y-113681762D01*
X156171961Y-113484225D01*
X156171961Y-113484224D01*
X156174284Y-113479243D01*
X156199779Y-113384097D01*
X156232119Y-113263402D01*
X156232119Y-113263400D01*
X156233543Y-113258087D01*
X156253498Y-113030000D01*
X156233543Y-112801913D01*
X156187872Y-112631468D01*
X156175707Y-112586067D01*
X156175706Y-112586065D01*
X156174284Y-112580757D01*
X156165727Y-112562406D01*
X156079849Y-112378238D01*
X156079846Y-112378233D01*
X156077523Y-112373251D01*
X155946198Y-112185700D01*
X155784300Y-112023802D01*
X155779792Y-112020645D01*
X155779789Y-112020643D01*
X155688644Y-111956823D01*
X155596749Y-111892477D01*
X155591767Y-111890154D01*
X155591762Y-111890151D01*
X155394225Y-111798039D01*
X155394224Y-111798039D01*
X155389243Y-111795716D01*
X155383935Y-111794294D01*
X155383933Y-111794293D01*
X155173402Y-111737881D01*
X155173400Y-111737881D01*
X155168087Y-111736457D01*
X154940000Y-111716502D01*
X154711913Y-111736457D01*
X154706600Y-111737881D01*
X154706598Y-111737881D01*
X154496067Y-111794293D01*
X154496065Y-111794294D01*
X154490757Y-111795716D01*
X154485776Y-111798039D01*
X154485775Y-111798039D01*
X154288238Y-111890151D01*
X154288233Y-111890154D01*
X154283251Y-111892477D01*
X154191356Y-111956823D01*
X154100211Y-112020643D01*
X154100208Y-112020645D01*
X154095700Y-112023802D01*
X153933802Y-112185700D01*
X153802477Y-112373251D01*
X153800154Y-112378233D01*
X153800151Y-112378238D01*
X153714273Y-112562406D01*
X153705716Y-112580757D01*
X153704294Y-112586065D01*
X153704293Y-112586067D01*
X153692128Y-112631468D01*
X153646457Y-112801913D01*
X153626502Y-113030000D01*
X150408500Y-113030000D01*
X150408500Y-107185660D01*
X150428502Y-107117539D01*
X150445405Y-107096565D01*
X152656565Y-104885405D01*
X152718877Y-104851379D01*
X152745660Y-104848500D01*
X166234394Y-104848500D01*
X166302515Y-104868502D01*
X166341826Y-104908665D01*
X166413235Y-105025193D01*
X166413242Y-105025203D01*
X166415824Y-105029416D01*
X166570031Y-105209969D01*
X166750584Y-105364176D01*
X166754792Y-105366755D01*
X166754798Y-105366759D01*
X166868822Y-105436633D01*
X166953037Y-105488240D01*
X166957607Y-105490133D01*
X166957611Y-105490135D01*
X167167833Y-105577211D01*
X167172406Y-105579105D01*
X167220824Y-105590729D01*
X167398476Y-105633380D01*
X167398482Y-105633381D01*
X167403289Y-105634535D01*
X167640000Y-105653165D01*
X167876711Y-105634535D01*
X167881518Y-105633381D01*
X167881524Y-105633380D01*
X168059176Y-105590729D01*
X168107594Y-105579105D01*
X168112167Y-105577211D01*
X168322389Y-105490135D01*
X168322393Y-105490133D01*
X168326963Y-105488240D01*
X168411178Y-105436633D01*
X168515556Y-105372670D01*
X169312160Y-105372670D01*
X169317887Y-105380320D01*
X169489042Y-105485205D01*
X169497837Y-105489687D01*
X169707988Y-105576734D01*
X169717373Y-105579783D01*
X169938554Y-105632885D01*
X169948301Y-105634428D01*
X170175070Y-105652275D01*
X170184930Y-105652275D01*
X170411699Y-105634428D01*
X170421446Y-105632885D01*
X170642627Y-105579783D01*
X170652012Y-105576734D01*
X170862163Y-105489687D01*
X170870958Y-105485205D01*
X171038445Y-105382568D01*
X171047907Y-105372110D01*
X171044124Y-105363334D01*
X170192812Y-104512022D01*
X170178868Y-104504408D01*
X170177035Y-104504539D01*
X170170420Y-104508790D01*
X169318920Y-105360290D01*
X169312160Y-105372670D01*
X168515556Y-105372670D01*
X168525202Y-105366759D01*
X168525208Y-105366755D01*
X168529416Y-105364176D01*
X168709969Y-105209969D01*
X168713177Y-105206213D01*
X168713182Y-105206208D01*
X168843706Y-105053384D01*
X168903156Y-105014574D01*
X168937558Y-105012360D01*
X168956667Y-105004123D01*
X169807978Y-104152812D01*
X169814356Y-104141132D01*
X170544408Y-104141132D01*
X170544539Y-104142965D01*
X170548790Y-104149580D01*
X171400290Y-105001080D01*
X171412670Y-105007840D01*
X171420320Y-105002113D01*
X171525205Y-104830958D01*
X171529687Y-104822163D01*
X171616734Y-104612012D01*
X171619783Y-104602627D01*
X171672885Y-104381446D01*
X171674428Y-104371699D01*
X171692275Y-104144930D01*
X171692275Y-104135070D01*
X171674428Y-103908301D01*
X171672885Y-103898554D01*
X171619783Y-103677373D01*
X171616734Y-103667988D01*
X171529687Y-103457837D01*
X171525205Y-103449042D01*
X171422568Y-103281555D01*
X171412110Y-103272093D01*
X171403334Y-103275876D01*
X170552022Y-104127188D01*
X170544408Y-104141132D01*
X169814356Y-104141132D01*
X169815592Y-104138868D01*
X169815461Y-104137035D01*
X169811210Y-104130420D01*
X168959710Y-103278920D01*
X168942898Y-103269740D01*
X168879650Y-103255980D01*
X168844225Y-103227224D01*
X168713177Y-103073787D01*
X168709969Y-103070031D01*
X168529416Y-102915824D01*
X168525208Y-102913245D01*
X168525202Y-102913241D01*
X168516470Y-102907890D01*
X169312093Y-102907890D01*
X169315876Y-102916666D01*
X170167188Y-103767978D01*
X170181132Y-103775592D01*
X170182965Y-103775461D01*
X170189580Y-103771210D01*
X171041080Y-102919710D01*
X171047840Y-102907330D01*
X171042113Y-102899680D01*
X170870958Y-102794795D01*
X170862163Y-102790313D01*
X170652012Y-102703266D01*
X170642627Y-102700217D01*
X170421446Y-102647115D01*
X170411699Y-102645572D01*
X170184930Y-102627725D01*
X170175070Y-102627725D01*
X169948301Y-102645572D01*
X169938554Y-102647115D01*
X169717373Y-102700217D01*
X169707988Y-102703266D01*
X169497837Y-102790313D01*
X169489042Y-102794795D01*
X169321555Y-102897432D01*
X169312093Y-102907890D01*
X168516470Y-102907890D01*
X168331183Y-102794346D01*
X168326963Y-102791760D01*
X168322393Y-102789867D01*
X168322389Y-102789865D01*
X168112167Y-102702789D01*
X168112165Y-102702788D01*
X168107594Y-102700895D01*
X168015083Y-102678685D01*
X167881524Y-102646620D01*
X167881518Y-102646619D01*
X167876711Y-102645465D01*
X167640000Y-102626835D01*
X167403289Y-102645465D01*
X167398482Y-102646619D01*
X167398476Y-102646620D01*
X167264917Y-102678685D01*
X167172406Y-102700895D01*
X167167835Y-102702788D01*
X167167833Y-102702789D01*
X166957611Y-102789865D01*
X166957607Y-102789867D01*
X166953037Y-102791760D01*
X166948817Y-102794346D01*
X166754798Y-102913241D01*
X166754792Y-102913245D01*
X166750584Y-102915824D01*
X166570031Y-103070031D01*
X166415824Y-103250584D01*
X166413242Y-103254797D01*
X166413235Y-103254807D01*
X166341826Y-103371335D01*
X166289179Y-103418966D01*
X166234394Y-103431500D01*
X163189635Y-103431500D01*
X163121514Y-103411498D01*
X163075021Y-103357842D01*
X163064917Y-103287568D01*
X163094411Y-103222988D01*
X163134203Y-103192349D01*
X163173346Y-103173173D01*
X163177994Y-103170896D01*
X163359860Y-103041173D01*
X163518096Y-102883489D01*
X163648453Y-102702077D01*
X163656556Y-102685683D01*
X163745136Y-102506453D01*
X163745137Y-102506451D01*
X163747430Y-102501811D01*
X163790003Y-102361687D01*
X163810865Y-102293023D01*
X163810865Y-102293021D01*
X163812370Y-102288069D01*
X163841529Y-102066590D01*
X163843156Y-102000000D01*
X163824852Y-101777361D01*
X163770431Y-101560702D01*
X163681354Y-101355840D01*
X163611072Y-101247201D01*
X163562822Y-101172617D01*
X163562820Y-101172614D01*
X163560014Y-101168277D01*
X163409670Y-101003051D01*
X163405619Y-100999852D01*
X163405615Y-100999848D01*
X163238414Y-100867800D01*
X163238410Y-100867798D01*
X163234359Y-100864598D01*
X163198028Y-100844542D01*
X163182136Y-100835769D01*
X163038789Y-100756638D01*
X163033624Y-100754809D01*
X163029285Y-100753272D01*
X162971750Y-100711677D01*
X162945835Y-100645579D01*
X162959770Y-100575964D01*
X163009129Y-100524933D01*
X163071347Y-100508500D01*
X171905500Y-100508500D01*
X171973621Y-100528502D01*
G37*
%TD.AperFunction*%
%TA.AperFunction,Conductor*%
G36*
X130847895Y-100528502D02*
G01*
X130894388Y-100582158D01*
X130904492Y-100652432D01*
X130874998Y-100717012D01*
X130855339Y-100735326D01*
X130826903Y-100756638D01*
X130786739Y-100786739D01*
X130699385Y-100903295D01*
X130648255Y-101039684D01*
X130647402Y-101047540D01*
X130643972Y-101079108D01*
X130616730Y-101144670D01*
X130558366Y-101185096D01*
X130518709Y-101191500D01*
X124069214Y-101191500D01*
X124067894Y-101191493D01*
X124066819Y-101191482D01*
X123977779Y-101190549D01*
X123935403Y-101199711D01*
X123922837Y-101201769D01*
X123879745Y-101206603D01*
X123873094Y-101208919D01*
X123873090Y-101208920D01*
X123848070Y-101217633D01*
X123833257Y-101221796D01*
X123800490Y-101228881D01*
X123761187Y-101247208D01*
X123749411Y-101251990D01*
X123708448Y-101266255D01*
X123702473Y-101269989D01*
X123702470Y-101269990D01*
X123680005Y-101284027D01*
X123666488Y-101291366D01*
X123647815Y-101300074D01*
X123636098Y-101305538D01*
X123630533Y-101309855D01*
X123630531Y-101309856D01*
X123601847Y-101332106D01*
X123591388Y-101339402D01*
X123560596Y-101358642D01*
X123560593Y-101358644D01*
X123554624Y-101362374D01*
X123549629Y-101367334D01*
X123549628Y-101367335D01*
X123525821Y-101390976D01*
X123525196Y-101391561D01*
X123524530Y-101392078D01*
X123498540Y-101418068D01*
X123425918Y-101490185D01*
X123425260Y-101491222D01*
X123424157Y-101492451D01*
X122624842Y-102291766D01*
X122623905Y-102292694D01*
X122559493Y-102355771D01*
X122536002Y-102392221D01*
X122528583Y-102402546D01*
X122501524Y-102436443D01*
X122498459Y-102442784D01*
X122498458Y-102442785D01*
X122486928Y-102466637D01*
X122479399Y-102480054D01*
X122461235Y-102508238D01*
X122458827Y-102514855D01*
X122458824Y-102514860D01*
X122446408Y-102548973D01*
X122441447Y-102560716D01*
X122425646Y-102593403D01*
X122425644Y-102593408D01*
X122422579Y-102599749D01*
X122420996Y-102606607D01*
X122420995Y-102606609D01*
X122415035Y-102632426D01*
X122410668Y-102647169D01*
X122399197Y-102678685D01*
X122398314Y-102685675D01*
X122398312Y-102685683D01*
X122393762Y-102721701D01*
X122391526Y-102734253D01*
X122381776Y-102776485D01*
X122381751Y-102783531D01*
X122381751Y-102783534D01*
X122381634Y-102817056D01*
X122381605Y-102817938D01*
X122381500Y-102818769D01*
X122381500Y-102855419D01*
X122381499Y-102855859D01*
X122381279Y-102919035D01*
X122381143Y-102957870D01*
X122381411Y-102959070D01*
X122381500Y-102960707D01*
X122381500Y-104255195D01*
X122361498Y-104323316D01*
X122331153Y-104355955D01*
X122289106Y-104387525D01*
X122289100Y-104387531D01*
X122284965Y-104390635D01*
X122281393Y-104394373D01*
X122281391Y-104394375D01*
X122165803Y-104515331D01*
X122130629Y-104552138D01*
X122023201Y-104709621D01*
X121968293Y-104754621D01*
X121897768Y-104762792D01*
X121834021Y-104731538D01*
X121813324Y-104707054D01*
X121732822Y-104582617D01*
X121732820Y-104582614D01*
X121730014Y-104578277D01*
X121579670Y-104413051D01*
X121575619Y-104409852D01*
X121575615Y-104409848D01*
X121408414Y-104277800D01*
X121408410Y-104277798D01*
X121404359Y-104274598D01*
X121371229Y-104256309D01*
X121276970Y-104204276D01*
X121208789Y-104166638D01*
X121203920Y-104164914D01*
X121203916Y-104164912D01*
X121003087Y-104093795D01*
X121003083Y-104093794D01*
X120998212Y-104092069D01*
X120993119Y-104091162D01*
X120993116Y-104091161D01*
X120783373Y-104053800D01*
X120783367Y-104053799D01*
X120778284Y-104052894D01*
X120704452Y-104051992D01*
X120560081Y-104050228D01*
X120560079Y-104050228D01*
X120554911Y-104050165D01*
X120334091Y-104083955D01*
X120121756Y-104153357D01*
X119923607Y-104256507D01*
X119919474Y-104259610D01*
X119919471Y-104259612D01*
X119749107Y-104387525D01*
X119744965Y-104390635D01*
X119590629Y-104552138D01*
X119483201Y-104709621D01*
X119428293Y-104754621D01*
X119357768Y-104762792D01*
X119294021Y-104731538D01*
X119273324Y-104707054D01*
X119192822Y-104582617D01*
X119192820Y-104582614D01*
X119190014Y-104578277D01*
X119039670Y-104413051D01*
X119035619Y-104409852D01*
X119035615Y-104409848D01*
X118868414Y-104277800D01*
X118868410Y-104277798D01*
X118864359Y-104274598D01*
X118831229Y-104256309D01*
X118736970Y-104204276D01*
X118668789Y-104166638D01*
X118663920Y-104164914D01*
X118663916Y-104164912D01*
X118463087Y-104093795D01*
X118463083Y-104093794D01*
X118458212Y-104092069D01*
X118453119Y-104091162D01*
X118453116Y-104091161D01*
X118243373Y-104053800D01*
X118243367Y-104053799D01*
X118238284Y-104052894D01*
X118164452Y-104051992D01*
X118020081Y-104050228D01*
X118020079Y-104050228D01*
X118014911Y-104050165D01*
X117794091Y-104083955D01*
X117581756Y-104153357D01*
X117383607Y-104256507D01*
X117379474Y-104259610D01*
X117379471Y-104259612D01*
X117209107Y-104387525D01*
X117204965Y-104390635D01*
X117050629Y-104552138D01*
X116924743Y-104736680D01*
X116885063Y-104822163D01*
X116844911Y-104908665D01*
X116830688Y-104939305D01*
X116770989Y-105154570D01*
X116747251Y-105376695D01*
X116747548Y-105381848D01*
X116747548Y-105381851D01*
X116753867Y-105491441D01*
X116760110Y-105599715D01*
X116761247Y-105604761D01*
X116761248Y-105604767D01*
X116775606Y-105668475D01*
X116809222Y-105817639D01*
X116893266Y-106024616D01*
X116944942Y-106108944D01*
X117007291Y-106210688D01*
X117009987Y-106215088D01*
X117156250Y-106383938D01*
X117328126Y-106526632D01*
X117339070Y-106533027D01*
X117387793Y-106584664D01*
X117401500Y-106641815D01*
X117401500Y-114271088D01*
X117401208Y-114279658D01*
X117398184Y-114324022D01*
X117397275Y-114337352D01*
X117398580Y-114344829D01*
X117398580Y-114344830D01*
X117408261Y-114400299D01*
X117409223Y-114406821D01*
X117416898Y-114470242D01*
X117419581Y-114477343D01*
X117420222Y-114479952D01*
X117424685Y-114496262D01*
X117425450Y-114498798D01*
X117426757Y-114506284D01*
X117429811Y-114513241D01*
X117452442Y-114564795D01*
X117454935Y-114570904D01*
X117474251Y-114622022D01*
X117477513Y-114630656D01*
X117481817Y-114636919D01*
X117483054Y-114639285D01*
X117491299Y-114654097D01*
X117492632Y-114656351D01*
X117495685Y-114663305D01*
X117506060Y-114676825D01*
X117534579Y-114713991D01*
X117538459Y-114719332D01*
X117570339Y-114765720D01*
X117570344Y-114765725D01*
X117574643Y-114771981D01*
X117580313Y-114777032D01*
X117580314Y-114777034D01*
X117621170Y-114813435D01*
X117626446Y-114818416D01*
X120128557Y-117320528D01*
X120134411Y-117326793D01*
X120136930Y-117329680D01*
X120172439Y-117370385D01*
X120224729Y-117407136D01*
X120229971Y-117411028D01*
X120280282Y-117450476D01*
X120287201Y-117453600D01*
X120289493Y-117454988D01*
X120304165Y-117463357D01*
X120306525Y-117464622D01*
X120312739Y-117468990D01*
X120319818Y-117471750D01*
X120319820Y-117471751D01*
X120372275Y-117492202D01*
X120378344Y-117494753D01*
X120436573Y-117521045D01*
X120444046Y-117522430D01*
X120446612Y-117523234D01*
X120462835Y-117527855D01*
X120465427Y-117528520D01*
X120472509Y-117531282D01*
X120480044Y-117532274D01*
X120535861Y-117539622D01*
X120542377Y-117540654D01*
X120580770Y-117547770D01*
X120605186Y-117552295D01*
X120612766Y-117551858D01*
X120612767Y-117551858D01*
X120667380Y-117548709D01*
X120674633Y-117548500D01*
X135971396Y-117548500D01*
X136039517Y-117568502D01*
X136060492Y-117585405D01*
X136523359Y-118048273D01*
X136557384Y-118110585D01*
X136552319Y-118181401D01*
X136509772Y-118238236D01*
X136503566Y-118242330D01*
X136503251Y-118242477D01*
X136501750Y-118243528D01*
X136501747Y-118243530D01*
X136320211Y-118370643D01*
X136320208Y-118370645D01*
X136315700Y-118373802D01*
X136153802Y-118535700D01*
X136150645Y-118540208D01*
X136150643Y-118540211D01*
X136126333Y-118574930D01*
X136022477Y-118723251D01*
X136020154Y-118728233D01*
X136020151Y-118728238D01*
X135985896Y-118801699D01*
X135925716Y-118930757D01*
X135924294Y-118936065D01*
X135924293Y-118936067D01*
X135898420Y-119032627D01*
X135866457Y-119151913D01*
X135846502Y-119380000D01*
X135866457Y-119608087D01*
X135867881Y-119613400D01*
X135867881Y-119613402D01*
X135906312Y-119756825D01*
X135925716Y-119829243D01*
X135928039Y-119834224D01*
X135928039Y-119834225D01*
X136020151Y-120031762D01*
X136020154Y-120031767D01*
X136022477Y-120036749D01*
X136086759Y-120128553D01*
X136128641Y-120188366D01*
X136153802Y-120224300D01*
X136315700Y-120386198D01*
X136320208Y-120389355D01*
X136320211Y-120389357D01*
X136368311Y-120423037D01*
X136503251Y-120517523D01*
X136508233Y-120519846D01*
X136508238Y-120519849D01*
X136705775Y-120611961D01*
X136710757Y-120614284D01*
X136716065Y-120615706D01*
X136716067Y-120615707D01*
X136926598Y-120672119D01*
X136926600Y-120672119D01*
X136931913Y-120673543D01*
X137160000Y-120693498D01*
X137165475Y-120693019D01*
X137165476Y-120693019D01*
X137257892Y-120684934D01*
X137327497Y-120698924D01*
X137357968Y-120721360D01*
X138694595Y-122057987D01*
X138728621Y-122120299D01*
X138731500Y-122147082D01*
X138731500Y-123845195D01*
X138711498Y-123913316D01*
X138681153Y-123945955D01*
X138639106Y-123977525D01*
X138639100Y-123977531D01*
X138634965Y-123980635D01*
X138631393Y-123984373D01*
X138631391Y-123984375D01*
X138541280Y-124078671D01*
X138480629Y-124142138D01*
X138373201Y-124299621D01*
X138318293Y-124344621D01*
X138247768Y-124352792D01*
X138184021Y-124321538D01*
X138163324Y-124297054D01*
X138082822Y-124172617D01*
X138082820Y-124172614D01*
X138080014Y-124168277D01*
X137929670Y-124003051D01*
X137925619Y-123999852D01*
X137925615Y-123999848D01*
X137758414Y-123867800D01*
X137758410Y-123867798D01*
X137754359Y-123864598D01*
X137721229Y-123846309D01*
X137652371Y-123808298D01*
X137558789Y-123756638D01*
X137553920Y-123754914D01*
X137553916Y-123754912D01*
X137353087Y-123683795D01*
X137353083Y-123683794D01*
X137348212Y-123682069D01*
X137343119Y-123681162D01*
X137343116Y-123681161D01*
X137133373Y-123643800D01*
X137133367Y-123643799D01*
X137128284Y-123642894D01*
X137054452Y-123641992D01*
X136910081Y-123640228D01*
X136910079Y-123640228D01*
X136904911Y-123640165D01*
X136684091Y-123673955D01*
X136471756Y-123743357D01*
X136273607Y-123846507D01*
X136269474Y-123849610D01*
X136269471Y-123849612D01*
X136142172Y-123945191D01*
X136094965Y-123980635D01*
X136055525Y-124021907D01*
X136001280Y-124078671D01*
X135940629Y-124142138D01*
X135833201Y-124299621D01*
X135778293Y-124344621D01*
X135707768Y-124352792D01*
X135644021Y-124321538D01*
X135623324Y-124297054D01*
X135542822Y-124172617D01*
X135542820Y-124172614D01*
X135540014Y-124168277D01*
X135389670Y-124003051D01*
X135385619Y-123999852D01*
X135385615Y-123999848D01*
X135218414Y-123867800D01*
X135218410Y-123867798D01*
X135214359Y-123864598D01*
X135181229Y-123846309D01*
X135112371Y-123808298D01*
X135018789Y-123756638D01*
X135013920Y-123754914D01*
X135013916Y-123754912D01*
X134813087Y-123683795D01*
X134813083Y-123683794D01*
X134808212Y-123682069D01*
X134803119Y-123681162D01*
X134803116Y-123681161D01*
X134593373Y-123643800D01*
X134593367Y-123643799D01*
X134588284Y-123642894D01*
X134514452Y-123641992D01*
X134370081Y-123640228D01*
X134370079Y-123640228D01*
X134364911Y-123640165D01*
X134144091Y-123673955D01*
X133931756Y-123743357D01*
X133733607Y-123846507D01*
X133729474Y-123849610D01*
X133729471Y-123849612D01*
X133602172Y-123945191D01*
X133554965Y-123980635D01*
X133515525Y-124021907D01*
X133461280Y-124078671D01*
X133400629Y-124142138D01*
X133293201Y-124299621D01*
X133238293Y-124344621D01*
X133167768Y-124352792D01*
X133104021Y-124321538D01*
X133083324Y-124297054D01*
X133002822Y-124172617D01*
X133002820Y-124172614D01*
X133000014Y-124168277D01*
X132849670Y-124003051D01*
X132845619Y-123999852D01*
X132845615Y-123999848D01*
X132678414Y-123867800D01*
X132678410Y-123867798D01*
X132674359Y-123864598D01*
X132641229Y-123846309D01*
X132572371Y-123808298D01*
X132478789Y-123756638D01*
X132473920Y-123754914D01*
X132473916Y-123754912D01*
X132273087Y-123683795D01*
X132273083Y-123683794D01*
X132268212Y-123682069D01*
X132263119Y-123681162D01*
X132263116Y-123681161D01*
X132053373Y-123643800D01*
X132053367Y-123643799D01*
X132048284Y-123642894D01*
X131974452Y-123641992D01*
X131830081Y-123640228D01*
X131830079Y-123640228D01*
X131824911Y-123640165D01*
X131604091Y-123673955D01*
X131391756Y-123743357D01*
X131193607Y-123846507D01*
X131189474Y-123849610D01*
X131189471Y-123849612D01*
X131062172Y-123945191D01*
X131014965Y-123980635D01*
X130975525Y-124021907D01*
X130921280Y-124078671D01*
X130860629Y-124142138D01*
X130734743Y-124326680D01*
X130640688Y-124529305D01*
X130580989Y-124744570D01*
X130557251Y-124966695D01*
X130570110Y-125189715D01*
X130571247Y-125194761D01*
X130571248Y-125194767D01*
X130595304Y-125301508D01*
X130619222Y-125407639D01*
X130703266Y-125614616D01*
X130740685Y-125675678D01*
X130817291Y-125800688D01*
X130819987Y-125805088D01*
X130966250Y-125973938D01*
X131138126Y-126116632D01*
X131331000Y-126229338D01*
X131335825Y-126231180D01*
X131335826Y-126231181D01*
X131379321Y-126247790D01*
X131435824Y-126290778D01*
X131460117Y-126357489D01*
X131444487Y-126426743D01*
X131393896Y-126476554D01*
X131334372Y-126491500D01*
X99364500Y-126491500D01*
X99296379Y-126471498D01*
X99249886Y-126417842D01*
X99238500Y-126365500D01*
X99238500Y-121110000D01*
X100086835Y-121110000D01*
X100105465Y-121346711D01*
X100160895Y-121577594D01*
X100251760Y-121796963D01*
X100254346Y-121801183D01*
X100373241Y-121995202D01*
X100373245Y-121995208D01*
X100375824Y-121999416D01*
X100530031Y-122179969D01*
X100710584Y-122334176D01*
X100714792Y-122336755D01*
X100714798Y-122336759D01*
X100871361Y-122432701D01*
X100913037Y-122458240D01*
X100917607Y-122460133D01*
X100917611Y-122460135D01*
X101064228Y-122520865D01*
X101132406Y-122549105D01*
X101195615Y-122564280D01*
X101358476Y-122603380D01*
X101358482Y-122603381D01*
X101363289Y-122604535D01*
X101600000Y-122623165D01*
X101836711Y-122604535D01*
X101841518Y-122603381D01*
X101841524Y-122603380D01*
X102004385Y-122564280D01*
X102067594Y-122549105D01*
X102135772Y-122520865D01*
X102282389Y-122460135D01*
X102282393Y-122460133D01*
X102286963Y-122458240D01*
X102328639Y-122432701D01*
X102485202Y-122336759D01*
X102485208Y-122336755D01*
X102489416Y-122334176D01*
X102669969Y-122179969D01*
X102824176Y-121999416D01*
X102826755Y-121995208D01*
X102826759Y-121995202D01*
X102945654Y-121801183D01*
X102948240Y-121796963D01*
X103039105Y-121577594D01*
X103094535Y-121346711D01*
X103113165Y-121110000D01*
X103094535Y-120873289D01*
X103039105Y-120642406D01*
X103027457Y-120614284D01*
X102950135Y-120427611D01*
X102950133Y-120427607D01*
X102948240Y-120423037D01*
X102923277Y-120382301D01*
X102826759Y-120224798D01*
X102826755Y-120224792D01*
X102824176Y-120220584D01*
X102669969Y-120040031D01*
X102666213Y-120036823D01*
X102666208Y-120036818D01*
X102513384Y-119906294D01*
X102474574Y-119846844D01*
X102472360Y-119812442D01*
X102464123Y-119793333D01*
X101612812Y-118942022D01*
X101598868Y-118934408D01*
X101597035Y-118934539D01*
X101590420Y-118938790D01*
X100738920Y-119790290D01*
X100729740Y-119807102D01*
X100715980Y-119870350D01*
X100687224Y-119905775D01*
X100625120Y-119958817D01*
X100530031Y-120040031D01*
X100375824Y-120220584D01*
X100373245Y-120224792D01*
X100373241Y-120224798D01*
X100276723Y-120382301D01*
X100251760Y-120423037D01*
X100249867Y-120427607D01*
X100249865Y-120427611D01*
X100172543Y-120614284D01*
X100160895Y-120642406D01*
X100105465Y-120873289D01*
X100086835Y-121110000D01*
X99238500Y-121110000D01*
X99238500Y-118574930D01*
X100087725Y-118574930D01*
X100105572Y-118801699D01*
X100107115Y-118811446D01*
X100160217Y-119032627D01*
X100163266Y-119042012D01*
X100250313Y-119252163D01*
X100254795Y-119260958D01*
X100357432Y-119428445D01*
X100367890Y-119437907D01*
X100376666Y-119434124D01*
X101227978Y-118582812D01*
X101234356Y-118571132D01*
X101964408Y-118571132D01*
X101964539Y-118572965D01*
X101968790Y-118579580D01*
X102820290Y-119431080D01*
X102832670Y-119437840D01*
X102840320Y-119432113D01*
X102945205Y-119260958D01*
X102949687Y-119252163D01*
X103036734Y-119042012D01*
X103039783Y-119032627D01*
X103092885Y-118811446D01*
X103094428Y-118801699D01*
X103112275Y-118574930D01*
X103112275Y-118565070D01*
X103094428Y-118338301D01*
X103092885Y-118328554D01*
X103039783Y-118107373D01*
X103036734Y-118097988D01*
X102949687Y-117887837D01*
X102945205Y-117879042D01*
X102842568Y-117711555D01*
X102832110Y-117702093D01*
X102823334Y-117705876D01*
X101972022Y-118557188D01*
X101964408Y-118571132D01*
X101234356Y-118571132D01*
X101235592Y-118568868D01*
X101235461Y-118567035D01*
X101231210Y-118560420D01*
X100379710Y-117708920D01*
X100367330Y-117702160D01*
X100359680Y-117707887D01*
X100254795Y-117879042D01*
X100250313Y-117887837D01*
X100163266Y-118097988D01*
X100160217Y-118107373D01*
X100107115Y-118328554D01*
X100105572Y-118338301D01*
X100087725Y-118565070D01*
X100087725Y-118574930D01*
X99238500Y-118574930D01*
X99238500Y-117337890D01*
X100732093Y-117337890D01*
X100735876Y-117346666D01*
X101587188Y-118197978D01*
X101601132Y-118205592D01*
X101602965Y-118205461D01*
X101609580Y-118201210D01*
X102461080Y-117349710D01*
X102467840Y-117337330D01*
X102462113Y-117329680D01*
X102290958Y-117224795D01*
X102282163Y-117220313D01*
X102072012Y-117133266D01*
X102062627Y-117130217D01*
X101841446Y-117077115D01*
X101831699Y-117075572D01*
X101604930Y-117057725D01*
X101595070Y-117057725D01*
X101368301Y-117075572D01*
X101358554Y-117077115D01*
X101137373Y-117130217D01*
X101127988Y-117133266D01*
X100917837Y-117220313D01*
X100909042Y-117224795D01*
X100741555Y-117327432D01*
X100732093Y-117337890D01*
X99238500Y-117337890D01*
X99238500Y-115482670D01*
X108352160Y-115482670D01*
X108357887Y-115490320D01*
X108529042Y-115595205D01*
X108537837Y-115599687D01*
X108747988Y-115686734D01*
X108757373Y-115689783D01*
X108978554Y-115742885D01*
X108988301Y-115744428D01*
X109215070Y-115762275D01*
X109224930Y-115762275D01*
X109451699Y-115744428D01*
X109461446Y-115742885D01*
X109682627Y-115689783D01*
X109692012Y-115686734D01*
X109902163Y-115599687D01*
X109910958Y-115595205D01*
X110078445Y-115492568D01*
X110087907Y-115482110D01*
X110084124Y-115473334D01*
X109232812Y-114622022D01*
X109218868Y-114614408D01*
X109217035Y-114614539D01*
X109210420Y-114618790D01*
X108358920Y-115470290D01*
X108352160Y-115482670D01*
X99238500Y-115482670D01*
X99238500Y-113041695D01*
X100262251Y-113041695D01*
X100262548Y-113046848D01*
X100262548Y-113046851D01*
X100272714Y-113223165D01*
X100275110Y-113264715D01*
X100276247Y-113269761D01*
X100276248Y-113269767D01*
X100297275Y-113363069D01*
X100324222Y-113482639D01*
X100408266Y-113689616D01*
X100410965Y-113694020D01*
X100485981Y-113816435D01*
X100524987Y-113880088D01*
X100671250Y-114048938D01*
X100843126Y-114191632D01*
X101036000Y-114304338D01*
X101244692Y-114384030D01*
X101249760Y-114385061D01*
X101249763Y-114385062D01*
X101324656Y-114400299D01*
X101463597Y-114428567D01*
X101468772Y-114428757D01*
X101468774Y-114428757D01*
X101681673Y-114436564D01*
X101681677Y-114436564D01*
X101686837Y-114436753D01*
X101691957Y-114436097D01*
X101691959Y-114436097D01*
X101903288Y-114409025D01*
X101903289Y-114409025D01*
X101908416Y-114408368D01*
X101913559Y-114406825D01*
X102117429Y-114345661D01*
X102117434Y-114345659D01*
X102122384Y-114344174D01*
X102304553Y-114254930D01*
X107707725Y-114254930D01*
X107725572Y-114481699D01*
X107727115Y-114491446D01*
X107780217Y-114712627D01*
X107783266Y-114722012D01*
X107870313Y-114932163D01*
X107874795Y-114940958D01*
X107977432Y-115108445D01*
X107987890Y-115117907D01*
X107996666Y-115114124D01*
X108847978Y-114262812D01*
X108854356Y-114251132D01*
X109584408Y-114251132D01*
X109584539Y-114252965D01*
X109588790Y-114259580D01*
X110440290Y-115111080D01*
X110452670Y-115117840D01*
X110460320Y-115112113D01*
X110565205Y-114940958D01*
X110569687Y-114932163D01*
X110656734Y-114722012D01*
X110659783Y-114712627D01*
X110712885Y-114491446D01*
X110714428Y-114481699D01*
X110732275Y-114254930D01*
X110732275Y-114245070D01*
X110714428Y-114018301D01*
X110712885Y-114008554D01*
X110659783Y-113787373D01*
X110656734Y-113777988D01*
X110569687Y-113567837D01*
X110565205Y-113559042D01*
X110462568Y-113391555D01*
X110452110Y-113382093D01*
X110443334Y-113385876D01*
X109592022Y-114237188D01*
X109584408Y-114251132D01*
X108854356Y-114251132D01*
X108855592Y-114248868D01*
X108855461Y-114247035D01*
X108851210Y-114240420D01*
X107999710Y-113388920D01*
X107987330Y-113382160D01*
X107979680Y-113387887D01*
X107874795Y-113559042D01*
X107870313Y-113567837D01*
X107783266Y-113777988D01*
X107780217Y-113787373D01*
X107727115Y-114008554D01*
X107725572Y-114018301D01*
X107707725Y-114245070D01*
X107707725Y-114254930D01*
X102304553Y-114254930D01*
X102322994Y-114245896D01*
X102504860Y-114116173D01*
X102517897Y-114103182D01*
X102659435Y-113962137D01*
X102663096Y-113958489D01*
X102722594Y-113875689D01*
X102790435Y-113781277D01*
X102793453Y-113777077D01*
X102815301Y-113732872D01*
X102890136Y-113581453D01*
X102890137Y-113581451D01*
X102892430Y-113576811D01*
X102951590Y-113382093D01*
X102955865Y-113368023D01*
X102955865Y-113368021D01*
X102957370Y-113363069D01*
X102986529Y-113141590D01*
X102986611Y-113138240D01*
X102988074Y-113078365D01*
X102988074Y-113078361D01*
X102988156Y-113075000D01*
X102969852Y-112852361D01*
X102915431Y-112635702D01*
X102826354Y-112430840D01*
X102705014Y-112243277D01*
X102554670Y-112078051D01*
X102550619Y-112074852D01*
X102550615Y-112074848D01*
X102383414Y-111942800D01*
X102383410Y-111942798D01*
X102379359Y-111939598D01*
X102338053Y-111916796D01*
X102288084Y-111866364D01*
X102273312Y-111796921D01*
X102298428Y-111730516D01*
X102319518Y-111710000D01*
X107706835Y-111710000D01*
X107725465Y-111946711D01*
X107726619Y-111951518D01*
X107726620Y-111951524D01*
X107743214Y-112020643D01*
X107780895Y-112177594D01*
X107782788Y-112182165D01*
X107782789Y-112182167D01*
X107808102Y-112243277D01*
X107871760Y-112396963D01*
X107874346Y-112401183D01*
X107993241Y-112595202D01*
X107993245Y-112595208D01*
X107995824Y-112599416D01*
X108150031Y-112779969D01*
X108153787Y-112783177D01*
X108153792Y-112783182D01*
X108306616Y-112913706D01*
X108345426Y-112973156D01*
X108347640Y-113007558D01*
X108355877Y-113026667D01*
X109207188Y-113877978D01*
X109221132Y-113885592D01*
X109222965Y-113885461D01*
X109229580Y-113881210D01*
X110081080Y-113029710D01*
X110090260Y-113012898D01*
X110104020Y-112949650D01*
X110132776Y-112914225D01*
X110286213Y-112783177D01*
X110289969Y-112779969D01*
X110444176Y-112599416D01*
X110446755Y-112595208D01*
X110446759Y-112595202D01*
X110565654Y-112401183D01*
X110568240Y-112396963D01*
X110631899Y-112243277D01*
X110657211Y-112182167D01*
X110657212Y-112182165D01*
X110659105Y-112177594D01*
X110696786Y-112020643D01*
X110713380Y-111951524D01*
X110713381Y-111951518D01*
X110714535Y-111946711D01*
X110733165Y-111710000D01*
X110714535Y-111473289D01*
X110659105Y-111242406D01*
X110622495Y-111154020D01*
X110570135Y-111027611D01*
X110570133Y-111027607D01*
X110568240Y-111023037D01*
X110518972Y-110942639D01*
X110446759Y-110824798D01*
X110446755Y-110824792D01*
X110444176Y-110820584D01*
X110289969Y-110640031D01*
X110109416Y-110485824D01*
X110105208Y-110483245D01*
X110105202Y-110483241D01*
X109911183Y-110364346D01*
X109906963Y-110361760D01*
X109902393Y-110359867D01*
X109902389Y-110359865D01*
X109692167Y-110272789D01*
X109692165Y-110272788D01*
X109687594Y-110270895D01*
X109607391Y-110251640D01*
X109461524Y-110216620D01*
X109461518Y-110216619D01*
X109456711Y-110215465D01*
X109220000Y-110196835D01*
X108983289Y-110215465D01*
X108978482Y-110216619D01*
X108978476Y-110216620D01*
X108832609Y-110251640D01*
X108752406Y-110270895D01*
X108747835Y-110272788D01*
X108747833Y-110272789D01*
X108537611Y-110359865D01*
X108537607Y-110359867D01*
X108533037Y-110361760D01*
X108528817Y-110364346D01*
X108334798Y-110483241D01*
X108334792Y-110483245D01*
X108330584Y-110485824D01*
X108150031Y-110640031D01*
X107995824Y-110820584D01*
X107993245Y-110824792D01*
X107993241Y-110824798D01*
X107921028Y-110942639D01*
X107871760Y-111023037D01*
X107869867Y-111027607D01*
X107869865Y-111027611D01*
X107817505Y-111154020D01*
X107780895Y-111242406D01*
X107725465Y-111473289D01*
X107706835Y-111710000D01*
X102319518Y-111710000D01*
X102325780Y-111703909D01*
X102369603Y-111672650D01*
X102504860Y-111576173D01*
X102544552Y-111536620D01*
X102659435Y-111422137D01*
X102663096Y-111418489D01*
X102676597Y-111399701D01*
X102790435Y-111241277D01*
X102793453Y-111237077D01*
X102892430Y-111036811D01*
X102957370Y-110823069D01*
X102986529Y-110601590D01*
X102988156Y-110535000D01*
X102969852Y-110312361D01*
X102915431Y-110095702D01*
X102826354Y-109890840D01*
X102705014Y-109703277D01*
X102701532Y-109699450D01*
X102557798Y-109541488D01*
X102526746Y-109477642D01*
X102535141Y-109407143D01*
X102580317Y-109352375D01*
X102606761Y-109338706D01*
X102713297Y-109298767D01*
X102721705Y-109295615D01*
X102838261Y-109208261D01*
X102925615Y-109091705D01*
X102976745Y-108955316D01*
X102983500Y-108893134D01*
X102983500Y-107096866D01*
X102976745Y-107034684D01*
X102925615Y-106898295D01*
X102838261Y-106781739D01*
X102721705Y-106694385D01*
X102585316Y-106643255D01*
X102523134Y-106636500D01*
X100726866Y-106636500D01*
X100664684Y-106643255D01*
X100528295Y-106694385D01*
X100411739Y-106781739D01*
X100324385Y-106898295D01*
X100273255Y-107034684D01*
X100266500Y-107096866D01*
X100266500Y-108893134D01*
X100273255Y-108955316D01*
X100324385Y-109091705D01*
X100411739Y-109208261D01*
X100528295Y-109295615D01*
X100536704Y-109298767D01*
X100536705Y-109298768D01*
X100645451Y-109339535D01*
X100702216Y-109382176D01*
X100726916Y-109448738D01*
X100711709Y-109518087D01*
X100692316Y-109544568D01*
X100565629Y-109677138D01*
X100439743Y-109861680D01*
X100345688Y-110064305D01*
X100285989Y-110279570D01*
X100262251Y-110501695D01*
X100262548Y-110506848D01*
X100262548Y-110506851D01*
X100268011Y-110601590D01*
X100275110Y-110724715D01*
X100276247Y-110729761D01*
X100276248Y-110729767D01*
X100295868Y-110816825D01*
X100324222Y-110942639D01*
X100408266Y-111149616D01*
X100524987Y-111340088D01*
X100671250Y-111508938D01*
X100843126Y-111651632D01*
X100891441Y-111679865D01*
X100916445Y-111694476D01*
X100965169Y-111746114D01*
X100978240Y-111815897D01*
X100951509Y-111881669D01*
X100911055Y-111915027D01*
X100898607Y-111921507D01*
X100894474Y-111924610D01*
X100894471Y-111924612D01*
X100757172Y-112027699D01*
X100719965Y-112055635D01*
X100565629Y-112217138D01*
X100439743Y-112401680D01*
X100392716Y-112502992D01*
X100354154Y-112586067D01*
X100345688Y-112604305D01*
X100285989Y-112819570D01*
X100262251Y-113041695D01*
X99238500Y-113041695D01*
X99238500Y-100634500D01*
X99258502Y-100566379D01*
X99312158Y-100519886D01*
X99364500Y-100508500D01*
X130779774Y-100508500D01*
X130847895Y-100528502D01*
G37*
%TD.AperFunction*%
%TA.AperFunction,Conductor*%
G36*
X134736121Y-101766002D02*
G01*
X134782614Y-101819658D01*
X134794000Y-101872000D01*
X134794000Y-103318517D01*
X134798064Y-103332359D01*
X134811478Y-103334393D01*
X134818184Y-103333534D01*
X134828262Y-103331392D01*
X135032255Y-103270191D01*
X135041842Y-103266433D01*
X135233095Y-103172739D01*
X135241945Y-103167464D01*
X135415328Y-103043792D01*
X135423200Y-103037139D01*
X135574052Y-102886812D01*
X135580730Y-102878965D01*
X135708022Y-102701819D01*
X135709279Y-102702722D01*
X135756373Y-102659362D01*
X135826311Y-102647145D01*
X135891751Y-102674678D01*
X135919579Y-102706511D01*
X135936579Y-102734253D01*
X135979987Y-102805088D01*
X136126250Y-102973938D01*
X136298126Y-103116632D01*
X136491000Y-103229338D01*
X136495825Y-103231180D01*
X136495826Y-103231181D01*
X136557696Y-103254807D01*
X136699692Y-103309030D01*
X136704760Y-103310061D01*
X136704763Y-103310062D01*
X136799862Y-103329410D01*
X136918597Y-103353567D01*
X136923772Y-103353757D01*
X136923774Y-103353757D01*
X137136673Y-103361564D01*
X137136677Y-103361564D01*
X137141837Y-103361753D01*
X137146957Y-103361097D01*
X137146959Y-103361097D01*
X137358288Y-103334025D01*
X137358289Y-103334025D01*
X137363416Y-103333368D01*
X137368366Y-103331883D01*
X137572429Y-103270661D01*
X137572434Y-103270659D01*
X137577384Y-103269174D01*
X137777994Y-103170896D01*
X137959860Y-103041173D01*
X138118096Y-102883489D01*
X138165354Y-102817723D01*
X138248453Y-102702077D01*
X138249640Y-102702930D01*
X138296960Y-102659362D01*
X138366897Y-102647145D01*
X138432338Y-102674678D01*
X138460166Y-102706511D01*
X138517694Y-102800388D01*
X138523777Y-102808699D01*
X138663213Y-102969667D01*
X138670580Y-102976883D01*
X138834434Y-103112916D01*
X138842881Y-103118831D01*
X139026756Y-103226279D01*
X139036042Y-103230729D01*
X139235001Y-103306703D01*
X139244899Y-103309579D01*
X139348250Y-103330606D01*
X139362299Y-103329410D01*
X139366000Y-103319065D01*
X139366000Y-101872000D01*
X139386002Y-101803879D01*
X139439658Y-101757386D01*
X139492000Y-101746000D01*
X139748000Y-101746000D01*
X139816121Y-101766002D01*
X139862614Y-101819658D01*
X139874000Y-101872000D01*
X139874000Y-103318517D01*
X139878064Y-103332359D01*
X139891478Y-103334393D01*
X139898184Y-103333534D01*
X139908262Y-103331392D01*
X140112255Y-103270191D01*
X140121842Y-103266433D01*
X140313095Y-103172739D01*
X140321945Y-103167464D01*
X140495328Y-103043792D01*
X140503200Y-103037139D01*
X140654052Y-102886812D01*
X140660730Y-102878965D01*
X140788022Y-102701819D01*
X140789279Y-102702722D01*
X140836373Y-102659362D01*
X140906311Y-102647145D01*
X140971751Y-102674678D01*
X140999579Y-102706511D01*
X141016579Y-102734253D01*
X141059987Y-102805088D01*
X141206250Y-102973938D01*
X141378126Y-103116632D01*
X141571000Y-103229338D01*
X141575825Y-103231180D01*
X141575826Y-103231181D01*
X141637696Y-103254807D01*
X141779692Y-103309030D01*
X141784760Y-103310061D01*
X141784763Y-103310062D01*
X141879862Y-103329410D01*
X141998597Y-103353567D01*
X142003772Y-103353757D01*
X142003774Y-103353757D01*
X142216673Y-103361564D01*
X142216677Y-103361564D01*
X142221837Y-103361753D01*
X142226957Y-103361097D01*
X142226959Y-103361097D01*
X142438288Y-103334025D01*
X142438289Y-103334025D01*
X142443416Y-103333368D01*
X142448366Y-103331883D01*
X142652429Y-103270661D01*
X142652434Y-103270659D01*
X142657384Y-103269174D01*
X142857994Y-103170896D01*
X143039860Y-103041173D01*
X143198096Y-102883489D01*
X143245354Y-102817723D01*
X143328453Y-102702077D01*
X143329776Y-102703028D01*
X143376645Y-102659857D01*
X143446580Y-102647625D01*
X143512026Y-102675144D01*
X143539875Y-102706994D01*
X143555852Y-102733066D01*
X143599987Y-102805088D01*
X143746250Y-102973938D01*
X143918126Y-103116632D01*
X144111000Y-103229338D01*
X144115825Y-103231180D01*
X144115826Y-103231181D01*
X144177696Y-103254807D01*
X144319692Y-103309030D01*
X144324760Y-103310061D01*
X144324763Y-103310062D01*
X144419862Y-103329410D01*
X144538597Y-103353567D01*
X144543772Y-103353757D01*
X144543774Y-103353757D01*
X144756673Y-103361564D01*
X144756677Y-103361564D01*
X144761837Y-103361753D01*
X144766957Y-103361097D01*
X144766959Y-103361097D01*
X144978288Y-103334025D01*
X144978289Y-103334025D01*
X144983416Y-103333368D01*
X144988366Y-103331883D01*
X145192429Y-103270661D01*
X145192434Y-103270659D01*
X145197384Y-103269174D01*
X145397994Y-103170896D01*
X145579860Y-103041173D01*
X145738096Y-102883489D01*
X145785354Y-102817723D01*
X145868453Y-102702077D01*
X145869776Y-102703028D01*
X145916645Y-102659857D01*
X145986580Y-102647625D01*
X146052026Y-102675144D01*
X146079875Y-102706994D01*
X146095852Y-102733066D01*
X146139987Y-102805088D01*
X146286250Y-102973938D01*
X146458126Y-103116632D01*
X146651000Y-103229338D01*
X146655825Y-103231180D01*
X146655826Y-103231181D01*
X146717696Y-103254807D01*
X146859692Y-103309030D01*
X146864760Y-103310061D01*
X146864763Y-103310062D01*
X146959862Y-103329410D01*
X147078597Y-103353567D01*
X147083772Y-103353757D01*
X147083774Y-103353757D01*
X147296673Y-103361564D01*
X147296677Y-103361564D01*
X147301837Y-103361753D01*
X147306957Y-103361097D01*
X147306959Y-103361097D01*
X147518288Y-103334025D01*
X147518289Y-103334025D01*
X147523416Y-103333368D01*
X147528366Y-103331883D01*
X147732429Y-103270661D01*
X147732434Y-103270659D01*
X147737384Y-103269174D01*
X147937994Y-103170896D01*
X148119860Y-103041173D01*
X148278096Y-102883489D01*
X148325354Y-102817723D01*
X148408453Y-102702077D01*
X148409776Y-102703028D01*
X148456645Y-102659857D01*
X148526580Y-102647625D01*
X148592026Y-102675144D01*
X148619875Y-102706994D01*
X148635852Y-102733066D01*
X148679987Y-102805088D01*
X148826250Y-102973938D01*
X148998126Y-103116632D01*
X149191000Y-103229338D01*
X149195825Y-103231180D01*
X149195826Y-103231181D01*
X149257696Y-103254807D01*
X149399692Y-103309030D01*
X149404760Y-103310061D01*
X149404763Y-103310062D01*
X149499862Y-103329410D01*
X149618597Y-103353567D01*
X149623772Y-103353757D01*
X149623774Y-103353757D01*
X149836673Y-103361564D01*
X149836677Y-103361564D01*
X149841837Y-103361753D01*
X149846957Y-103361097D01*
X149846959Y-103361097D01*
X150058288Y-103334025D01*
X150058289Y-103334025D01*
X150063416Y-103333368D01*
X150068366Y-103331883D01*
X150272429Y-103270661D01*
X150272434Y-103270659D01*
X150277384Y-103269174D01*
X150477994Y-103170896D01*
X150659860Y-103041173D01*
X150818096Y-102883489D01*
X150865354Y-102817723D01*
X150948453Y-102702077D01*
X150949776Y-102703028D01*
X150996645Y-102659857D01*
X151066580Y-102647625D01*
X151132026Y-102675144D01*
X151159875Y-102706994D01*
X151175852Y-102733066D01*
X151219987Y-102805088D01*
X151366250Y-102973938D01*
X151538126Y-103116632D01*
X151731000Y-103229338D01*
X151735825Y-103231180D01*
X151735826Y-103231181D01*
X151797696Y-103254807D01*
X151939692Y-103309030D01*
X151968611Y-103314914D01*
X152031373Y-103348093D01*
X152066237Y-103409940D01*
X152062128Y-103480818D01*
X152020194Y-103538344D01*
X151985988Y-103564592D01*
X151980662Y-103568462D01*
X151928019Y-103604643D01*
X151922967Y-103610313D01*
X151922966Y-103610314D01*
X151886573Y-103651161D01*
X151881592Y-103656437D01*
X149219472Y-106318558D01*
X149213206Y-106324412D01*
X149175340Y-106357444D01*
X149175337Y-106357447D01*
X149169615Y-106362439D01*
X149137675Y-106407885D01*
X149132872Y-106414719D01*
X149128939Y-106420014D01*
X149089524Y-106470282D01*
X149086401Y-106477198D01*
X149085017Y-106479484D01*
X149076643Y-106494165D01*
X149075378Y-106496525D01*
X149071010Y-106502739D01*
X149068250Y-106509818D01*
X149068249Y-106509820D01*
X149047798Y-106562275D01*
X149045247Y-106568344D01*
X149018955Y-106626573D01*
X149017571Y-106634040D01*
X149016770Y-106636595D01*
X149012141Y-106652848D01*
X149011478Y-106655428D01*
X149008718Y-106662509D01*
X149007727Y-106670040D01*
X149007726Y-106670042D01*
X149000379Y-106725852D01*
X148999348Y-106732359D01*
X148987704Y-106795186D01*
X148988141Y-106802766D01*
X148988141Y-106802767D01*
X148991291Y-106857392D01*
X148991500Y-106864646D01*
X148991500Y-123770114D01*
X148971498Y-123838235D01*
X148941153Y-123870874D01*
X148884626Y-123913316D01*
X148794965Y-123980635D01*
X148755525Y-124021907D01*
X148701280Y-124078671D01*
X148640629Y-124142138D01*
X148533201Y-124299621D01*
X148478293Y-124344621D01*
X148407768Y-124352792D01*
X148344021Y-124321538D01*
X148323324Y-124297054D01*
X148242822Y-124172617D01*
X148242820Y-124172614D01*
X148240014Y-124168277D01*
X148089670Y-124003051D01*
X148085619Y-123999852D01*
X148085615Y-123999848D01*
X147918414Y-123867800D01*
X147918410Y-123867798D01*
X147914359Y-123864598D01*
X147881229Y-123846309D01*
X147812371Y-123808298D01*
X147718789Y-123756638D01*
X147713920Y-123754914D01*
X147713916Y-123754912D01*
X147513087Y-123683795D01*
X147513083Y-123683794D01*
X147508212Y-123682069D01*
X147503119Y-123681162D01*
X147503116Y-123681161D01*
X147293373Y-123643800D01*
X147293367Y-123643799D01*
X147288284Y-123642894D01*
X147214452Y-123641992D01*
X147070081Y-123640228D01*
X147070079Y-123640228D01*
X147064911Y-123640165D01*
X146844091Y-123673955D01*
X146631756Y-123743357D01*
X146433607Y-123846507D01*
X146429474Y-123849610D01*
X146429471Y-123849612D01*
X146302172Y-123945191D01*
X146254965Y-123980635D01*
X146215525Y-124021907D01*
X146161280Y-124078671D01*
X146100629Y-124142138D01*
X145993201Y-124299621D01*
X145938293Y-124344621D01*
X145867768Y-124352792D01*
X145804021Y-124321538D01*
X145783324Y-124297054D01*
X145702822Y-124172617D01*
X145702820Y-124172614D01*
X145700014Y-124168277D01*
X145549670Y-124003051D01*
X145545619Y-123999852D01*
X145545615Y-123999848D01*
X145376408Y-123866216D01*
X145335345Y-123808298D01*
X145328500Y-123767334D01*
X145328500Y-123058912D01*
X145328792Y-123050342D01*
X145332209Y-123000224D01*
X145332209Y-123000220D01*
X145332725Y-122992648D01*
X145321739Y-122929703D01*
X145320777Y-122923182D01*
X145314015Y-122867304D01*
X145313102Y-122859758D01*
X145310416Y-122852650D01*
X145309779Y-122850056D01*
X145305318Y-122833750D01*
X145304548Y-122831199D01*
X145303242Y-122823716D01*
X145277561Y-122765212D01*
X145275069Y-122759105D01*
X145255173Y-122706452D01*
X145255173Y-122706451D01*
X145252487Y-122699344D01*
X145248184Y-122693083D01*
X145246947Y-122690717D01*
X145238720Y-122675937D01*
X145237369Y-122673652D01*
X145234315Y-122666695D01*
X145229695Y-122660675D01*
X145229692Y-122660669D01*
X145204291Y-122627568D01*
X145195413Y-122615998D01*
X145191541Y-122610668D01*
X145159661Y-122564280D01*
X145159656Y-122564275D01*
X145155357Y-122558019D01*
X145146649Y-122550260D01*
X145108830Y-122516565D01*
X145103554Y-122511584D01*
X136411450Y-113819480D01*
X136405596Y-113813215D01*
X136374865Y-113777988D01*
X136367561Y-113769615D01*
X136315280Y-113732871D01*
X136309986Y-113728939D01*
X136265693Y-113694209D01*
X136259718Y-113689524D01*
X136252802Y-113686401D01*
X136250516Y-113685017D01*
X136235835Y-113676643D01*
X136233475Y-113675378D01*
X136227261Y-113671010D01*
X136220182Y-113668250D01*
X136220180Y-113668249D01*
X136167725Y-113647798D01*
X136161656Y-113645247D01*
X136103427Y-113618955D01*
X136095960Y-113617571D01*
X136093405Y-113616770D01*
X136077152Y-113612141D01*
X136074572Y-113611478D01*
X136067491Y-113608718D01*
X136059960Y-113607727D01*
X136059958Y-113607726D01*
X136030339Y-113603827D01*
X136004139Y-113600378D01*
X135997641Y-113599348D01*
X135934814Y-113587704D01*
X135927234Y-113588141D01*
X135927233Y-113588141D01*
X135872608Y-113591291D01*
X135865354Y-113591500D01*
X122265660Y-113591500D01*
X122197539Y-113571498D01*
X122176565Y-113554595D01*
X121395405Y-112773435D01*
X121361379Y-112711123D01*
X121358500Y-112684340D01*
X121358500Y-107474669D01*
X139937001Y-107474669D01*
X139937371Y-107481490D01*
X139942895Y-107532352D01*
X139946521Y-107547604D01*
X139991676Y-107668054D01*
X140000214Y-107683649D01*
X140076715Y-107785724D01*
X140089276Y-107798285D01*
X140191351Y-107874786D01*
X140206946Y-107883324D01*
X140327394Y-107928478D01*
X140342649Y-107932105D01*
X140393514Y-107937631D01*
X140400328Y-107938000D01*
X140697885Y-107938000D01*
X140713124Y-107933525D01*
X140714329Y-107932135D01*
X140716000Y-107924452D01*
X140716000Y-106956004D01*
X141206500Y-106956004D01*
X141221277Y-107106713D01*
X141221968Y-107109002D01*
X141224000Y-107129724D01*
X141224000Y-107919884D01*
X141228475Y-107935123D01*
X141229865Y-107936328D01*
X141237548Y-107937999D01*
X141305500Y-107937999D01*
X141373621Y-107958001D01*
X141420114Y-108011657D01*
X141431500Y-108063999D01*
X141431500Y-116830786D01*
X141431493Y-116832106D01*
X141430549Y-116922221D01*
X141439711Y-116964597D01*
X141441769Y-116977163D01*
X141446603Y-117020255D01*
X141448919Y-117026906D01*
X141448920Y-117026910D01*
X141457633Y-117051930D01*
X141461796Y-117066742D01*
X141468881Y-117099510D01*
X141487208Y-117138813D01*
X141491990Y-117150589D01*
X141506255Y-117191552D01*
X141509989Y-117197527D01*
X141509990Y-117197530D01*
X141524027Y-117219995D01*
X141531366Y-117233512D01*
X141542559Y-117257514D01*
X141545538Y-117263902D01*
X141549855Y-117269467D01*
X141549856Y-117269469D01*
X141572106Y-117298153D01*
X141579402Y-117308612D01*
X141591162Y-117327432D01*
X141602374Y-117345376D01*
X141607334Y-117350371D01*
X141607335Y-117350372D01*
X141630976Y-117374179D01*
X141631561Y-117374804D01*
X141632078Y-117375470D01*
X141658068Y-117401460D01*
X141730185Y-117474082D01*
X141731222Y-117474740D01*
X141732451Y-117475843D01*
X144201766Y-119945158D01*
X144202694Y-119946095D01*
X144265771Y-120010507D01*
X144302221Y-120033998D01*
X144312546Y-120041417D01*
X144346443Y-120068476D01*
X144352782Y-120071540D01*
X144352786Y-120071543D01*
X144376638Y-120083074D01*
X144390051Y-120090601D01*
X144412313Y-120104947D01*
X144412316Y-120104948D01*
X144418238Y-120108765D01*
X144424857Y-120111174D01*
X144424861Y-120111176D01*
X144458973Y-120123592D01*
X144470717Y-120128553D01*
X144503399Y-120144352D01*
X144503401Y-120144353D01*
X144509748Y-120147421D01*
X144526683Y-120151331D01*
X144542427Y-120154966D01*
X144557168Y-120159332D01*
X144588685Y-120170803D01*
X144595671Y-120171685D01*
X144595677Y-120171687D01*
X144631701Y-120176238D01*
X144644253Y-120178474D01*
X144679614Y-120186638D01*
X144679617Y-120186638D01*
X144686485Y-120188224D01*
X144693531Y-120188249D01*
X144693534Y-120188249D01*
X144727056Y-120188366D01*
X144727938Y-120188395D01*
X144728769Y-120188500D01*
X144765419Y-120188500D01*
X144765859Y-120188501D01*
X144864343Y-120188845D01*
X144864348Y-120188845D01*
X144867870Y-120188857D01*
X144869070Y-120188589D01*
X144870707Y-120188500D01*
X146225812Y-120188500D01*
X146293933Y-120208502D01*
X146314907Y-120225405D01*
X146475700Y-120386198D01*
X146480208Y-120389355D01*
X146480211Y-120389357D01*
X146528311Y-120423037D01*
X146663251Y-120517523D01*
X146668233Y-120519846D01*
X146668238Y-120519849D01*
X146865775Y-120611961D01*
X146870757Y-120614284D01*
X146876065Y-120615706D01*
X146876067Y-120615707D01*
X147086598Y-120672119D01*
X147086600Y-120672119D01*
X147091913Y-120673543D01*
X147320000Y-120693498D01*
X147548087Y-120673543D01*
X147553400Y-120672119D01*
X147553402Y-120672119D01*
X147763933Y-120615707D01*
X147763935Y-120615706D01*
X147769243Y-120614284D01*
X147774225Y-120611961D01*
X147971762Y-120519849D01*
X147971767Y-120519846D01*
X147976749Y-120517523D01*
X148111689Y-120423037D01*
X148159789Y-120389357D01*
X148159792Y-120389355D01*
X148164300Y-120386198D01*
X148326198Y-120224300D01*
X148351360Y-120188366D01*
X148393241Y-120128553D01*
X148457523Y-120036749D01*
X148459846Y-120031767D01*
X148459849Y-120031762D01*
X148551961Y-119834225D01*
X148551961Y-119834224D01*
X148554284Y-119829243D01*
X148573689Y-119756825D01*
X148612119Y-119613402D01*
X148612119Y-119613400D01*
X148613543Y-119608087D01*
X148633498Y-119380000D01*
X148613543Y-119151913D01*
X148581580Y-119032627D01*
X148555707Y-118936067D01*
X148555706Y-118936065D01*
X148554284Y-118930757D01*
X148494104Y-118801699D01*
X148459849Y-118728238D01*
X148459846Y-118728233D01*
X148457523Y-118723251D01*
X148353667Y-118574930D01*
X148329357Y-118540211D01*
X148329355Y-118540208D01*
X148326198Y-118535700D01*
X148164300Y-118373802D01*
X148159792Y-118370645D01*
X148159789Y-118370643D01*
X148081611Y-118315902D01*
X147976749Y-118242477D01*
X147971767Y-118240154D01*
X147971762Y-118240151D01*
X147774225Y-118148039D01*
X147774224Y-118148039D01*
X147769243Y-118145716D01*
X147763935Y-118144294D01*
X147763933Y-118144293D01*
X147553402Y-118087881D01*
X147553400Y-118087881D01*
X147548087Y-118086457D01*
X147320000Y-118066502D01*
X147091913Y-118086457D01*
X147086600Y-118087881D01*
X147086598Y-118087881D01*
X146876067Y-118144293D01*
X146876065Y-118144294D01*
X146870757Y-118145716D01*
X146865776Y-118148039D01*
X146865775Y-118148039D01*
X146668238Y-118240151D01*
X146668233Y-118240154D01*
X146663251Y-118242477D01*
X146558389Y-118315902D01*
X146480211Y-118370643D01*
X146480208Y-118370645D01*
X146475700Y-118373802D01*
X146314907Y-118534595D01*
X146252595Y-118568621D01*
X146225812Y-118571500D01*
X145167081Y-118571500D01*
X145098960Y-118551498D01*
X145077986Y-118534595D01*
X143085405Y-116542013D01*
X143051379Y-116479701D01*
X143048500Y-116452918D01*
X143048500Y-112746082D01*
X143068502Y-112677961D01*
X143122158Y-112631468D01*
X143192432Y-112621364D01*
X143257012Y-112650858D01*
X143263595Y-112656987D01*
X143438640Y-112832032D01*
X143472666Y-112894344D01*
X143475066Y-112932108D01*
X143471475Y-112973156D01*
X143466502Y-113030000D01*
X143486457Y-113258087D01*
X143487881Y-113263400D01*
X143487881Y-113263402D01*
X143520222Y-113384097D01*
X143545716Y-113479243D01*
X143548039Y-113484224D01*
X143548039Y-113484225D01*
X143640151Y-113681762D01*
X143640154Y-113681767D01*
X143642477Y-113686749D01*
X143663633Y-113716963D01*
X143735417Y-113819480D01*
X143773802Y-113874300D01*
X143935700Y-114036198D01*
X143940208Y-114039355D01*
X143940211Y-114039357D01*
X143958610Y-114052240D01*
X144123251Y-114167523D01*
X144128233Y-114169846D01*
X144128238Y-114169849D01*
X144297697Y-114248868D01*
X144330757Y-114264284D01*
X144336065Y-114265706D01*
X144336067Y-114265707D01*
X144546598Y-114322119D01*
X144546600Y-114322119D01*
X144551913Y-114323543D01*
X144780000Y-114343498D01*
X145008087Y-114323543D01*
X145013400Y-114322119D01*
X145013402Y-114322119D01*
X145223933Y-114265707D01*
X145223935Y-114265706D01*
X145229243Y-114264284D01*
X145262303Y-114248868D01*
X145431762Y-114169849D01*
X145431767Y-114169846D01*
X145436749Y-114167523D01*
X145601390Y-114052240D01*
X145619789Y-114039357D01*
X145619792Y-114039355D01*
X145624300Y-114036198D01*
X145786198Y-113874300D01*
X145824584Y-113819480D01*
X145896367Y-113716963D01*
X145917523Y-113686749D01*
X145919846Y-113681767D01*
X145919849Y-113681762D01*
X146011961Y-113484225D01*
X146011961Y-113484224D01*
X146014284Y-113479243D01*
X146039779Y-113384097D01*
X146072119Y-113263402D01*
X146072119Y-113263400D01*
X146073543Y-113258087D01*
X146093498Y-113030000D01*
X146073543Y-112801913D01*
X146027872Y-112631468D01*
X146015707Y-112586067D01*
X146015706Y-112586065D01*
X146014284Y-112580757D01*
X146005727Y-112562406D01*
X145919849Y-112378238D01*
X145919846Y-112378233D01*
X145917523Y-112373251D01*
X145786198Y-112185700D01*
X145624300Y-112023802D01*
X145619792Y-112020645D01*
X145619789Y-112020643D01*
X145528644Y-111956823D01*
X145436749Y-111892477D01*
X145431767Y-111890154D01*
X145431762Y-111890151D01*
X145234225Y-111798039D01*
X145234224Y-111798039D01*
X145229243Y-111795716D01*
X145223935Y-111794294D01*
X145223933Y-111794293D01*
X145013402Y-111737881D01*
X145013400Y-111737881D01*
X145008087Y-111736457D01*
X144780000Y-111716502D01*
X144774525Y-111716981D01*
X144774524Y-111716981D01*
X144682108Y-111725066D01*
X144612503Y-111711076D01*
X144582032Y-111688640D01*
X144355405Y-111462013D01*
X144321379Y-111399701D01*
X144318500Y-111372918D01*
X144318500Y-107595236D01*
X144338502Y-107527115D01*
X144347970Y-107514256D01*
X144366881Y-107491719D01*
X144372505Y-107481490D01*
X144461556Y-107319506D01*
X144464523Y-107314109D01*
X144525807Y-107120916D01*
X144527401Y-107106713D01*
X144543107Y-106966683D01*
X144543500Y-106963183D01*
X144543500Y-106403996D01*
X144528723Y-106253287D01*
X144470142Y-106059258D01*
X144374990Y-105880302D01*
X144246890Y-105723237D01*
X144197182Y-105682115D01*
X144095472Y-105597973D01*
X144095469Y-105597971D01*
X144090722Y-105594044D01*
X143912435Y-105497644D01*
X143815627Y-105467677D01*
X143724707Y-105439532D01*
X143724704Y-105439531D01*
X143718820Y-105437710D01*
X143712695Y-105437066D01*
X143712694Y-105437066D01*
X143523378Y-105417168D01*
X143523377Y-105417168D01*
X143517250Y-105416524D01*
X143438709Y-105423672D01*
X143321543Y-105434335D01*
X143321540Y-105434336D01*
X143315404Y-105434894D01*
X143309498Y-105436632D01*
X143309494Y-105436633D01*
X143173734Y-105476590D01*
X143120971Y-105492119D01*
X143115514Y-105494972D01*
X143115511Y-105494973D01*
X143031163Y-105539069D01*
X142941540Y-105585923D01*
X142941538Y-105585923D01*
X142941355Y-105586019D01*
X142941337Y-105585984D01*
X142875559Y-105605889D01*
X142814591Y-105590729D01*
X142805815Y-105585984D01*
X142642435Y-105497644D01*
X142545627Y-105467677D01*
X142454707Y-105439532D01*
X142454704Y-105439531D01*
X142448820Y-105437710D01*
X142442695Y-105437066D01*
X142442694Y-105437066D01*
X142253378Y-105417168D01*
X142253377Y-105417168D01*
X142247250Y-105416524D01*
X142168709Y-105423672D01*
X142051543Y-105434335D01*
X142051540Y-105434336D01*
X142045404Y-105434894D01*
X142039498Y-105436632D01*
X142039494Y-105436633D01*
X141948187Y-105463507D01*
X141850971Y-105492119D01*
X141850771Y-105491441D01*
X141784727Y-105497956D01*
X141747677Y-105484680D01*
X141733063Y-105476679D01*
X141612606Y-105431522D01*
X141597351Y-105427895D01*
X141546486Y-105422369D01*
X141539672Y-105422000D01*
X141242115Y-105422000D01*
X141226876Y-105426475D01*
X141225671Y-105427865D01*
X141224000Y-105435548D01*
X141224000Y-106233758D01*
X141223215Y-106247803D01*
X141206500Y-106396817D01*
X141206500Y-106956004D01*
X140716000Y-106956004D01*
X140716000Y-106952115D01*
X140711525Y-106936876D01*
X140710135Y-106935671D01*
X140702452Y-106934000D01*
X139955116Y-106934000D01*
X139939877Y-106938475D01*
X139938672Y-106939865D01*
X139937001Y-106947548D01*
X139937001Y-107474669D01*
X121358500Y-107474669D01*
X121358500Y-106638297D01*
X121378502Y-106570176D01*
X121411332Y-106535718D01*
X121525656Y-106454172D01*
X121525659Y-106454170D01*
X121529860Y-106451173D01*
X121688096Y-106293489D01*
X121747594Y-106210689D01*
X121818453Y-106112077D01*
X121819776Y-106113028D01*
X121866645Y-106069857D01*
X121936580Y-106057625D01*
X122002026Y-106085144D01*
X122029875Y-106116994D01*
X122089987Y-106215088D01*
X122236250Y-106383938D01*
X122408126Y-106526632D01*
X122601000Y-106639338D01*
X122605825Y-106641180D01*
X122605826Y-106641181D01*
X122615887Y-106645023D01*
X122809692Y-106719030D01*
X122814760Y-106720061D01*
X122814763Y-106720062D01*
X122922017Y-106741883D01*
X123028597Y-106763567D01*
X123033772Y-106763757D01*
X123033774Y-106763757D01*
X123246673Y-106771564D01*
X123246677Y-106771564D01*
X123251837Y-106771753D01*
X123256957Y-106771097D01*
X123256959Y-106771097D01*
X123468288Y-106744025D01*
X123468289Y-106744025D01*
X123473416Y-106743368D01*
X123510081Y-106732368D01*
X123682429Y-106680661D01*
X123682434Y-106680659D01*
X123687384Y-106679174D01*
X123887994Y-106580896D01*
X124069860Y-106451173D01*
X124114109Y-106407079D01*
X124178479Y-106342933D01*
X124240851Y-106309017D01*
X124311658Y-106314205D01*
X124368419Y-106356851D01*
X124385401Y-106387954D01*
X124426676Y-106498054D01*
X124435214Y-106513649D01*
X124511715Y-106615724D01*
X124524276Y-106628285D01*
X124626351Y-106704786D01*
X124641946Y-106713324D01*
X124762394Y-106758478D01*
X124777649Y-106762105D01*
X124828514Y-106767631D01*
X124835328Y-106768000D01*
X125457885Y-106768000D01*
X125473124Y-106763525D01*
X125474329Y-106762135D01*
X125476000Y-106754452D01*
X125476000Y-106749884D01*
X125984000Y-106749884D01*
X125988475Y-106765123D01*
X125989865Y-106766328D01*
X125997548Y-106767999D01*
X126624669Y-106767999D01*
X126631490Y-106767629D01*
X126682352Y-106762105D01*
X126697604Y-106758479D01*
X126818054Y-106713324D01*
X126833649Y-106704786D01*
X126935724Y-106628285D01*
X126948285Y-106615724D01*
X127024786Y-106513649D01*
X127033324Y-106498054D01*
X127067127Y-106407885D01*
X139937000Y-106407885D01*
X139941475Y-106423124D01*
X139942865Y-106424329D01*
X139950548Y-106426000D01*
X140697885Y-106426000D01*
X140713124Y-106421525D01*
X140714329Y-106420135D01*
X140716000Y-106412452D01*
X140716000Y-105440116D01*
X140711525Y-105424877D01*
X140710135Y-105423672D01*
X140702452Y-105422001D01*
X140400331Y-105422001D01*
X140393510Y-105422371D01*
X140342648Y-105427895D01*
X140327396Y-105431521D01*
X140206946Y-105476676D01*
X140191351Y-105485214D01*
X140089276Y-105561715D01*
X140076715Y-105574276D01*
X140000214Y-105676351D01*
X139991676Y-105691946D01*
X139946522Y-105812394D01*
X139942895Y-105827649D01*
X139937369Y-105878514D01*
X139937000Y-105885328D01*
X139937000Y-106407885D01*
X127067127Y-106407885D01*
X127078478Y-106377606D01*
X127082105Y-106362351D01*
X127087631Y-106311486D01*
X127088000Y-106304672D01*
X127088000Y-105682115D01*
X127083525Y-105666876D01*
X127082135Y-105665671D01*
X127074452Y-105664000D01*
X126002115Y-105664000D01*
X125986876Y-105668475D01*
X125985671Y-105669865D01*
X125984000Y-105677548D01*
X125984000Y-106749884D01*
X125476000Y-106749884D01*
X125476000Y-105137885D01*
X125984000Y-105137885D01*
X125988475Y-105153124D01*
X125989865Y-105154329D01*
X125997548Y-105156000D01*
X127069884Y-105156000D01*
X127085123Y-105151525D01*
X127086328Y-105150135D01*
X127087999Y-105142452D01*
X127087999Y-104515331D01*
X127087629Y-104508510D01*
X127082105Y-104457648D01*
X127078479Y-104442396D01*
X127033324Y-104321946D01*
X127024786Y-104306351D01*
X126948285Y-104204276D01*
X126935724Y-104191715D01*
X126833649Y-104115214D01*
X126818054Y-104106676D01*
X126697606Y-104061522D01*
X126682351Y-104057895D01*
X126631486Y-104052369D01*
X126624672Y-104052000D01*
X126002115Y-104052000D01*
X125986876Y-104056475D01*
X125985671Y-104057865D01*
X125984000Y-104065548D01*
X125984000Y-105137885D01*
X125476000Y-105137885D01*
X125476000Y-104070116D01*
X125471525Y-104054877D01*
X125470135Y-104053672D01*
X125462452Y-104052001D01*
X124835331Y-104052001D01*
X124828510Y-104052371D01*
X124777648Y-104057895D01*
X124762396Y-104061521D01*
X124641946Y-104106676D01*
X124626351Y-104115214D01*
X124524276Y-104191715D01*
X124511715Y-104204276D01*
X124435214Y-104306351D01*
X124426676Y-104321946D01*
X124385297Y-104432322D01*
X124342655Y-104489087D01*
X124276093Y-104513786D01*
X124206744Y-104498578D01*
X124174121Y-104472891D01*
X124123148Y-104416873D01*
X124123145Y-104416870D01*
X124119670Y-104413051D01*
X124115625Y-104409857D01*
X124115616Y-104409848D01*
X124046408Y-104355191D01*
X124005345Y-104297274D01*
X123998500Y-104256309D01*
X123998500Y-103257082D01*
X124018502Y-103188961D01*
X124035405Y-103167987D01*
X124357987Y-102845405D01*
X124420299Y-102811379D01*
X124447082Y-102808500D01*
X130518709Y-102808500D01*
X130586830Y-102828502D01*
X130633323Y-102882158D01*
X130643972Y-102920892D01*
X130648255Y-102960316D01*
X130699385Y-103096705D01*
X130786739Y-103213261D01*
X130903295Y-103300615D01*
X131039684Y-103351745D01*
X131101866Y-103358500D01*
X132898134Y-103358500D01*
X132960316Y-103351745D01*
X133096705Y-103300615D01*
X133213261Y-103213261D01*
X133300615Y-103096705D01*
X133344798Y-102978848D01*
X133387440Y-102922084D01*
X133454001Y-102897384D01*
X133523350Y-102912592D01*
X133558017Y-102940580D01*
X133583218Y-102969673D01*
X133590580Y-102976883D01*
X133754434Y-103112916D01*
X133762881Y-103118831D01*
X133946756Y-103226279D01*
X133956042Y-103230729D01*
X134155001Y-103306703D01*
X134164899Y-103309579D01*
X134268250Y-103330606D01*
X134282299Y-103329410D01*
X134286000Y-103319065D01*
X134286000Y-101872000D01*
X134306002Y-101803879D01*
X134359658Y-101757386D01*
X134412000Y-101746000D01*
X134668000Y-101746000D01*
X134736121Y-101766002D01*
G37*
%TD.AperFunction*%
%TD*%
M02*
