%TF.GenerationSoftware,KiCad,Pcbnew,6.0.10-1.fc36*%
%TF.CreationDate,2023-01-12T14:27:36+01:00*%
%TF.ProjectId,wererabbit_game,77657265-7261-4626-9269-745f67616d65,rev?*%
%TF.SameCoordinates,Original*%
%TF.FileFunction,AssemblyDrawing,Top*%
%FSLAX46Y46*%
G04 Gerber Fmt 4.6, Leading zero omitted, Abs format (unit mm)*
G04 Created by KiCad (PCBNEW 6.0.10-1.fc36) date 2023-01-12 14:27:36*
%MOMM*%
%LPD*%
G01*
G04 APERTURE LIST*
%ADD10C,0.150000*%
%ADD11C,0.100000*%
%ADD12C,0.120000*%
G04 APERTURE END LIST*
D10*
%TO.C,R1*%
X140978095Y-119165714D02*
X140978095Y-119832380D01*
X140740000Y-118784761D02*
X140501904Y-119499047D01*
X141120952Y-119499047D01*
X141406666Y-118832380D02*
X142073333Y-118832380D01*
X141644761Y-119832380D01*
X142644761Y-118832380D02*
X142740000Y-118832380D01*
X142835238Y-118880000D01*
X142882857Y-118927619D01*
X142930476Y-119022857D01*
X142978095Y-119213333D01*
X142978095Y-119451428D01*
X142930476Y-119641904D01*
X142882857Y-119737142D01*
X142835238Y-119784761D01*
X142740000Y-119832380D01*
X142644761Y-119832380D01*
X142549523Y-119784761D01*
X142501904Y-119737142D01*
X142454285Y-119641904D01*
X142406666Y-119451428D01*
X142406666Y-119213333D01*
X142454285Y-119022857D01*
X142501904Y-118927619D01*
X142549523Y-118880000D01*
X142644761Y-118832380D01*
X143978095Y-119832380D02*
X143644761Y-119356190D01*
X143406666Y-119832380D02*
X143406666Y-118832380D01*
X143787619Y-118832380D01*
X143882857Y-118880000D01*
X143930476Y-118927619D01*
X143978095Y-119022857D01*
X143978095Y-119165714D01*
X143930476Y-119260952D01*
X143882857Y-119308571D01*
X143787619Y-119356190D01*
X143406666Y-119356190D01*
%TO.C,J11*%
X105608380Y-113180571D02*
X105560761Y-113275809D01*
X105513142Y-113323428D01*
X105417904Y-113371047D01*
X105132190Y-113371047D01*
X105036952Y-113323428D01*
X104989333Y-113275809D01*
X104941714Y-113180571D01*
X104941714Y-113037714D01*
X104989333Y-112942476D01*
X105036952Y-112894857D01*
X105132190Y-112847238D01*
X105417904Y-112847238D01*
X105513142Y-112894857D01*
X105560761Y-112942476D01*
X105608380Y-113037714D01*
X105608380Y-113180571D01*
X104941714Y-112418666D02*
X105608380Y-112418666D01*
X105036952Y-112418666D02*
X104989333Y-112371047D01*
X104941714Y-112275809D01*
X104941714Y-112132952D01*
X104989333Y-112037714D01*
X105084571Y-111990095D01*
X105608380Y-111990095D01*
X105703619Y-111752000D02*
X105703619Y-110990095D01*
X105608380Y-110609142D02*
X105560761Y-110704380D01*
X105513142Y-110752000D01*
X105417904Y-110799619D01*
X105132190Y-110799619D01*
X105036952Y-110752000D01*
X104989333Y-110704380D01*
X104941714Y-110609142D01*
X104941714Y-110466285D01*
X104989333Y-110371047D01*
X105036952Y-110323428D01*
X105132190Y-110275809D01*
X105417904Y-110275809D01*
X105513142Y-110323428D01*
X105560761Y-110371047D01*
X105608380Y-110466285D01*
X105608380Y-110609142D01*
X104941714Y-109990095D02*
X104941714Y-109609142D01*
X105608380Y-109847238D02*
X104751238Y-109847238D01*
X104656000Y-109799619D01*
X104608380Y-109704380D01*
X104608380Y-109609142D01*
X104941714Y-109418666D02*
X104941714Y-109037714D01*
X105608380Y-109275809D02*
X104751238Y-109275809D01*
X104656000Y-109228190D01*
X104608380Y-109132952D01*
X104608380Y-109037714D01*
%TO.C,R2*%
X148598095Y-112577619D02*
X148645714Y-112530000D01*
X148740952Y-112482380D01*
X148979047Y-112482380D01*
X149074285Y-112530000D01*
X149121904Y-112577619D01*
X149169523Y-112672857D01*
X149169523Y-112768095D01*
X149121904Y-112910952D01*
X148550476Y-113482380D01*
X149169523Y-113482380D01*
X149502857Y-112482380D02*
X150169523Y-112482380D01*
X149740952Y-113482380D01*
X151121904Y-113482380D02*
X150788571Y-113006190D01*
X150550476Y-113482380D02*
X150550476Y-112482380D01*
X150931428Y-112482380D01*
X151026666Y-112530000D01*
X151074285Y-112577619D01*
X151121904Y-112672857D01*
X151121904Y-112815714D01*
X151074285Y-112910952D01*
X151026666Y-112958571D01*
X150931428Y-113006190D01*
X150550476Y-113006190D01*
%TO.C,J7*%
X166259047Y-102225714D02*
X166640000Y-102225714D01*
X166401904Y-101892380D02*
X166401904Y-102749523D01*
X166449523Y-102844761D01*
X166544761Y-102892380D01*
X166640000Y-102892380D01*
X166973333Y-102892380D02*
X166973333Y-102225714D01*
X166973333Y-102416190D02*
X167020952Y-102320952D01*
X167068571Y-102273333D01*
X167163809Y-102225714D01*
X167259047Y-102225714D01*
X167592380Y-102892380D02*
X167592380Y-102225714D01*
X167592380Y-101892380D02*
X167544761Y-101940000D01*
X167592380Y-101987619D01*
X167640000Y-101940000D01*
X167592380Y-101892380D01*
X167592380Y-101987619D01*
X168497142Y-102225714D02*
X168497142Y-103035238D01*
X168449523Y-103130476D01*
X168401904Y-103178095D01*
X168306666Y-103225714D01*
X168163809Y-103225714D01*
X168068571Y-103178095D01*
X168497142Y-102844761D02*
X168401904Y-102892380D01*
X168211428Y-102892380D01*
X168116190Y-102844761D01*
X168068571Y-102797142D01*
X168020952Y-102701904D01*
X168020952Y-102416190D01*
X168068571Y-102320952D01*
X168116190Y-102273333D01*
X168211428Y-102225714D01*
X168401904Y-102225714D01*
X168497142Y-102273333D01*
X169401904Y-102225714D02*
X169401904Y-103035238D01*
X169354285Y-103130476D01*
X169306666Y-103178095D01*
X169211428Y-103225714D01*
X169068571Y-103225714D01*
X168973333Y-103178095D01*
X169401904Y-102844761D02*
X169306666Y-102892380D01*
X169116190Y-102892380D01*
X169020952Y-102844761D01*
X168973333Y-102797142D01*
X168925714Y-102701904D01*
X168925714Y-102416190D01*
X168973333Y-102320952D01*
X169020952Y-102273333D01*
X169116190Y-102225714D01*
X169306666Y-102225714D01*
X169401904Y-102273333D01*
X170259047Y-102844761D02*
X170163809Y-102892380D01*
X169973333Y-102892380D01*
X169878095Y-102844761D01*
X169830476Y-102749523D01*
X169830476Y-102368571D01*
X169878095Y-102273333D01*
X169973333Y-102225714D01*
X170163809Y-102225714D01*
X170259047Y-102273333D01*
X170306666Y-102368571D01*
X170306666Y-102463809D01*
X169830476Y-102559047D01*
X170735238Y-102892380D02*
X170735238Y-102225714D01*
X170735238Y-102416190D02*
X170782857Y-102320952D01*
X170830476Y-102273333D01*
X170925714Y-102225714D01*
X171020952Y-102225714D01*
%TO.C,Q1*%
X139525714Y-109017619D02*
X139573333Y-108970000D01*
X139668571Y-108922380D01*
X139906666Y-108922380D01*
X140001904Y-108970000D01*
X140049523Y-109017619D01*
X140097142Y-109112857D01*
X140097142Y-109208095D01*
X140049523Y-109350952D01*
X139478095Y-109922380D01*
X140097142Y-109922380D01*
X140525714Y-109922380D02*
X140525714Y-108922380D01*
X141097142Y-109922380D01*
X141097142Y-108922380D01*
X141525714Y-109017619D02*
X141573333Y-108970000D01*
X141668571Y-108922380D01*
X141906666Y-108922380D01*
X142001904Y-108970000D01*
X142049523Y-109017619D01*
X142097142Y-109112857D01*
X142097142Y-109208095D01*
X142049523Y-109350952D01*
X141478095Y-109922380D01*
X142097142Y-109922380D01*
X142478095Y-109017619D02*
X142525714Y-108970000D01*
X142620952Y-108922380D01*
X142859047Y-108922380D01*
X142954285Y-108970000D01*
X143001904Y-109017619D01*
X143049523Y-109112857D01*
X143049523Y-109208095D01*
X143001904Y-109350952D01*
X142430476Y-109922380D01*
X143049523Y-109922380D01*
X143430476Y-109017619D02*
X143478095Y-108970000D01*
X143573333Y-108922380D01*
X143811428Y-108922380D01*
X143906666Y-108970000D01*
X143954285Y-109017619D01*
X144001904Y-109112857D01*
X144001904Y-109208095D01*
X143954285Y-109350952D01*
X143382857Y-109922380D01*
X144001904Y-109922380D01*
X144382857Y-109017619D02*
X144430476Y-108970000D01*
X144525714Y-108922380D01*
X144763809Y-108922380D01*
X144859047Y-108970000D01*
X144906666Y-109017619D01*
X144954285Y-109112857D01*
X144954285Y-109208095D01*
X144906666Y-109350952D01*
X144335238Y-109922380D01*
X144954285Y-109922380D01*
D11*
%TO.C,R1*%
X139090000Y-120630000D02*
X145390000Y-120630000D01*
X147320000Y-119380000D02*
X145390000Y-119380000D01*
X139090000Y-118130000D02*
X139090000Y-120630000D01*
X137160000Y-119380000D02*
X139090000Y-119380000D01*
X145390000Y-120630000D02*
X145390000Y-118130000D01*
X145390000Y-118130000D02*
X139090000Y-118130000D01*
D12*
%TO.C,J8*%
X101600000Y-118570000D02*
X101600000Y-121110000D01*
%TO.C,J10*%
X170180000Y-123190000D02*
X170180000Y-120650000D01*
%TO.C,J11*%
X109220000Y-111710000D02*
X109220000Y-114250000D01*
%TO.C,J6*%
X169970000Y-115570000D02*
X169970000Y-113030000D01*
D11*
%TO.C,SW1*%
X102895000Y-114345000D02*
X100355000Y-114345000D01*
X102260000Y-106725000D02*
X102895000Y-107360000D01*
X100355000Y-114345000D02*
X100355000Y-106725000D01*
X100355000Y-106725000D02*
X102260000Y-106725000D01*
X102895000Y-107360000D02*
X102895000Y-114345000D01*
%TO.C,J9*%
X126365000Y-106680000D02*
X116840000Y-106680000D01*
X116840000Y-104140000D02*
X127000000Y-104140000D01*
X127000000Y-106045000D02*
X126365000Y-106680000D01*
X127000000Y-104140000D02*
X127000000Y-106045000D01*
X116840000Y-106680000D02*
X116840000Y-104140000D01*
%TO.C,J2*%
X130730000Y-101365000D02*
X131365000Y-100730000D01*
X163750000Y-100730000D02*
X163750000Y-103270000D01*
X131365000Y-100730000D02*
X163750000Y-100730000D01*
X130730000Y-103270000D02*
X130730000Y-101365000D01*
X163750000Y-103270000D02*
X130730000Y-103270000D01*
%TO.C,R2*%
X146710000Y-114280000D02*
X153010000Y-114280000D01*
X144780000Y-113030000D02*
X146710000Y-113030000D01*
X146710000Y-111780000D02*
X146710000Y-114280000D01*
X153010000Y-111780000D02*
X146710000Y-111780000D01*
X154940000Y-113030000D02*
X153010000Y-113030000D01*
X153010000Y-114280000D02*
X153010000Y-111780000D01*
D12*
%TO.C,J7*%
X170180000Y-104140000D02*
X167640000Y-104140000D01*
D11*
%TO.C,Q1*%
X140470000Y-108430000D02*
X143970000Y-108430000D01*
X142240000Y-104200000D02*
G75*
G03*
X140486375Y-108433625I0J-2480000D01*
G01*
X143993625Y-108433625D02*
G75*
G03*
X142240000Y-104200000I-1753625J1753625D01*
G01*
%TO.C,J1*%
X130650000Y-126270000D02*
X130650000Y-123730000D01*
X163035000Y-126270000D02*
X130650000Y-126270000D01*
X130650000Y-123730000D02*
X163670000Y-123730000D01*
X163670000Y-125635000D02*
X163035000Y-126270000D01*
X163670000Y-123730000D02*
X163670000Y-125635000D01*
%TD*%
M02*
