%TF.GenerationSoftware,KiCad,Pcbnew,6.0.10-1.fc36*%
%TF.CreationDate,2023-01-12T14:27:36+01:00*%
%TF.ProjectId,wererabbit_game,77657265-7261-4626-9269-745f67616d65,rev?*%
%TF.SameCoordinates,Original*%
%TF.FileFunction,AssemblyDrawing,Bot*%
%FSLAX46Y46*%
G04 Gerber Fmt 4.6, Leading zero omitted, Abs format (unit mm)*
G04 Created by KiCad (PCBNEW 6.0.10-1.fc36) date 2023-01-12 14:27:36*
%MOMM*%
%LPD*%
G01*
G04 APERTURE LIST*
%ADD10C,0.150000*%
G04 APERTURE END LIST*
D10*
%TO.C,J8a1*%
X104997619Y-123955714D02*
X105378571Y-123955714D01*
X105140476Y-123622380D02*
X105140476Y-124479523D01*
X105188095Y-124574761D01*
X105283333Y-124622380D01*
X105378571Y-124622380D01*
X105473809Y-124717619D02*
X106235714Y-124717619D01*
X106473809Y-124622380D02*
X106473809Y-123622380D01*
X106473809Y-124003333D02*
X106569047Y-123955714D01*
X106759523Y-123955714D01*
X106854761Y-124003333D01*
X106902380Y-124050952D01*
X106950000Y-124146190D01*
X106950000Y-124431904D01*
X106902380Y-124527142D01*
X106854761Y-124574761D01*
X106759523Y-124622380D01*
X106569047Y-124622380D01*
X106473809Y-124574761D01*
X107807142Y-123955714D02*
X107807142Y-124622380D01*
X107378571Y-123955714D02*
X107378571Y-124479523D01*
X107426190Y-124574761D01*
X107521428Y-124622380D01*
X107664285Y-124622380D01*
X107759523Y-124574761D01*
X107807142Y-124527142D01*
X108140476Y-123955714D02*
X108521428Y-123955714D01*
X108283333Y-123622380D02*
X108283333Y-124479523D01*
X108330952Y-124574761D01*
X108426190Y-124622380D01*
X108521428Y-124622380D01*
X108711904Y-123955714D02*
X109092857Y-123955714D01*
X108854761Y-123622380D02*
X108854761Y-124479523D01*
X108902380Y-124574761D01*
X108997619Y-124622380D01*
X109092857Y-124622380D01*
X109569047Y-124622380D02*
X109473809Y-124574761D01*
X109426190Y-124527142D01*
X109378571Y-124431904D01*
X109378571Y-124146190D01*
X109426190Y-124050952D01*
X109473809Y-124003333D01*
X109569047Y-123955714D01*
X109711904Y-123955714D01*
X109807142Y-124003333D01*
X109854761Y-124050952D01*
X109902380Y-124146190D01*
X109902380Y-124431904D01*
X109854761Y-124527142D01*
X109807142Y-124574761D01*
X109711904Y-124622380D01*
X109569047Y-124622380D01*
X110330952Y-123955714D02*
X110330952Y-124622380D01*
X110330952Y-124050952D02*
X110378571Y-124003333D01*
X110473809Y-123955714D01*
X110616666Y-123955714D01*
X110711904Y-124003333D01*
X110759523Y-124098571D01*
X110759523Y-124622380D01*
%TO.C,JGND1*%
X126238095Y-114780000D02*
X126142857Y-114732380D01*
X126000000Y-114732380D01*
X125857142Y-114780000D01*
X125761904Y-114875238D01*
X125714285Y-114970476D01*
X125666666Y-115160952D01*
X125666666Y-115303809D01*
X125714285Y-115494285D01*
X125761904Y-115589523D01*
X125857142Y-115684761D01*
X126000000Y-115732380D01*
X126095238Y-115732380D01*
X126238095Y-115684761D01*
X126285714Y-115637142D01*
X126285714Y-115303809D01*
X126095238Y-115303809D01*
X126714285Y-115732380D02*
X126714285Y-114732380D01*
X127285714Y-115732380D01*
X127285714Y-114732380D01*
X127761904Y-115732380D02*
X127761904Y-114732380D01*
X128000000Y-114732380D01*
X128142857Y-114780000D01*
X128238095Y-114875238D01*
X128285714Y-114970476D01*
X128333333Y-115160952D01*
X128333333Y-115303809D01*
X128285714Y-115494285D01*
X128238095Y-115589523D01*
X128142857Y-115684761D01*
X128000000Y-115732380D01*
X127761904Y-115732380D01*
%TO.C,J8*%
X100352380Y-122252857D02*
X99352380Y-122252857D01*
X99733333Y-122252857D02*
X99685714Y-122157619D01*
X99685714Y-121967142D01*
X99733333Y-121871904D01*
X99780952Y-121824285D01*
X99876190Y-121776666D01*
X100161904Y-121776666D01*
X100257142Y-121824285D01*
X100304761Y-121871904D01*
X100352380Y-121967142D01*
X100352380Y-122157619D01*
X100304761Y-122252857D01*
X99685714Y-120919523D02*
X100352380Y-120919523D01*
X99685714Y-121348095D02*
X100209523Y-121348095D01*
X100304761Y-121300476D01*
X100352380Y-121205238D01*
X100352380Y-121062380D01*
X100304761Y-120967142D01*
X100257142Y-120919523D01*
X99685714Y-120586190D02*
X99685714Y-120205238D01*
X99352380Y-120443333D02*
X100209523Y-120443333D01*
X100304761Y-120395714D01*
X100352380Y-120300476D01*
X100352380Y-120205238D01*
X99685714Y-120014761D02*
X99685714Y-119633809D01*
X99352380Y-119871904D02*
X100209523Y-119871904D01*
X100304761Y-119824285D01*
X100352380Y-119729047D01*
X100352380Y-119633809D01*
X100352380Y-119157619D02*
X100304761Y-119252857D01*
X100257142Y-119300476D01*
X100161904Y-119348095D01*
X99876190Y-119348095D01*
X99780952Y-119300476D01*
X99733333Y-119252857D01*
X99685714Y-119157619D01*
X99685714Y-119014761D01*
X99733333Y-118919523D01*
X99780952Y-118871904D01*
X99876190Y-118824285D01*
X100161904Y-118824285D01*
X100257142Y-118871904D01*
X100304761Y-118919523D01*
X100352380Y-119014761D01*
X100352380Y-119157619D01*
X99685714Y-118395714D02*
X100352380Y-118395714D01*
X99780952Y-118395714D02*
X99733333Y-118348095D01*
X99685714Y-118252857D01*
X99685714Y-118110000D01*
X99733333Y-118014761D01*
X99828571Y-117967142D01*
X100352380Y-117967142D01*
%TO.C,J7a1*%
X160782380Y-109985714D02*
X161163333Y-109985714D01*
X160925238Y-109652380D02*
X160925238Y-110509523D01*
X160972857Y-110604761D01*
X161068095Y-110652380D01*
X161163333Y-110652380D01*
X161258571Y-110747619D02*
X162020476Y-110747619D01*
X162115714Y-109985714D02*
X162496666Y-109985714D01*
X162258571Y-109652380D02*
X162258571Y-110509523D01*
X162306190Y-110604761D01*
X162401428Y-110652380D01*
X162496666Y-110652380D01*
X162830000Y-110652380D02*
X162830000Y-109985714D01*
X162830000Y-110176190D02*
X162877619Y-110080952D01*
X162925238Y-110033333D01*
X163020476Y-109985714D01*
X163115714Y-109985714D01*
X163449047Y-110652380D02*
X163449047Y-109985714D01*
X163449047Y-109652380D02*
X163401428Y-109700000D01*
X163449047Y-109747619D01*
X163496666Y-109700000D01*
X163449047Y-109652380D01*
X163449047Y-109747619D01*
X164353809Y-109985714D02*
X164353809Y-110795238D01*
X164306190Y-110890476D01*
X164258571Y-110938095D01*
X164163333Y-110985714D01*
X164020476Y-110985714D01*
X163925238Y-110938095D01*
X164353809Y-110604761D02*
X164258571Y-110652380D01*
X164068095Y-110652380D01*
X163972857Y-110604761D01*
X163925238Y-110557142D01*
X163877619Y-110461904D01*
X163877619Y-110176190D01*
X163925238Y-110080952D01*
X163972857Y-110033333D01*
X164068095Y-109985714D01*
X164258571Y-109985714D01*
X164353809Y-110033333D01*
X165258571Y-109985714D02*
X165258571Y-110795238D01*
X165210952Y-110890476D01*
X165163333Y-110938095D01*
X165068095Y-110985714D01*
X164925238Y-110985714D01*
X164830000Y-110938095D01*
X165258571Y-110604761D02*
X165163333Y-110652380D01*
X164972857Y-110652380D01*
X164877619Y-110604761D01*
X164830000Y-110557142D01*
X164782380Y-110461904D01*
X164782380Y-110176190D01*
X164830000Y-110080952D01*
X164877619Y-110033333D01*
X164972857Y-109985714D01*
X165163333Y-109985714D01*
X165258571Y-110033333D01*
X166115714Y-110604761D02*
X166020476Y-110652380D01*
X165830000Y-110652380D01*
X165734761Y-110604761D01*
X165687142Y-110509523D01*
X165687142Y-110128571D01*
X165734761Y-110033333D01*
X165830000Y-109985714D01*
X166020476Y-109985714D01*
X166115714Y-110033333D01*
X166163333Y-110128571D01*
X166163333Y-110223809D01*
X165687142Y-110319047D01*
X166591904Y-110652380D02*
X166591904Y-109985714D01*
X166591904Y-110176190D02*
X166639523Y-110080952D01*
X166687142Y-110033333D01*
X166782380Y-109985714D01*
X166877619Y-109985714D01*
%TO.C,J10*%
X172332380Y-123578571D02*
X172284761Y-123673809D01*
X172237142Y-123721428D01*
X172141904Y-123769047D01*
X171856190Y-123769047D01*
X171760952Y-123721428D01*
X171713333Y-123673809D01*
X171665714Y-123578571D01*
X171665714Y-123435714D01*
X171713333Y-123340476D01*
X171760952Y-123292857D01*
X171856190Y-123245238D01*
X172141904Y-123245238D01*
X172237142Y-123292857D01*
X172284761Y-123340476D01*
X172332380Y-123435714D01*
X172332380Y-123578571D01*
X171665714Y-122816666D02*
X172332380Y-122816666D01*
X171760952Y-122816666D02*
X171713333Y-122769047D01*
X171665714Y-122673809D01*
X171665714Y-122530952D01*
X171713333Y-122435714D01*
X171808571Y-122388095D01*
X172332380Y-122388095D01*
X172427619Y-122150000D02*
X172427619Y-121388095D01*
X172332380Y-121007142D02*
X172284761Y-121102380D01*
X172237142Y-121150000D01*
X172141904Y-121197619D01*
X171856190Y-121197619D01*
X171760952Y-121150000D01*
X171713333Y-121102380D01*
X171665714Y-121007142D01*
X171665714Y-120864285D01*
X171713333Y-120769047D01*
X171760952Y-120721428D01*
X171856190Y-120673809D01*
X172141904Y-120673809D01*
X172237142Y-120721428D01*
X172284761Y-120769047D01*
X172332380Y-120864285D01*
X172332380Y-121007142D01*
X171665714Y-120388095D02*
X171665714Y-120007142D01*
X172332380Y-120245238D02*
X171475238Y-120245238D01*
X171380000Y-120197619D01*
X171332380Y-120102380D01*
X171332380Y-120007142D01*
X171665714Y-119816666D02*
X171665714Y-119435714D01*
X172332380Y-119673809D02*
X171475238Y-119673809D01*
X171380000Y-119626190D01*
X171332380Y-119530952D01*
X171332380Y-119435714D01*
%TO.C,JGND3*%
X170660000Y-108711904D02*
X170612380Y-108807142D01*
X170612380Y-108950000D01*
X170660000Y-109092857D01*
X170755238Y-109188095D01*
X170850476Y-109235714D01*
X171040952Y-109283333D01*
X171183809Y-109283333D01*
X171374285Y-109235714D01*
X171469523Y-109188095D01*
X171564761Y-109092857D01*
X171612380Y-108950000D01*
X171612380Y-108854761D01*
X171564761Y-108711904D01*
X171517142Y-108664285D01*
X171183809Y-108664285D01*
X171183809Y-108854761D01*
X171612380Y-108235714D02*
X170612380Y-108235714D01*
X171612380Y-107664285D01*
X170612380Y-107664285D01*
X171612380Y-107188095D02*
X170612380Y-107188095D01*
X170612380Y-106950000D01*
X170660000Y-106807142D01*
X170755238Y-106711904D01*
X170850476Y-106664285D01*
X171040952Y-106616666D01*
X171183809Y-106616666D01*
X171374285Y-106664285D01*
X171469523Y-106711904D01*
X171564761Y-106807142D01*
X171612380Y-106950000D01*
X171612380Y-107188095D01*
%TO.C,J6*%
X172122380Y-114339523D02*
X171455714Y-114339523D01*
X171122380Y-114339523D02*
X171170000Y-114387142D01*
X171217619Y-114339523D01*
X171170000Y-114291904D01*
X171122380Y-114339523D01*
X171217619Y-114339523D01*
X172122380Y-113863333D02*
X171455714Y-113863333D01*
X171646190Y-113863333D02*
X171550952Y-113815714D01*
X171503333Y-113768095D01*
X171455714Y-113672857D01*
X171455714Y-113577619D01*
%TO.C,J9*%
X115792380Y-106719523D02*
X115125714Y-106719523D01*
X115316190Y-106719523D02*
X115220952Y-106671904D01*
X115173333Y-106624285D01*
X115125714Y-106529047D01*
X115125714Y-106433809D01*
X115744761Y-105719523D02*
X115792380Y-105814761D01*
X115792380Y-106005238D01*
X115744761Y-106100476D01*
X115649523Y-106148095D01*
X115268571Y-106148095D01*
X115173333Y-106100476D01*
X115125714Y-106005238D01*
X115125714Y-105814761D01*
X115173333Y-105719523D01*
X115268571Y-105671904D01*
X115363809Y-105671904D01*
X115459047Y-106148095D01*
X115744761Y-104814761D02*
X115792380Y-104910000D01*
X115792380Y-105100476D01*
X115744761Y-105195714D01*
X115697142Y-105243333D01*
X115601904Y-105290952D01*
X115316190Y-105290952D01*
X115220952Y-105243333D01*
X115173333Y-105195714D01*
X115125714Y-105100476D01*
X115125714Y-104910000D01*
X115173333Y-104814761D01*
X115125714Y-104481428D02*
X115792380Y-104243333D01*
X115125714Y-104005238D01*
%TO.C,JGND2*%
X109700000Y-118871904D02*
X109652380Y-118967142D01*
X109652380Y-119110000D01*
X109700000Y-119252857D01*
X109795238Y-119348095D01*
X109890476Y-119395714D01*
X110080952Y-119443333D01*
X110223809Y-119443333D01*
X110414285Y-119395714D01*
X110509523Y-119348095D01*
X110604761Y-119252857D01*
X110652380Y-119110000D01*
X110652380Y-119014761D01*
X110604761Y-118871904D01*
X110557142Y-118824285D01*
X110223809Y-118824285D01*
X110223809Y-119014761D01*
X110652380Y-118395714D02*
X109652380Y-118395714D01*
X110652380Y-117824285D01*
X109652380Y-117824285D01*
X110652380Y-117348095D02*
X109652380Y-117348095D01*
X109652380Y-117110000D01*
X109700000Y-116967142D01*
X109795238Y-116871904D01*
X109890476Y-116824285D01*
X110080952Y-116776666D01*
X110223809Y-116776666D01*
X110414285Y-116824285D01*
X110509523Y-116871904D01*
X110604761Y-116967142D01*
X110652380Y-117110000D01*
X110652380Y-117348095D01*
%TO.C,Jvcc1*%
X120586666Y-114732380D02*
X120920000Y-115732380D01*
X121253333Y-114732380D01*
X122158095Y-115637142D02*
X122110476Y-115684761D01*
X121967619Y-115732380D01*
X121872380Y-115732380D01*
X121729523Y-115684761D01*
X121634285Y-115589523D01*
X121586666Y-115494285D01*
X121539047Y-115303809D01*
X121539047Y-115160952D01*
X121586666Y-114970476D01*
X121634285Y-114875238D01*
X121729523Y-114780000D01*
X121872380Y-114732380D01*
X121967619Y-114732380D01*
X122110476Y-114780000D01*
X122158095Y-114827619D01*
X123158095Y-115637142D02*
X123110476Y-115684761D01*
X122967619Y-115732380D01*
X122872380Y-115732380D01*
X122729523Y-115684761D01*
X122634285Y-115589523D01*
X122586666Y-115494285D01*
X122539047Y-115303809D01*
X122539047Y-115160952D01*
X122586666Y-114970476D01*
X122634285Y-114875238D01*
X122729523Y-114780000D01*
X122872380Y-114732380D01*
X122967619Y-114732380D01*
X123110476Y-114780000D01*
X123158095Y-114827619D01*
%TD*%
M02*
