%TF.GenerationSoftware,KiCad,Pcbnew,6.0.10-1.fc36*%
%TF.CreationDate,2023-01-12T14:27:35+01:00*%
%TF.ProjectId,wererabbit_game,77657265-7261-4626-9269-745f67616d65,rev?*%
%TF.SameCoordinates,Original*%
%TF.FileFunction,Copper,L2,Bot*%
%TF.FilePolarity,Positive*%
%FSLAX46Y46*%
G04 Gerber Fmt 4.6, Leading zero omitted, Abs format (unit mm)*
G04 Created by KiCad (PCBNEW 6.0.10-1.fc36) date 2023-01-12 14:27:35*
%MOMM*%
%LPD*%
G01*
G04 APERTURE LIST*
%TA.AperFunction,ComponentPad*%
%ADD10C,1.600000*%
%TD*%
%TA.AperFunction,ComponentPad*%
%ADD11O,1.600000X1.600000*%
%TD*%
%TA.AperFunction,SMDPad,CuDef*%
%ADD12R,2.500000X2.500000*%
%TD*%
%TA.AperFunction,ComponentPad*%
%ADD13C,2.000000*%
%TD*%
%TA.AperFunction,ComponentPad*%
%ADD14R,1.700000X1.700000*%
%TD*%
%TA.AperFunction,ComponentPad*%
%ADD15O,1.700000X1.700000*%
%TD*%
%TA.AperFunction,ComponentPad*%
%ADD16R,1.050000X1.500000*%
%TD*%
%TA.AperFunction,ComponentPad*%
%ADD17O,1.050000X1.500000*%
%TD*%
%TA.AperFunction,Conductor*%
%ADD18C,0.400000*%
%TD*%
%TA.AperFunction,Conductor*%
%ADD19C,0.600000*%
%TD*%
G04 APERTURE END LIST*
D10*
%TO.P,R1,1*%
%TO.N,Net-(J1-Pad10)*%
X137160000Y-119380000D03*
D11*
%TO.P,R1,2*%
%TO.N,Net-(Q1-Pad2)*%
X147320000Y-119380000D03*
%TD*%
D12*
%TO.P,J8a1,1,Pin_1*%
%TO.N,Net-(J1-Pad7)*%
X107950000Y-121920000D03*
%TD*%
%TO.P,JGND1,1,Pin_1*%
%TO.N,GND*%
X127000000Y-113030000D03*
%TD*%
D13*
%TO.P,J8,1,Pin_1*%
%TO.N,Net-(J1-Pad7)*%
X101600000Y-121110000D03*
%TO.N,GND*%
X101600000Y-118570000D03*
%TD*%
D12*
%TO.P,J7a1,1,Pin_1*%
%TO.N,Net-(J1-Pad6)*%
X163830000Y-107950000D03*
%TD*%
D13*
%TO.P,J10,1,Pin_1*%
%TO.N,Net-(J10-Pad1)*%
X170180000Y-120650000D03*
%TO.N,GND*%
X170180000Y-123190000D03*
%TD*%
%TO.P,J11,1,Pin_1*%
%TO.N,Net-(J11-Pad1)*%
X109220000Y-111710000D03*
%TO.N,GND*%
X109220000Y-114250000D03*
%TD*%
D12*
%TO.P,JGND3,1,Pin_1*%
%TO.N,GND*%
X168910000Y-107950000D03*
%TD*%
D13*
%TO.P,J6,1,Pin_1*%
%TO.N,VCC*%
X169970000Y-113030000D03*
%TO.N,Net-(R2-Pad1)*%
X169970000Y-115570000D03*
%TD*%
D14*
%TO.P,SW1,1,A*%
%TO.N,Net-(J10-Pad1)*%
X101625000Y-107995000D03*
D15*
%TO.P,SW1,2,B*%
%TO.N,Net-(J11-Pad1)*%
X101625000Y-110535000D03*
%TO.P,SW1,3,C*%
%TO.N,unconnected-(SW1-Pad3)*%
X101625000Y-113075000D03*
%TD*%
D14*
%TO.P,J9,1,Pin_1*%
%TO.N,GND*%
X125730000Y-105410000D03*
D15*
%TO.P,J9,2,Pin_2*%
%TO.N,VCC*%
X123190000Y-105410000D03*
%TO.P,J9,3,Pin_3*%
%TO.N,Net-(J1-Pad8)*%
X120650000Y-105410000D03*
%TO.P,J9,4,Pin_4*%
%TO.N,Net-(J1-Pad9)*%
X118110000Y-105410000D03*
%TD*%
D12*
%TO.P,JGND2,1,Pin_1*%
%TO.N,GND*%
X107950000Y-118110000D03*
%TD*%
D14*
%TO.P,J2,1,Pin_1*%
%TO.N,VCC*%
X132000000Y-102000000D03*
D15*
%TO.P,J2,2,Pin_2*%
%TO.N,GND*%
X134540000Y-102000000D03*
%TO.P,J2,3,Pin_3*%
%TO.N,unconnected-(J2-Pad3)*%
X137080000Y-102000000D03*
%TO.P,J2,4,Pin_4*%
%TO.N,GND*%
X139620000Y-102000000D03*
%TO.P,J2,5,Pin_5*%
%TO.N,unconnected-(J2-Pad5)*%
X142160000Y-102000000D03*
%TO.P,J2,6,Pin_6*%
%TO.N,unconnected-(J2-Pad6)*%
X144700000Y-102000000D03*
%TO.P,J2,7,Pin_7*%
%TO.N,unconnected-(J2-Pad7)*%
X147240000Y-102000000D03*
%TO.P,J2,8,Pin_8*%
%TO.N,unconnected-(J2-Pad8)*%
X149780000Y-102000000D03*
%TO.P,J2,9,Pin_9*%
%TO.N,unconnected-(J2-Pad9)*%
X152320000Y-102000000D03*
%TO.P,J2,10,Pin_10*%
%TO.N,unconnected-(J2-Pad10)*%
X154860000Y-102000000D03*
%TO.P,J2,11,Pin_11*%
%TO.N,unconnected-(J2-Pad11)*%
X157400000Y-102000000D03*
%TO.P,J2,12,Pin_12*%
%TO.N,unconnected-(J2-Pad12)*%
X159940000Y-102000000D03*
%TO.P,J2,13,Pin_13*%
%TO.N,unconnected-(J2-Pad13)*%
X162480000Y-102000000D03*
%TD*%
D10*
%TO.P,R2,1*%
%TO.N,Net-(R2-Pad1)*%
X154940000Y-113030000D03*
D11*
%TO.P,R2,2*%
%TO.N,Net-(Q1-Pad3)*%
X144780000Y-113030000D03*
%TD*%
D13*
%TO.P,J7,1,Pin_1*%
%TO.N,Net-(J1-Pad6)*%
X167640000Y-104140000D03*
%TO.N,GND*%
X170180000Y-104140000D03*
%TD*%
D16*
%TO.P,Q1,1,E*%
%TO.N,GND*%
X140970000Y-106680000D03*
D17*
%TO.P,Q1,2,B*%
%TO.N,Net-(Q1-Pad2)*%
X142240000Y-106680000D03*
%TO.P,Q1,3,C*%
%TO.N,Net-(Q1-Pad3)*%
X143510000Y-106680000D03*
%TD*%
D14*
%TO.P,J1,1,Pin_1*%
%TO.N,unconnected-(J1-Pad1)*%
X162400000Y-125000000D03*
D15*
%TO.P,J1,2,Pin_2*%
%TO.N,unconnected-(J1-Pad2)*%
X159860000Y-125000000D03*
%TO.P,J1,3,Pin_3*%
%TO.N,unconnected-(J1-Pad3)*%
X157320000Y-125000000D03*
%TO.P,J1,4,Pin_4*%
%TO.N,unconnected-(J1-Pad4)*%
X154780000Y-125000000D03*
%TO.P,J1,5,Pin_5*%
%TO.N,unconnected-(J1-Pad5)*%
X152240000Y-125000000D03*
%TO.P,J1,6,Pin_6*%
%TO.N,Net-(J1-Pad6)*%
X149700000Y-125000000D03*
%TO.P,J1,7,Pin_7*%
%TO.N,Net-(J1-Pad7)*%
X147160000Y-125000000D03*
%TO.P,J1,8,Pin_8*%
%TO.N,Net-(J1-Pad8)*%
X144620000Y-125000000D03*
%TO.P,J1,9,Pin_9*%
%TO.N,Net-(J1-Pad9)*%
X142080000Y-125000000D03*
%TO.P,J1,10,Pin_10*%
%TO.N,Net-(J1-Pad10)*%
X139540000Y-125000000D03*
%TO.P,J1,11,Pin_11*%
%TO.N,unconnected-(J1-Pad11)*%
X137000000Y-125000000D03*
%TO.P,J1,12,Pin_12*%
%TO.N,unconnected-(J1-Pad12)*%
X134460000Y-125000000D03*
%TO.P,J1,13,Pin_13*%
%TO.N,unconnected-(J1-Pad13)*%
X131920000Y-125000000D03*
%TD*%
D12*
%TO.P,Jvcc1,1,Pin_1*%
%TO.N,VCC*%
X121920000Y-113030000D03*
%TD*%
D18*
%TO.N,Net-(J1-Pad6)*%
X163830000Y-107950000D02*
X167640000Y-104140000D01*
%TO.N,Net-(J1-Pad7)*%
X107950000Y-121920000D02*
X144080000Y-121920000D01*
X107140000Y-121110000D02*
X107950000Y-121920000D01*
X144080000Y-121920000D02*
X147160000Y-125000000D01*
X101600000Y-121110000D02*
X107140000Y-121110000D01*
D19*
%TO.N,Net-(J10-Pad1)*%
X165100000Y-115570000D02*
X115570000Y-115570000D01*
X115570000Y-115570000D02*
X113030000Y-113030000D01*
X113030000Y-110490000D02*
X110535000Y-107995000D01*
X113030000Y-113030000D02*
X113030000Y-110490000D01*
X170180000Y-120650000D02*
X165100000Y-115570000D01*
X110535000Y-107995000D02*
X101625000Y-107995000D01*
%TO.N,Net-(J11-Pad1)*%
X101625000Y-110535000D02*
X108045000Y-110535000D01*
X108045000Y-110535000D02*
X109220000Y-111710000D01*
%TO.N,VCC*%
X132000000Y-102000000D02*
X132000000Y-106600000D01*
X123190000Y-105410000D02*
X123190000Y-111760000D01*
X169970000Y-112820000D02*
X169970000Y-113030000D01*
X123190000Y-111760000D02*
X121920000Y-113030000D01*
X135890000Y-110490000D02*
X167640000Y-110490000D01*
X132000000Y-106600000D02*
X135890000Y-110490000D01*
X167640000Y-110490000D02*
X169970000Y-112820000D01*
%TO.N,Net-(R2-Pad1)*%
X168910000Y-115570000D02*
X169970000Y-115570000D01*
X166370000Y-113030000D02*
X168910000Y-115570000D01*
X154940000Y-113030000D02*
X166370000Y-113030000D01*
%TD*%
%TA.AperFunction,Conductor*%
%TO.N,GND*%
G36*
X130847895Y-100528502D02*
G01*
X130894388Y-100582158D01*
X130904492Y-100652432D01*
X130874998Y-100717012D01*
X130855339Y-100735326D01*
X130826903Y-100756638D01*
X130786739Y-100786739D01*
X130699385Y-100903295D01*
X130648255Y-101039684D01*
X130641500Y-101101866D01*
X130641500Y-102898134D01*
X130648255Y-102960316D01*
X130699385Y-103096705D01*
X130786739Y-103213261D01*
X130903295Y-103300615D01*
X131039684Y-103351745D01*
X131066914Y-103354703D01*
X131079108Y-103356028D01*
X131144670Y-103383270D01*
X131185096Y-103441634D01*
X131191500Y-103481291D01*
X131191500Y-106590786D01*
X131191493Y-106592106D01*
X131190549Y-106682221D01*
X131199711Y-106724597D01*
X131201769Y-106737163D01*
X131206603Y-106780255D01*
X131208919Y-106786906D01*
X131208920Y-106786910D01*
X131217633Y-106811930D01*
X131221796Y-106826742D01*
X131228881Y-106859510D01*
X131247208Y-106898813D01*
X131251990Y-106910589D01*
X131266255Y-106951552D01*
X131269989Y-106957527D01*
X131269990Y-106957530D01*
X131284027Y-106979995D01*
X131291366Y-106993512D01*
X131302559Y-107017514D01*
X131305538Y-107023902D01*
X131309855Y-107029467D01*
X131309856Y-107029469D01*
X131332106Y-107058153D01*
X131339402Y-107068612D01*
X131357057Y-107096866D01*
X131362374Y-107105376D01*
X131367334Y-107110371D01*
X131367335Y-107110372D01*
X131390976Y-107134179D01*
X131391561Y-107134804D01*
X131392078Y-107135470D01*
X131418068Y-107161460D01*
X131490185Y-107234082D01*
X131491222Y-107234740D01*
X131492451Y-107235843D01*
X135311766Y-111055158D01*
X135312694Y-111056095D01*
X135375771Y-111120507D01*
X135412221Y-111143998D01*
X135422546Y-111151417D01*
X135456443Y-111178476D01*
X135462784Y-111181541D01*
X135462785Y-111181542D01*
X135486637Y-111193072D01*
X135500054Y-111200601D01*
X135528238Y-111218765D01*
X135534855Y-111221173D01*
X135534860Y-111221176D01*
X135568973Y-111233592D01*
X135580716Y-111238553D01*
X135613400Y-111254353D01*
X135613409Y-111254356D01*
X135619749Y-111257421D01*
X135626614Y-111259006D01*
X135652428Y-111264966D01*
X135667168Y-111269332D01*
X135698685Y-111280803D01*
X135705670Y-111281685D01*
X135705677Y-111281687D01*
X135741692Y-111286237D01*
X135754243Y-111288472D01*
X135796485Y-111298225D01*
X135803529Y-111298250D01*
X135803533Y-111298250D01*
X135837072Y-111298367D01*
X135837942Y-111298396D01*
X135838769Y-111298500D01*
X135875258Y-111298500D01*
X135875697Y-111298501D01*
X135974343Y-111298845D01*
X135974348Y-111298845D01*
X135977870Y-111298857D01*
X135979070Y-111298589D01*
X135980708Y-111298500D01*
X167252918Y-111298500D01*
X167321039Y-111318502D01*
X167342013Y-111335405D01*
X167923406Y-111916797D01*
X168488379Y-112481770D01*
X168522404Y-112544082D01*
X168521803Y-112600277D01*
X168512094Y-112640720D01*
X168477893Y-112783177D01*
X168475465Y-112793289D01*
X168456835Y-113030000D01*
X168475465Y-113266711D01*
X168476619Y-113271518D01*
X168476620Y-113271524D01*
X168490370Y-113328796D01*
X168530895Y-113497594D01*
X168532788Y-113502165D01*
X168532789Y-113502167D01*
X168612257Y-113694020D01*
X168621760Y-113716963D01*
X168624346Y-113721183D01*
X168732464Y-113897615D01*
X168751002Y-113966149D01*
X168729546Y-114033825D01*
X168674907Y-114079158D01*
X168604432Y-114087755D01*
X168535936Y-114052545D01*
X167942861Y-113459469D01*
X166948234Y-112464842D01*
X166947306Y-112463905D01*
X166889157Y-112404525D01*
X166889156Y-112404524D01*
X166884229Y-112399493D01*
X166847779Y-112376002D01*
X166837454Y-112368583D01*
X166803557Y-112341524D01*
X166796752Y-112338234D01*
X166773363Y-112326928D01*
X166759945Y-112319398D01*
X166731762Y-112301235D01*
X166725145Y-112298827D01*
X166725140Y-112298824D01*
X166691027Y-112286408D01*
X166679284Y-112281447D01*
X166646597Y-112265646D01*
X166646592Y-112265644D01*
X166640251Y-112262579D01*
X166633393Y-112260996D01*
X166633391Y-112260995D01*
X166607574Y-112255035D01*
X166592831Y-112250668D01*
X166561315Y-112239197D01*
X166554325Y-112238314D01*
X166554317Y-112238312D01*
X166518299Y-112233762D01*
X166505747Y-112231526D01*
X166470386Y-112223362D01*
X166470383Y-112223362D01*
X166463515Y-112221776D01*
X166456469Y-112221751D01*
X166456466Y-112221751D01*
X166422944Y-112221634D01*
X166422062Y-112221605D01*
X166421231Y-112221500D01*
X166384581Y-112221500D01*
X166384141Y-112221499D01*
X166285657Y-112221155D01*
X166285652Y-112221155D01*
X166282130Y-112221143D01*
X166280930Y-112221411D01*
X166279293Y-112221500D01*
X156034188Y-112221500D01*
X155966067Y-112201498D01*
X155945093Y-112184595D01*
X155784300Y-112023802D01*
X155779792Y-112020645D01*
X155779789Y-112020643D01*
X155688644Y-111956823D01*
X155596749Y-111892477D01*
X155591767Y-111890154D01*
X155591762Y-111890151D01*
X155394225Y-111798039D01*
X155394224Y-111798039D01*
X155389243Y-111795716D01*
X155383935Y-111794294D01*
X155383933Y-111794293D01*
X155173402Y-111737881D01*
X155173400Y-111737881D01*
X155168087Y-111736457D01*
X154940000Y-111716502D01*
X154711913Y-111736457D01*
X154706600Y-111737881D01*
X154706598Y-111737881D01*
X154496067Y-111794293D01*
X154496065Y-111794294D01*
X154490757Y-111795716D01*
X154485776Y-111798039D01*
X154485775Y-111798039D01*
X154288238Y-111890151D01*
X154288233Y-111890154D01*
X154283251Y-111892477D01*
X154191356Y-111956823D01*
X154100211Y-112020643D01*
X154100208Y-112020645D01*
X154095700Y-112023802D01*
X153933802Y-112185700D01*
X153930645Y-112190208D01*
X153930643Y-112190211D01*
X153896343Y-112239197D01*
X153802477Y-112373251D01*
X153800154Y-112378233D01*
X153800151Y-112378238D01*
X153714273Y-112562406D01*
X153705716Y-112580757D01*
X153704294Y-112586065D01*
X153704293Y-112586067D01*
X153654972Y-112770135D01*
X153646457Y-112801913D01*
X153626502Y-113030000D01*
X153646457Y-113258087D01*
X153647881Y-113263400D01*
X153647881Y-113263402D01*
X153700418Y-113459469D01*
X153705716Y-113479243D01*
X153708039Y-113484224D01*
X153708039Y-113484225D01*
X153800151Y-113681762D01*
X153800154Y-113681767D01*
X153802477Y-113686749D01*
X153933802Y-113874300D01*
X154095700Y-114036198D01*
X154100208Y-114039355D01*
X154100211Y-114039357D01*
X154157053Y-114079158D01*
X154283251Y-114167523D01*
X154288233Y-114169846D01*
X154288238Y-114169849D01*
X154457697Y-114248868D01*
X154490757Y-114264284D01*
X154496065Y-114265706D01*
X154496067Y-114265707D01*
X154706598Y-114322119D01*
X154706600Y-114322119D01*
X154711913Y-114323543D01*
X154940000Y-114343498D01*
X155168087Y-114323543D01*
X155173400Y-114322119D01*
X155173402Y-114322119D01*
X155383933Y-114265707D01*
X155383935Y-114265706D01*
X155389243Y-114264284D01*
X155422303Y-114248868D01*
X155591762Y-114169849D01*
X155591767Y-114169846D01*
X155596749Y-114167523D01*
X155722947Y-114079158D01*
X155779789Y-114039357D01*
X155779792Y-114039355D01*
X155784300Y-114036198D01*
X155945093Y-113875405D01*
X156007405Y-113841379D01*
X156034188Y-113838500D01*
X165982918Y-113838500D01*
X166051039Y-113858502D01*
X166072013Y-113875405D01*
X168331766Y-116135158D01*
X168332694Y-116136095D01*
X168395771Y-116200507D01*
X168432221Y-116223998D01*
X168442546Y-116231417D01*
X168476443Y-116258476D01*
X168482782Y-116261540D01*
X168482786Y-116261543D01*
X168506638Y-116273074D01*
X168520051Y-116280601D01*
X168542313Y-116294947D01*
X168542316Y-116294948D01*
X168548238Y-116298765D01*
X168554857Y-116301174D01*
X168554861Y-116301176D01*
X168588973Y-116313592D01*
X168600717Y-116318553D01*
X168633400Y-116334353D01*
X168633406Y-116334355D01*
X168638731Y-116336929D01*
X168638732Y-116336930D01*
X168639747Y-116337421D01*
X168639661Y-116337599D01*
X168694439Y-116377056D01*
X168702409Y-116388571D01*
X168743239Y-116455198D01*
X168745824Y-116459416D01*
X168900031Y-116639969D01*
X169080584Y-116794176D01*
X169084792Y-116796755D01*
X169084798Y-116796759D01*
X169278817Y-116915654D01*
X169283037Y-116918240D01*
X169287607Y-116920133D01*
X169287611Y-116920135D01*
X169497833Y-117007211D01*
X169502406Y-117009105D01*
X169582609Y-117028360D01*
X169728476Y-117063380D01*
X169728482Y-117063381D01*
X169733289Y-117064535D01*
X169970000Y-117083165D01*
X170206711Y-117064535D01*
X170211518Y-117063381D01*
X170211524Y-117063380D01*
X170357391Y-117028360D01*
X170437594Y-117009105D01*
X170442167Y-117007211D01*
X170652389Y-116920135D01*
X170652393Y-116920133D01*
X170656963Y-116918240D01*
X170661183Y-116915654D01*
X170855202Y-116796759D01*
X170855208Y-116796755D01*
X170859416Y-116794176D01*
X171039969Y-116639969D01*
X171194176Y-116459416D01*
X171196755Y-116455208D01*
X171196759Y-116455202D01*
X171315654Y-116261183D01*
X171318240Y-116256963D01*
X171330467Y-116227446D01*
X171407211Y-116042167D01*
X171407212Y-116042165D01*
X171409105Y-116037594D01*
X171464535Y-115806711D01*
X171483165Y-115570000D01*
X171464535Y-115333289D01*
X171409105Y-115102406D01*
X171338589Y-114932163D01*
X171320135Y-114887611D01*
X171320133Y-114887607D01*
X171318240Y-114883037D01*
X171282200Y-114824225D01*
X171196759Y-114684798D01*
X171196755Y-114684792D01*
X171194176Y-114680584D01*
X171039969Y-114500031D01*
X171036213Y-114496823D01*
X171036208Y-114496818D01*
X170917944Y-114395811D01*
X170879134Y-114336361D01*
X170878628Y-114265366D01*
X170917944Y-114204189D01*
X171036208Y-114103182D01*
X171036213Y-114103177D01*
X171039969Y-114099969D01*
X171194176Y-113919416D01*
X171196755Y-113915208D01*
X171196759Y-113915202D01*
X171315654Y-113721183D01*
X171318240Y-113716963D01*
X171327744Y-113694020D01*
X171407211Y-113502167D01*
X171407212Y-113502165D01*
X171409105Y-113497594D01*
X171449630Y-113328796D01*
X171463380Y-113271524D01*
X171463381Y-113271518D01*
X171464535Y-113266711D01*
X171483165Y-113030000D01*
X171464535Y-112793289D01*
X171462108Y-112783177D01*
X171425562Y-112630954D01*
X171409105Y-112562406D01*
X171368305Y-112463905D01*
X171320135Y-112347611D01*
X171320133Y-112347607D01*
X171318240Y-112343037D01*
X171282200Y-112284225D01*
X171196759Y-112144798D01*
X171196755Y-112144792D01*
X171194176Y-112140584D01*
X171039969Y-111960031D01*
X170859416Y-111805824D01*
X170855208Y-111803245D01*
X170855202Y-111803241D01*
X170661183Y-111684346D01*
X170656963Y-111681760D01*
X170652393Y-111679867D01*
X170652389Y-111679865D01*
X170442167Y-111592789D01*
X170442165Y-111592788D01*
X170437594Y-111590895D01*
X170357391Y-111571640D01*
X170211524Y-111536620D01*
X170211518Y-111536619D01*
X170206711Y-111535465D01*
X169970000Y-111516835D01*
X169879790Y-111523935D01*
X169810311Y-111509339D01*
X169780810Y-111487418D01*
X168218234Y-109924842D01*
X168217311Y-109923910D01*
X168215600Y-109922163D01*
X168182225Y-109859500D01*
X168188027Y-109788741D01*
X168231163Y-109732351D01*
X168297938Y-109708234D01*
X168305618Y-109708000D01*
X168637885Y-109708000D01*
X168653124Y-109703525D01*
X168654329Y-109702135D01*
X168656000Y-109694452D01*
X168656000Y-109689884D01*
X169164000Y-109689884D01*
X169168475Y-109705123D01*
X169169865Y-109706328D01*
X169177548Y-109707999D01*
X170204669Y-109707999D01*
X170211490Y-109707629D01*
X170262352Y-109702105D01*
X170277604Y-109698479D01*
X170398054Y-109653324D01*
X170413649Y-109644786D01*
X170515724Y-109568285D01*
X170528285Y-109555724D01*
X170604786Y-109453649D01*
X170613324Y-109438054D01*
X170658478Y-109317606D01*
X170662105Y-109302351D01*
X170667631Y-109251486D01*
X170668000Y-109244672D01*
X170668000Y-108222115D01*
X170663525Y-108206876D01*
X170662135Y-108205671D01*
X170654452Y-108204000D01*
X169182115Y-108204000D01*
X169166876Y-108208475D01*
X169165671Y-108209865D01*
X169164000Y-108217548D01*
X169164000Y-109689884D01*
X168656000Y-109689884D01*
X168656000Y-108222115D01*
X168651525Y-108206876D01*
X168650135Y-108205671D01*
X168642452Y-108204000D01*
X167170116Y-108204000D01*
X167154877Y-108208475D01*
X167153672Y-108209865D01*
X167152001Y-108217548D01*
X167152001Y-109244669D01*
X167152371Y-109251490D01*
X167157895Y-109302352D01*
X167161521Y-109317604D01*
X167206676Y-109438054D01*
X167215214Y-109453648D01*
X167234915Y-109479936D01*
X167259762Y-109546443D01*
X167244708Y-109615825D01*
X167194534Y-109666055D01*
X167134088Y-109681500D01*
X165606536Y-109681500D01*
X165538415Y-109661498D01*
X165491922Y-109607842D01*
X165481818Y-109537568D01*
X165505711Y-109479934D01*
X165525229Y-109453892D01*
X165525230Y-109453890D01*
X165530615Y-109446705D01*
X165581745Y-109310316D01*
X165588500Y-109248134D01*
X165588500Y-107677885D01*
X167152000Y-107677885D01*
X167156475Y-107693124D01*
X167157865Y-107694329D01*
X167165548Y-107696000D01*
X168637885Y-107696000D01*
X168653124Y-107691525D01*
X168654329Y-107690135D01*
X168656000Y-107682452D01*
X168656000Y-107677885D01*
X169164000Y-107677885D01*
X169168475Y-107693124D01*
X169169865Y-107694329D01*
X169177548Y-107696000D01*
X170649884Y-107696000D01*
X170665123Y-107691525D01*
X170666328Y-107690135D01*
X170667999Y-107682452D01*
X170667999Y-106655331D01*
X170667629Y-106648510D01*
X170662105Y-106597648D01*
X170658479Y-106582396D01*
X170613324Y-106461946D01*
X170604786Y-106446351D01*
X170528285Y-106344276D01*
X170515724Y-106331715D01*
X170413649Y-106255214D01*
X170398054Y-106246676D01*
X170277606Y-106201522D01*
X170262351Y-106197895D01*
X170211486Y-106192369D01*
X170204672Y-106192000D01*
X169182115Y-106192000D01*
X169166876Y-106196475D01*
X169165671Y-106197865D01*
X169164000Y-106205548D01*
X169164000Y-107677885D01*
X168656000Y-107677885D01*
X168656000Y-106210116D01*
X168651525Y-106194877D01*
X168650135Y-106193672D01*
X168642452Y-106192001D01*
X167615331Y-106192001D01*
X167608510Y-106192371D01*
X167557648Y-106197895D01*
X167542396Y-106201521D01*
X167421946Y-106246676D01*
X167406351Y-106255214D01*
X167304276Y-106331715D01*
X167291715Y-106344276D01*
X167215214Y-106446351D01*
X167206676Y-106461946D01*
X167161522Y-106582394D01*
X167157895Y-106597649D01*
X167152369Y-106648514D01*
X167152000Y-106655328D01*
X167152000Y-107677885D01*
X165588500Y-107677885D01*
X165588500Y-107245660D01*
X165608502Y-107177539D01*
X165625405Y-107156565D01*
X167147072Y-105634898D01*
X167209384Y-105600872D01*
X167265579Y-105601474D01*
X167327352Y-105616304D01*
X167398476Y-105633380D01*
X167398482Y-105633381D01*
X167403289Y-105634535D01*
X167640000Y-105653165D01*
X167876711Y-105634535D01*
X167881518Y-105633381D01*
X167881524Y-105633380D01*
X168059176Y-105590729D01*
X168107594Y-105579105D01*
X168112167Y-105577211D01*
X168322389Y-105490135D01*
X168322393Y-105490133D01*
X168326963Y-105488240D01*
X168411178Y-105436633D01*
X168515556Y-105372670D01*
X169312160Y-105372670D01*
X169317887Y-105380320D01*
X169489042Y-105485205D01*
X169497837Y-105489687D01*
X169707988Y-105576734D01*
X169717373Y-105579783D01*
X169938554Y-105632885D01*
X169948301Y-105634428D01*
X170175070Y-105652275D01*
X170184930Y-105652275D01*
X170411699Y-105634428D01*
X170421446Y-105632885D01*
X170642627Y-105579783D01*
X170652012Y-105576734D01*
X170862163Y-105489687D01*
X170870958Y-105485205D01*
X171038445Y-105382568D01*
X171047907Y-105372110D01*
X171044124Y-105363334D01*
X170192812Y-104512022D01*
X170178868Y-104504408D01*
X170177035Y-104504539D01*
X170170420Y-104508790D01*
X169318920Y-105360290D01*
X169312160Y-105372670D01*
X168515556Y-105372670D01*
X168525202Y-105366759D01*
X168525208Y-105366755D01*
X168529416Y-105364176D01*
X168709969Y-105209969D01*
X168713177Y-105206213D01*
X168713182Y-105206208D01*
X168843706Y-105053384D01*
X168903156Y-105014574D01*
X168937558Y-105012360D01*
X168956667Y-105004123D01*
X169807978Y-104152812D01*
X169814356Y-104141132D01*
X170544408Y-104141132D01*
X170544539Y-104142965D01*
X170548790Y-104149580D01*
X171400290Y-105001080D01*
X171412670Y-105007840D01*
X171420320Y-105002113D01*
X171525205Y-104830958D01*
X171529687Y-104822163D01*
X171616734Y-104612012D01*
X171619783Y-104602627D01*
X171672885Y-104381446D01*
X171674428Y-104371699D01*
X171692275Y-104144930D01*
X171692275Y-104135070D01*
X171674428Y-103908301D01*
X171672885Y-103898554D01*
X171619783Y-103677373D01*
X171616734Y-103667988D01*
X171529687Y-103457837D01*
X171525205Y-103449042D01*
X171422568Y-103281555D01*
X171412110Y-103272093D01*
X171403334Y-103275876D01*
X170552022Y-104127188D01*
X170544408Y-104141132D01*
X169814356Y-104141132D01*
X169815592Y-104138868D01*
X169815461Y-104137035D01*
X169811210Y-104130420D01*
X168959710Y-103278920D01*
X168942898Y-103269740D01*
X168879650Y-103255980D01*
X168844225Y-103227224D01*
X168713177Y-103073787D01*
X168709969Y-103070031D01*
X168529416Y-102915824D01*
X168525208Y-102913245D01*
X168525202Y-102913241D01*
X168516470Y-102907890D01*
X169312093Y-102907890D01*
X169315876Y-102916666D01*
X170167188Y-103767978D01*
X170181132Y-103775592D01*
X170182965Y-103775461D01*
X170189580Y-103771210D01*
X171041080Y-102919710D01*
X171047840Y-102907330D01*
X171042113Y-102899680D01*
X170870958Y-102794795D01*
X170862163Y-102790313D01*
X170652012Y-102703266D01*
X170642627Y-102700217D01*
X170421446Y-102647115D01*
X170411699Y-102645572D01*
X170184930Y-102627725D01*
X170175070Y-102627725D01*
X169948301Y-102645572D01*
X169938554Y-102647115D01*
X169717373Y-102700217D01*
X169707988Y-102703266D01*
X169497837Y-102790313D01*
X169489042Y-102794795D01*
X169321555Y-102897432D01*
X169312093Y-102907890D01*
X168516470Y-102907890D01*
X168331183Y-102794346D01*
X168326963Y-102791760D01*
X168322393Y-102789867D01*
X168322389Y-102789865D01*
X168112167Y-102702789D01*
X168112165Y-102702788D01*
X168107594Y-102700895D01*
X168027391Y-102681640D01*
X167881524Y-102646620D01*
X167881518Y-102646619D01*
X167876711Y-102645465D01*
X167640000Y-102626835D01*
X167403289Y-102645465D01*
X167398482Y-102646619D01*
X167398476Y-102646620D01*
X167252609Y-102681640D01*
X167172406Y-102700895D01*
X167167835Y-102702788D01*
X167167833Y-102702789D01*
X166957611Y-102789865D01*
X166957607Y-102789867D01*
X166953037Y-102791760D01*
X166948817Y-102794346D01*
X166754798Y-102913241D01*
X166754792Y-102913245D01*
X166750584Y-102915824D01*
X166570031Y-103070031D01*
X166415824Y-103250584D01*
X166413245Y-103254792D01*
X166413241Y-103254798D01*
X166334513Y-103383270D01*
X166291760Y-103453037D01*
X166289867Y-103457607D01*
X166289865Y-103457611D01*
X166280057Y-103481291D01*
X166200895Y-103672406D01*
X166145465Y-103903289D01*
X166126835Y-104140000D01*
X166145465Y-104376711D01*
X166178526Y-104514420D01*
X166174979Y-104585325D01*
X166145102Y-104632927D01*
X164623435Y-106154595D01*
X164561123Y-106188620D01*
X164534340Y-106191500D01*
X162531866Y-106191500D01*
X162469684Y-106198255D01*
X162333295Y-106249385D01*
X162216739Y-106336739D01*
X162129385Y-106453295D01*
X162078255Y-106589684D01*
X162071500Y-106651866D01*
X162071500Y-109248134D01*
X162078255Y-109310316D01*
X162129385Y-109446705D01*
X162134770Y-109453890D01*
X162134771Y-109453892D01*
X162154289Y-109479934D01*
X162179138Y-109546440D01*
X162164086Y-109615823D01*
X162113912Y-109666053D01*
X162053464Y-109681500D01*
X136277082Y-109681500D01*
X136208961Y-109661498D01*
X136187987Y-109644595D01*
X134018061Y-107474669D01*
X139937001Y-107474669D01*
X139937371Y-107481490D01*
X139942895Y-107532352D01*
X139946521Y-107547604D01*
X139991676Y-107668054D01*
X140000214Y-107683649D01*
X140076715Y-107785724D01*
X140089276Y-107798285D01*
X140191351Y-107874786D01*
X140206946Y-107883324D01*
X140327394Y-107928478D01*
X140342649Y-107932105D01*
X140393514Y-107937631D01*
X140400328Y-107938000D01*
X140697885Y-107938000D01*
X140713124Y-107933525D01*
X140714329Y-107932135D01*
X140716000Y-107924452D01*
X140716000Y-106956004D01*
X141206500Y-106956004D01*
X141221277Y-107106713D01*
X141221968Y-107109002D01*
X141224000Y-107129724D01*
X141224000Y-107919884D01*
X141228475Y-107935123D01*
X141229865Y-107936328D01*
X141237548Y-107937999D01*
X141539669Y-107937999D01*
X141546490Y-107937629D01*
X141597352Y-107932105D01*
X141612604Y-107928479D01*
X141733056Y-107883323D01*
X141748466Y-107874886D01*
X141817823Y-107859716D01*
X141846235Y-107865040D01*
X142031180Y-107922290D01*
X142037305Y-107922934D01*
X142037306Y-107922934D01*
X142226622Y-107942832D01*
X142226623Y-107942832D01*
X142232750Y-107943476D01*
X142342090Y-107933525D01*
X142428457Y-107925665D01*
X142428460Y-107925664D01*
X142434596Y-107925106D01*
X142440502Y-107923368D01*
X142440506Y-107923367D01*
X142623120Y-107869620D01*
X142623119Y-107869620D01*
X142629029Y-107867881D01*
X142634486Y-107865028D01*
X142634489Y-107865027D01*
X142786182Y-107785724D01*
X142808460Y-107774077D01*
X142808462Y-107774077D01*
X142808645Y-107773981D01*
X142808663Y-107774016D01*
X142874441Y-107754111D01*
X142935409Y-107769271D01*
X143107565Y-107862356D01*
X143204372Y-107892323D01*
X143295293Y-107920468D01*
X143295296Y-107920469D01*
X143301180Y-107922290D01*
X143307305Y-107922934D01*
X143307306Y-107922934D01*
X143496622Y-107942832D01*
X143496623Y-107942832D01*
X143502750Y-107943476D01*
X143612090Y-107933525D01*
X143698457Y-107925665D01*
X143698460Y-107925664D01*
X143704596Y-107925106D01*
X143710502Y-107923368D01*
X143710506Y-107923367D01*
X143893120Y-107869620D01*
X143893119Y-107869620D01*
X143899029Y-107867881D01*
X143904486Y-107865028D01*
X143904489Y-107865027D01*
X144056182Y-107785724D01*
X144078645Y-107773981D01*
X144236601Y-107646981D01*
X144366881Y-107491719D01*
X144369845Y-107486327D01*
X144369848Y-107486323D01*
X144461556Y-107319506D01*
X144464523Y-107314109D01*
X144525807Y-107120916D01*
X144527401Y-107106713D01*
X144543107Y-106966683D01*
X144543500Y-106963183D01*
X144543500Y-106403996D01*
X144528723Y-106253287D01*
X144470142Y-106059258D01*
X144374990Y-105880302D01*
X144246890Y-105723237D01*
X144197182Y-105682115D01*
X144095472Y-105597973D01*
X144095469Y-105597971D01*
X144090722Y-105594044D01*
X143912435Y-105497644D01*
X143815627Y-105467677D01*
X143724707Y-105439532D01*
X143724704Y-105439531D01*
X143718820Y-105437710D01*
X143712695Y-105437066D01*
X143712694Y-105437066D01*
X143523378Y-105417168D01*
X143523377Y-105417168D01*
X143517250Y-105416524D01*
X143438709Y-105423672D01*
X143321543Y-105434335D01*
X143321540Y-105434336D01*
X143315404Y-105434894D01*
X143309498Y-105436632D01*
X143309494Y-105436633D01*
X143173734Y-105476590D01*
X143120971Y-105492119D01*
X143115514Y-105494972D01*
X143115511Y-105494973D01*
X143031163Y-105539069D01*
X142941540Y-105585923D01*
X142941538Y-105585923D01*
X142941355Y-105586019D01*
X142941337Y-105585984D01*
X142875559Y-105605889D01*
X142814591Y-105590729D01*
X142805815Y-105585984D01*
X142642435Y-105497644D01*
X142545627Y-105467677D01*
X142454707Y-105439532D01*
X142454704Y-105439531D01*
X142448820Y-105437710D01*
X142442695Y-105437066D01*
X142442694Y-105437066D01*
X142253378Y-105417168D01*
X142253377Y-105417168D01*
X142247250Y-105416524D01*
X142168709Y-105423672D01*
X142051543Y-105434335D01*
X142051540Y-105434336D01*
X142045404Y-105434894D01*
X142039498Y-105436632D01*
X142039494Y-105436633D01*
X141948187Y-105463507D01*
X141850971Y-105492119D01*
X141850771Y-105491441D01*
X141784727Y-105497956D01*
X141747677Y-105484680D01*
X141733063Y-105476679D01*
X141612606Y-105431522D01*
X141597351Y-105427895D01*
X141546486Y-105422369D01*
X141539672Y-105422000D01*
X141242115Y-105422000D01*
X141226876Y-105426475D01*
X141225671Y-105427865D01*
X141224000Y-105435548D01*
X141224000Y-106233758D01*
X141223215Y-106247803D01*
X141206500Y-106396817D01*
X141206500Y-106956004D01*
X140716000Y-106956004D01*
X140716000Y-106952115D01*
X140711525Y-106936876D01*
X140710135Y-106935671D01*
X140702452Y-106934000D01*
X139955116Y-106934000D01*
X139939877Y-106938475D01*
X139938672Y-106939865D01*
X139937001Y-106947548D01*
X139937001Y-107474669D01*
X134018061Y-107474669D01*
X132951277Y-106407885D01*
X139937000Y-106407885D01*
X139941475Y-106423124D01*
X139942865Y-106424329D01*
X139950548Y-106426000D01*
X140697885Y-106426000D01*
X140713124Y-106421525D01*
X140714329Y-106420135D01*
X140716000Y-106412452D01*
X140716000Y-105440116D01*
X140711525Y-105424877D01*
X140710135Y-105423672D01*
X140702452Y-105422001D01*
X140400331Y-105422001D01*
X140393510Y-105422371D01*
X140342648Y-105427895D01*
X140327396Y-105431521D01*
X140206946Y-105476676D01*
X140191351Y-105485214D01*
X140089276Y-105561715D01*
X140076715Y-105574276D01*
X140000214Y-105676351D01*
X139991676Y-105691946D01*
X139946522Y-105812394D01*
X139942895Y-105827649D01*
X139937369Y-105878514D01*
X139937000Y-105885328D01*
X139937000Y-106407885D01*
X132951277Y-106407885D01*
X132845405Y-106302013D01*
X132811379Y-106239701D01*
X132808500Y-106212918D01*
X132808500Y-103481291D01*
X132828502Y-103413170D01*
X132882158Y-103366677D01*
X132920892Y-103356028D01*
X132933086Y-103354703D01*
X132960316Y-103351745D01*
X133096705Y-103300615D01*
X133213261Y-103213261D01*
X133300615Y-103096705D01*
X133344798Y-102978848D01*
X133387440Y-102922084D01*
X133454001Y-102897384D01*
X133523350Y-102912592D01*
X133558017Y-102940580D01*
X133583218Y-102969673D01*
X133590580Y-102976883D01*
X133754434Y-103112916D01*
X133762881Y-103118831D01*
X133946756Y-103226279D01*
X133956042Y-103230729D01*
X134155001Y-103306703D01*
X134164899Y-103309579D01*
X134268250Y-103330606D01*
X134282299Y-103329410D01*
X134286000Y-103319065D01*
X134286000Y-101872000D01*
X134306002Y-101803879D01*
X134359658Y-101757386D01*
X134412000Y-101746000D01*
X134668000Y-101746000D01*
X134736121Y-101766002D01*
X134782614Y-101819658D01*
X134794000Y-101872000D01*
X134794000Y-103318517D01*
X134798064Y-103332359D01*
X134811478Y-103334393D01*
X134818184Y-103333534D01*
X134828262Y-103331392D01*
X135032255Y-103270191D01*
X135041842Y-103266433D01*
X135233095Y-103172739D01*
X135241945Y-103167464D01*
X135415328Y-103043792D01*
X135423200Y-103037139D01*
X135574052Y-102886812D01*
X135580730Y-102878965D01*
X135708022Y-102701819D01*
X135709279Y-102702722D01*
X135756373Y-102659362D01*
X135826311Y-102647145D01*
X135891751Y-102674678D01*
X135919579Y-102706511D01*
X135979987Y-102805088D01*
X136126250Y-102973938D01*
X136298126Y-103116632D01*
X136491000Y-103229338D01*
X136495825Y-103231180D01*
X136495826Y-103231181D01*
X136557673Y-103254798D01*
X136699692Y-103309030D01*
X136704760Y-103310061D01*
X136704763Y-103310062D01*
X136799862Y-103329410D01*
X136918597Y-103353567D01*
X136923772Y-103353757D01*
X136923774Y-103353757D01*
X137136673Y-103361564D01*
X137136677Y-103361564D01*
X137141837Y-103361753D01*
X137146957Y-103361097D01*
X137146959Y-103361097D01*
X137358288Y-103334025D01*
X137358289Y-103334025D01*
X137363416Y-103333368D01*
X137368366Y-103331883D01*
X137572429Y-103270661D01*
X137572434Y-103270659D01*
X137577384Y-103269174D01*
X137777994Y-103170896D01*
X137959860Y-103041173D01*
X138118096Y-102883489D01*
X138248453Y-102702077D01*
X138249640Y-102702930D01*
X138296960Y-102659362D01*
X138366897Y-102647145D01*
X138432338Y-102674678D01*
X138460166Y-102706511D01*
X138517694Y-102800388D01*
X138523777Y-102808699D01*
X138663213Y-102969667D01*
X138670580Y-102976883D01*
X138834434Y-103112916D01*
X138842881Y-103118831D01*
X139026756Y-103226279D01*
X139036042Y-103230729D01*
X139235001Y-103306703D01*
X139244899Y-103309579D01*
X139348250Y-103330606D01*
X139362299Y-103329410D01*
X139366000Y-103319065D01*
X139366000Y-101872000D01*
X139386002Y-101803879D01*
X139439658Y-101757386D01*
X139492000Y-101746000D01*
X139748000Y-101746000D01*
X139816121Y-101766002D01*
X139862614Y-101819658D01*
X139874000Y-101872000D01*
X139874000Y-103318517D01*
X139878064Y-103332359D01*
X139891478Y-103334393D01*
X139898184Y-103333534D01*
X139908262Y-103331392D01*
X140112255Y-103270191D01*
X140121842Y-103266433D01*
X140313095Y-103172739D01*
X140321945Y-103167464D01*
X140495328Y-103043792D01*
X140503200Y-103037139D01*
X140654052Y-102886812D01*
X140660730Y-102878965D01*
X140788022Y-102701819D01*
X140789279Y-102702722D01*
X140836373Y-102659362D01*
X140906311Y-102647145D01*
X140971751Y-102674678D01*
X140999579Y-102706511D01*
X141059987Y-102805088D01*
X141206250Y-102973938D01*
X141378126Y-103116632D01*
X141571000Y-103229338D01*
X141575825Y-103231180D01*
X141575826Y-103231181D01*
X141637673Y-103254798D01*
X141779692Y-103309030D01*
X141784760Y-103310061D01*
X141784763Y-103310062D01*
X141879862Y-103329410D01*
X141998597Y-103353567D01*
X142003772Y-103353757D01*
X142003774Y-103353757D01*
X142216673Y-103361564D01*
X142216677Y-103361564D01*
X142221837Y-103361753D01*
X142226957Y-103361097D01*
X142226959Y-103361097D01*
X142438288Y-103334025D01*
X142438289Y-103334025D01*
X142443416Y-103333368D01*
X142448366Y-103331883D01*
X142652429Y-103270661D01*
X142652434Y-103270659D01*
X142657384Y-103269174D01*
X142857994Y-103170896D01*
X143039860Y-103041173D01*
X143198096Y-102883489D01*
X143328453Y-102702077D01*
X143329776Y-102703028D01*
X143376645Y-102659857D01*
X143446580Y-102647625D01*
X143512026Y-102675144D01*
X143539875Y-102706994D01*
X143599987Y-102805088D01*
X143746250Y-102973938D01*
X143918126Y-103116632D01*
X144111000Y-103229338D01*
X144115825Y-103231180D01*
X144115826Y-103231181D01*
X144177673Y-103254798D01*
X144319692Y-103309030D01*
X144324760Y-103310061D01*
X144324763Y-103310062D01*
X144419862Y-103329410D01*
X144538597Y-103353567D01*
X144543772Y-103353757D01*
X144543774Y-103353757D01*
X144756673Y-103361564D01*
X144756677Y-103361564D01*
X144761837Y-103361753D01*
X144766957Y-103361097D01*
X144766959Y-103361097D01*
X144978288Y-103334025D01*
X144978289Y-103334025D01*
X144983416Y-103333368D01*
X144988366Y-103331883D01*
X145192429Y-103270661D01*
X145192434Y-103270659D01*
X145197384Y-103269174D01*
X145397994Y-103170896D01*
X145579860Y-103041173D01*
X145738096Y-102883489D01*
X145868453Y-102702077D01*
X145869776Y-102703028D01*
X145916645Y-102659857D01*
X145986580Y-102647625D01*
X146052026Y-102675144D01*
X146079875Y-102706994D01*
X146139987Y-102805088D01*
X146286250Y-102973938D01*
X146458126Y-103116632D01*
X146651000Y-103229338D01*
X146655825Y-103231180D01*
X146655826Y-103231181D01*
X146717673Y-103254798D01*
X146859692Y-103309030D01*
X146864760Y-103310061D01*
X146864763Y-103310062D01*
X146959862Y-103329410D01*
X147078597Y-103353567D01*
X147083772Y-103353757D01*
X147083774Y-103353757D01*
X147296673Y-103361564D01*
X147296677Y-103361564D01*
X147301837Y-103361753D01*
X147306957Y-103361097D01*
X147306959Y-103361097D01*
X147518288Y-103334025D01*
X147518289Y-103334025D01*
X147523416Y-103333368D01*
X147528366Y-103331883D01*
X147732429Y-103270661D01*
X147732434Y-103270659D01*
X147737384Y-103269174D01*
X147937994Y-103170896D01*
X148119860Y-103041173D01*
X148278096Y-102883489D01*
X148408453Y-102702077D01*
X148409776Y-102703028D01*
X148456645Y-102659857D01*
X148526580Y-102647625D01*
X148592026Y-102675144D01*
X148619875Y-102706994D01*
X148679987Y-102805088D01*
X148826250Y-102973938D01*
X148998126Y-103116632D01*
X149191000Y-103229338D01*
X149195825Y-103231180D01*
X149195826Y-103231181D01*
X149257673Y-103254798D01*
X149399692Y-103309030D01*
X149404760Y-103310061D01*
X149404763Y-103310062D01*
X149499862Y-103329410D01*
X149618597Y-103353567D01*
X149623772Y-103353757D01*
X149623774Y-103353757D01*
X149836673Y-103361564D01*
X149836677Y-103361564D01*
X149841837Y-103361753D01*
X149846957Y-103361097D01*
X149846959Y-103361097D01*
X150058288Y-103334025D01*
X150058289Y-103334025D01*
X150063416Y-103333368D01*
X150068366Y-103331883D01*
X150272429Y-103270661D01*
X150272434Y-103270659D01*
X150277384Y-103269174D01*
X150477994Y-103170896D01*
X150659860Y-103041173D01*
X150818096Y-102883489D01*
X150948453Y-102702077D01*
X150949776Y-102703028D01*
X150996645Y-102659857D01*
X151066580Y-102647625D01*
X151132026Y-102675144D01*
X151159875Y-102706994D01*
X151219987Y-102805088D01*
X151366250Y-102973938D01*
X151538126Y-103116632D01*
X151731000Y-103229338D01*
X151735825Y-103231180D01*
X151735826Y-103231181D01*
X151797673Y-103254798D01*
X151939692Y-103309030D01*
X151944760Y-103310061D01*
X151944763Y-103310062D01*
X152039862Y-103329410D01*
X152158597Y-103353567D01*
X152163772Y-103353757D01*
X152163774Y-103353757D01*
X152376673Y-103361564D01*
X152376677Y-103361564D01*
X152381837Y-103361753D01*
X152386957Y-103361097D01*
X152386959Y-103361097D01*
X152598288Y-103334025D01*
X152598289Y-103334025D01*
X152603416Y-103333368D01*
X152608366Y-103331883D01*
X152812429Y-103270661D01*
X152812434Y-103270659D01*
X152817384Y-103269174D01*
X153017994Y-103170896D01*
X153199860Y-103041173D01*
X153358096Y-102883489D01*
X153488453Y-102702077D01*
X153489776Y-102703028D01*
X153536645Y-102659857D01*
X153606580Y-102647625D01*
X153672026Y-102675144D01*
X153699875Y-102706994D01*
X153759987Y-102805088D01*
X153906250Y-102973938D01*
X154078126Y-103116632D01*
X154271000Y-103229338D01*
X154275825Y-103231180D01*
X154275826Y-103231181D01*
X154337673Y-103254798D01*
X154479692Y-103309030D01*
X154484760Y-103310061D01*
X154484763Y-103310062D01*
X154579862Y-103329410D01*
X154698597Y-103353567D01*
X154703772Y-103353757D01*
X154703774Y-103353757D01*
X154916673Y-103361564D01*
X154916677Y-103361564D01*
X154921837Y-103361753D01*
X154926957Y-103361097D01*
X154926959Y-103361097D01*
X155138288Y-103334025D01*
X155138289Y-103334025D01*
X155143416Y-103333368D01*
X155148366Y-103331883D01*
X155352429Y-103270661D01*
X155352434Y-103270659D01*
X155357384Y-103269174D01*
X155557994Y-103170896D01*
X155739860Y-103041173D01*
X155898096Y-102883489D01*
X156028453Y-102702077D01*
X156029776Y-102703028D01*
X156076645Y-102659857D01*
X156146580Y-102647625D01*
X156212026Y-102675144D01*
X156239875Y-102706994D01*
X156299987Y-102805088D01*
X156446250Y-102973938D01*
X156618126Y-103116632D01*
X156811000Y-103229338D01*
X156815825Y-103231180D01*
X156815826Y-103231181D01*
X156877673Y-103254798D01*
X157019692Y-103309030D01*
X157024760Y-103310061D01*
X157024763Y-103310062D01*
X157119862Y-103329410D01*
X157238597Y-103353567D01*
X157243772Y-103353757D01*
X157243774Y-103353757D01*
X157456673Y-103361564D01*
X157456677Y-103361564D01*
X157461837Y-103361753D01*
X157466957Y-103361097D01*
X157466959Y-103361097D01*
X157678288Y-103334025D01*
X157678289Y-103334025D01*
X157683416Y-103333368D01*
X157688366Y-103331883D01*
X157892429Y-103270661D01*
X157892434Y-103270659D01*
X157897384Y-103269174D01*
X158097994Y-103170896D01*
X158279860Y-103041173D01*
X158438096Y-102883489D01*
X158568453Y-102702077D01*
X158569776Y-102703028D01*
X158616645Y-102659857D01*
X158686580Y-102647625D01*
X158752026Y-102675144D01*
X158779875Y-102706994D01*
X158839987Y-102805088D01*
X158986250Y-102973938D01*
X159158126Y-103116632D01*
X159351000Y-103229338D01*
X159355825Y-103231180D01*
X159355826Y-103231181D01*
X159417673Y-103254798D01*
X159559692Y-103309030D01*
X159564760Y-103310061D01*
X159564763Y-103310062D01*
X159659862Y-103329410D01*
X159778597Y-103353567D01*
X159783772Y-103353757D01*
X159783774Y-103353757D01*
X159996673Y-103361564D01*
X159996677Y-103361564D01*
X160001837Y-103361753D01*
X160006957Y-103361097D01*
X160006959Y-103361097D01*
X160218288Y-103334025D01*
X160218289Y-103334025D01*
X160223416Y-103333368D01*
X160228366Y-103331883D01*
X160432429Y-103270661D01*
X160432434Y-103270659D01*
X160437384Y-103269174D01*
X160637994Y-103170896D01*
X160819860Y-103041173D01*
X160978096Y-102883489D01*
X161108453Y-102702077D01*
X161109776Y-102703028D01*
X161156645Y-102659857D01*
X161226580Y-102647625D01*
X161292026Y-102675144D01*
X161319875Y-102706994D01*
X161379987Y-102805088D01*
X161526250Y-102973938D01*
X161698126Y-103116632D01*
X161891000Y-103229338D01*
X161895825Y-103231180D01*
X161895826Y-103231181D01*
X161957673Y-103254798D01*
X162099692Y-103309030D01*
X162104760Y-103310061D01*
X162104763Y-103310062D01*
X162199862Y-103329410D01*
X162318597Y-103353567D01*
X162323772Y-103353757D01*
X162323774Y-103353757D01*
X162536673Y-103361564D01*
X162536677Y-103361564D01*
X162541837Y-103361753D01*
X162546957Y-103361097D01*
X162546959Y-103361097D01*
X162758288Y-103334025D01*
X162758289Y-103334025D01*
X162763416Y-103333368D01*
X162768366Y-103331883D01*
X162972429Y-103270661D01*
X162972434Y-103270659D01*
X162977384Y-103269174D01*
X163177994Y-103170896D01*
X163359860Y-103041173D01*
X163518096Y-102883489D01*
X163648453Y-102702077D01*
X163661995Y-102674678D01*
X163745136Y-102506453D01*
X163745137Y-102506451D01*
X163747430Y-102501811D01*
X163812370Y-102288069D01*
X163841529Y-102066590D01*
X163843156Y-102000000D01*
X163824852Y-101777361D01*
X163770431Y-101560702D01*
X163681354Y-101355840D01*
X163560014Y-101168277D01*
X163409670Y-101003051D01*
X163405619Y-100999852D01*
X163405615Y-100999848D01*
X163238414Y-100867800D01*
X163238410Y-100867798D01*
X163234359Y-100864598D01*
X163198028Y-100844542D01*
X163182136Y-100835769D01*
X163038789Y-100756638D01*
X163033624Y-100754809D01*
X163029285Y-100753272D01*
X162971750Y-100711677D01*
X162945835Y-100645579D01*
X162959770Y-100575964D01*
X163009129Y-100524933D01*
X163071347Y-100508500D01*
X171905500Y-100508500D01*
X171973621Y-100528502D01*
X172020114Y-100582158D01*
X172031500Y-100634500D01*
X172031500Y-126365500D01*
X172011498Y-126433621D01*
X171957842Y-126480114D01*
X171905500Y-126491500D01*
X163620226Y-126491500D01*
X163552105Y-126471498D01*
X163505612Y-126417842D01*
X163495508Y-126347568D01*
X163525002Y-126282988D01*
X163544661Y-126264674D01*
X163606080Y-126218643D01*
X163606081Y-126218642D01*
X163613261Y-126213261D01*
X163700615Y-126096705D01*
X163751745Y-125960316D01*
X163758500Y-125898134D01*
X163758500Y-124422670D01*
X169312160Y-124422670D01*
X169317887Y-124430320D01*
X169489042Y-124535205D01*
X169497837Y-124539687D01*
X169707988Y-124626734D01*
X169717373Y-124629783D01*
X169938554Y-124682885D01*
X169948301Y-124684428D01*
X170175070Y-124702275D01*
X170184930Y-124702275D01*
X170411699Y-124684428D01*
X170421446Y-124682885D01*
X170642627Y-124629783D01*
X170652012Y-124626734D01*
X170862163Y-124539687D01*
X170870958Y-124535205D01*
X171038445Y-124432568D01*
X171047907Y-124422110D01*
X171044124Y-124413334D01*
X170192812Y-123562022D01*
X170178868Y-123554408D01*
X170177035Y-123554539D01*
X170170420Y-123558790D01*
X169318920Y-124410290D01*
X169312160Y-124422670D01*
X163758500Y-124422670D01*
X163758500Y-124101866D01*
X163751745Y-124039684D01*
X163700615Y-123903295D01*
X163613261Y-123786739D01*
X163496705Y-123699385D01*
X163360316Y-123648255D01*
X163298134Y-123641500D01*
X161501866Y-123641500D01*
X161439684Y-123648255D01*
X161303295Y-123699385D01*
X161186739Y-123786739D01*
X161099385Y-123903295D01*
X161096233Y-123911703D01*
X161054919Y-124021907D01*
X161012277Y-124078671D01*
X160945716Y-124103371D01*
X160876367Y-124088163D01*
X160843743Y-124062476D01*
X160793151Y-124006875D01*
X160793142Y-124006866D01*
X160789670Y-124003051D01*
X160785619Y-123999852D01*
X160785615Y-123999848D01*
X160618414Y-123867800D01*
X160618410Y-123867798D01*
X160614359Y-123864598D01*
X160418789Y-123756638D01*
X160413920Y-123754914D01*
X160413916Y-123754912D01*
X160213087Y-123683795D01*
X160213083Y-123683794D01*
X160208212Y-123682069D01*
X160203119Y-123681162D01*
X160203116Y-123681161D01*
X159993373Y-123643800D01*
X159993367Y-123643799D01*
X159988284Y-123642894D01*
X159914452Y-123641992D01*
X159770081Y-123640228D01*
X159770079Y-123640228D01*
X159764911Y-123640165D01*
X159544091Y-123673955D01*
X159331756Y-123743357D01*
X159133607Y-123846507D01*
X159129474Y-123849610D01*
X159129471Y-123849612D01*
X158959100Y-123977530D01*
X158954965Y-123980635D01*
X158915525Y-124021907D01*
X158861280Y-124078671D01*
X158800629Y-124142138D01*
X158693201Y-124299621D01*
X158638293Y-124344621D01*
X158567768Y-124352792D01*
X158504021Y-124321538D01*
X158483324Y-124297054D01*
X158402822Y-124172617D01*
X158402820Y-124172614D01*
X158400014Y-124168277D01*
X158249670Y-124003051D01*
X158245619Y-123999852D01*
X158245615Y-123999848D01*
X158078414Y-123867800D01*
X158078410Y-123867798D01*
X158074359Y-123864598D01*
X157878789Y-123756638D01*
X157873920Y-123754914D01*
X157873916Y-123754912D01*
X157673087Y-123683795D01*
X157673083Y-123683794D01*
X157668212Y-123682069D01*
X157663119Y-123681162D01*
X157663116Y-123681161D01*
X157453373Y-123643800D01*
X157453367Y-123643799D01*
X157448284Y-123642894D01*
X157374452Y-123641992D01*
X157230081Y-123640228D01*
X157230079Y-123640228D01*
X157224911Y-123640165D01*
X157004091Y-123673955D01*
X156791756Y-123743357D01*
X156593607Y-123846507D01*
X156589474Y-123849610D01*
X156589471Y-123849612D01*
X156419100Y-123977530D01*
X156414965Y-123980635D01*
X156375525Y-124021907D01*
X156321280Y-124078671D01*
X156260629Y-124142138D01*
X156153201Y-124299621D01*
X156098293Y-124344621D01*
X156027768Y-124352792D01*
X155964021Y-124321538D01*
X155943324Y-124297054D01*
X155862822Y-124172617D01*
X155862820Y-124172614D01*
X155860014Y-124168277D01*
X155709670Y-124003051D01*
X155705619Y-123999852D01*
X155705615Y-123999848D01*
X155538414Y-123867800D01*
X155538410Y-123867798D01*
X155534359Y-123864598D01*
X155338789Y-123756638D01*
X155333920Y-123754914D01*
X155333916Y-123754912D01*
X155133087Y-123683795D01*
X155133083Y-123683794D01*
X155128212Y-123682069D01*
X155123119Y-123681162D01*
X155123116Y-123681161D01*
X154913373Y-123643800D01*
X154913367Y-123643799D01*
X154908284Y-123642894D01*
X154834452Y-123641992D01*
X154690081Y-123640228D01*
X154690079Y-123640228D01*
X154684911Y-123640165D01*
X154464091Y-123673955D01*
X154251756Y-123743357D01*
X154053607Y-123846507D01*
X154049474Y-123849610D01*
X154049471Y-123849612D01*
X153879100Y-123977530D01*
X153874965Y-123980635D01*
X153835525Y-124021907D01*
X153781280Y-124078671D01*
X153720629Y-124142138D01*
X153613201Y-124299621D01*
X153558293Y-124344621D01*
X153487768Y-124352792D01*
X153424021Y-124321538D01*
X153403324Y-124297054D01*
X153322822Y-124172617D01*
X153322820Y-124172614D01*
X153320014Y-124168277D01*
X153169670Y-124003051D01*
X153165619Y-123999852D01*
X153165615Y-123999848D01*
X152998414Y-123867800D01*
X152998410Y-123867798D01*
X152994359Y-123864598D01*
X152798789Y-123756638D01*
X152793920Y-123754914D01*
X152793916Y-123754912D01*
X152593087Y-123683795D01*
X152593083Y-123683794D01*
X152588212Y-123682069D01*
X152583119Y-123681162D01*
X152583116Y-123681161D01*
X152373373Y-123643800D01*
X152373367Y-123643799D01*
X152368284Y-123642894D01*
X152294452Y-123641992D01*
X152150081Y-123640228D01*
X152150079Y-123640228D01*
X152144911Y-123640165D01*
X151924091Y-123673955D01*
X151711756Y-123743357D01*
X151513607Y-123846507D01*
X151509474Y-123849610D01*
X151509471Y-123849612D01*
X151339100Y-123977530D01*
X151334965Y-123980635D01*
X151295525Y-124021907D01*
X151241280Y-124078671D01*
X151180629Y-124142138D01*
X151073201Y-124299621D01*
X151018293Y-124344621D01*
X150947768Y-124352792D01*
X150884021Y-124321538D01*
X150863324Y-124297054D01*
X150782822Y-124172617D01*
X150782820Y-124172614D01*
X150780014Y-124168277D01*
X150629670Y-124003051D01*
X150625619Y-123999852D01*
X150625615Y-123999848D01*
X150458414Y-123867800D01*
X150458410Y-123867798D01*
X150454359Y-123864598D01*
X150258789Y-123756638D01*
X150253920Y-123754914D01*
X150253916Y-123754912D01*
X150053087Y-123683795D01*
X150053083Y-123683794D01*
X150048212Y-123682069D01*
X150043119Y-123681162D01*
X150043116Y-123681161D01*
X149833373Y-123643800D01*
X149833367Y-123643799D01*
X149828284Y-123642894D01*
X149754452Y-123641992D01*
X149610081Y-123640228D01*
X149610079Y-123640228D01*
X149604911Y-123640165D01*
X149384091Y-123673955D01*
X149171756Y-123743357D01*
X148973607Y-123846507D01*
X148969474Y-123849610D01*
X148969471Y-123849612D01*
X148799100Y-123977530D01*
X148794965Y-123980635D01*
X148755525Y-124021907D01*
X148701280Y-124078671D01*
X148640629Y-124142138D01*
X148533201Y-124299621D01*
X148478293Y-124344621D01*
X148407768Y-124352792D01*
X148344021Y-124321538D01*
X148323324Y-124297054D01*
X148242822Y-124172617D01*
X148242820Y-124172614D01*
X148240014Y-124168277D01*
X148089670Y-124003051D01*
X148085619Y-123999852D01*
X148085615Y-123999848D01*
X147918414Y-123867800D01*
X147918410Y-123867798D01*
X147914359Y-123864598D01*
X147718789Y-123756638D01*
X147713920Y-123754914D01*
X147713916Y-123754912D01*
X147513087Y-123683795D01*
X147513083Y-123683794D01*
X147508212Y-123682069D01*
X147503119Y-123681162D01*
X147503116Y-123681161D01*
X147293373Y-123643800D01*
X147293367Y-123643799D01*
X147288284Y-123642894D01*
X147214452Y-123641992D01*
X147070081Y-123640228D01*
X147070079Y-123640228D01*
X147064911Y-123640165D01*
X146900059Y-123665391D01*
X146829698Y-123655923D01*
X146791906Y-123629936D01*
X146356900Y-123194930D01*
X168667725Y-123194930D01*
X168685572Y-123421699D01*
X168687115Y-123431446D01*
X168740217Y-123652627D01*
X168743266Y-123662012D01*
X168830313Y-123872163D01*
X168834795Y-123880958D01*
X168937432Y-124048445D01*
X168947890Y-124057907D01*
X168956666Y-124054124D01*
X169807978Y-123202812D01*
X169814356Y-123191132D01*
X170544408Y-123191132D01*
X170544539Y-123192965D01*
X170548790Y-123199580D01*
X171400290Y-124051080D01*
X171412670Y-124057840D01*
X171420320Y-124052113D01*
X171525205Y-123880958D01*
X171529687Y-123872163D01*
X171616734Y-123662012D01*
X171619783Y-123652627D01*
X171672885Y-123431446D01*
X171674428Y-123421699D01*
X171692275Y-123194930D01*
X171692275Y-123185070D01*
X171674428Y-122958301D01*
X171672885Y-122948554D01*
X171619783Y-122727373D01*
X171616734Y-122717988D01*
X171529687Y-122507837D01*
X171525205Y-122499042D01*
X171422568Y-122331555D01*
X171412110Y-122322093D01*
X171403334Y-122325876D01*
X170552022Y-123177188D01*
X170544408Y-123191132D01*
X169814356Y-123191132D01*
X169815592Y-123188868D01*
X169815461Y-123187035D01*
X169811210Y-123180420D01*
X168959710Y-122328920D01*
X168947330Y-122322160D01*
X168939680Y-122327887D01*
X168834795Y-122499042D01*
X168830313Y-122507837D01*
X168743266Y-122717988D01*
X168740217Y-122727373D01*
X168687115Y-122948554D01*
X168685572Y-122958301D01*
X168667725Y-123185070D01*
X168667725Y-123194930D01*
X146356900Y-123194930D01*
X144601450Y-121439480D01*
X144595596Y-121433215D01*
X144595201Y-121432762D01*
X144557561Y-121389615D01*
X144505280Y-121352871D01*
X144499986Y-121348939D01*
X144455693Y-121314209D01*
X144449718Y-121309524D01*
X144442802Y-121306401D01*
X144440516Y-121305017D01*
X144425835Y-121296643D01*
X144423475Y-121295378D01*
X144417261Y-121291010D01*
X144410182Y-121288250D01*
X144410180Y-121288249D01*
X144357725Y-121267798D01*
X144351656Y-121265247D01*
X144293427Y-121238955D01*
X144285960Y-121237571D01*
X144283405Y-121236770D01*
X144267152Y-121232141D01*
X144264572Y-121231478D01*
X144257491Y-121228718D01*
X144249960Y-121227727D01*
X144249958Y-121227726D01*
X144220339Y-121223827D01*
X144194139Y-121220378D01*
X144187641Y-121219348D01*
X144124814Y-121207704D01*
X144117234Y-121208141D01*
X144117233Y-121208141D01*
X144062608Y-121211291D01*
X144055354Y-121211500D01*
X109834500Y-121211500D01*
X109766379Y-121191498D01*
X109719886Y-121137842D01*
X109708500Y-121085500D01*
X109708500Y-120621866D01*
X109701745Y-120559684D01*
X109650615Y-120423295D01*
X109563261Y-120306739D01*
X109446705Y-120219385D01*
X109310316Y-120168255D01*
X109248134Y-120161500D01*
X106651866Y-120161500D01*
X106589684Y-120168255D01*
X106453295Y-120219385D01*
X106336739Y-120306739D01*
X106303517Y-120351067D01*
X106246658Y-120393580D01*
X106202692Y-120401500D01*
X103005606Y-120401500D01*
X102937485Y-120381498D01*
X102898174Y-120341335D01*
X102826765Y-120224807D01*
X102826758Y-120224797D01*
X102824176Y-120220584D01*
X102669969Y-120040031D01*
X102666213Y-120036823D01*
X102666208Y-120036818D01*
X102513384Y-119906294D01*
X102474574Y-119846844D01*
X102472360Y-119812442D01*
X102464123Y-119793333D01*
X101612812Y-118942022D01*
X101598868Y-118934408D01*
X101597035Y-118934539D01*
X101590420Y-118938790D01*
X100738920Y-119790290D01*
X100729740Y-119807102D01*
X100715980Y-119870350D01*
X100687224Y-119905775D01*
X100625120Y-119958817D01*
X100530031Y-120040031D01*
X100375824Y-120220584D01*
X100373245Y-120224792D01*
X100373241Y-120224798D01*
X100254710Y-120418223D01*
X100251760Y-120423037D01*
X100249867Y-120427607D01*
X100249865Y-120427611D01*
X100162789Y-120637833D01*
X100160895Y-120642406D01*
X100105465Y-120873289D01*
X100086835Y-121110000D01*
X100105465Y-121346711D01*
X100160895Y-121577594D01*
X100251760Y-121796963D01*
X100254346Y-121801183D01*
X100373241Y-121995202D01*
X100373245Y-121995208D01*
X100375824Y-121999416D01*
X100530031Y-122179969D01*
X100710584Y-122334176D01*
X100714792Y-122336755D01*
X100714798Y-122336759D01*
X100908817Y-122455654D01*
X100913037Y-122458240D01*
X100917607Y-122460133D01*
X100917611Y-122460135D01*
X101127833Y-122547211D01*
X101132406Y-122549105D01*
X101212609Y-122568360D01*
X101358476Y-122603380D01*
X101358482Y-122603381D01*
X101363289Y-122604535D01*
X101600000Y-122623165D01*
X101836711Y-122604535D01*
X101841518Y-122603381D01*
X101841524Y-122603380D01*
X101987391Y-122568360D01*
X102067594Y-122549105D01*
X102072167Y-122547211D01*
X102282389Y-122460135D01*
X102282393Y-122460133D01*
X102286963Y-122458240D01*
X102291183Y-122455654D01*
X102485202Y-122336759D01*
X102485208Y-122336755D01*
X102489416Y-122334176D01*
X102669969Y-122179969D01*
X102824176Y-121999416D01*
X102826758Y-121995202D01*
X102826765Y-121995193D01*
X102898174Y-121878665D01*
X102950821Y-121831034D01*
X103005606Y-121818500D01*
X106065500Y-121818500D01*
X106133621Y-121838502D01*
X106180114Y-121892158D01*
X106191500Y-121944500D01*
X106191500Y-123218134D01*
X106198255Y-123280316D01*
X106249385Y-123416705D01*
X106336739Y-123533261D01*
X106453295Y-123620615D01*
X106589684Y-123671745D01*
X106651866Y-123678500D01*
X109248134Y-123678500D01*
X109310316Y-123671745D01*
X109446705Y-123620615D01*
X109563261Y-123533261D01*
X109650615Y-123416705D01*
X109701745Y-123280316D01*
X109708500Y-123218134D01*
X109708500Y-122754500D01*
X109728502Y-122686379D01*
X109782158Y-122639886D01*
X109834500Y-122628500D01*
X143734340Y-122628500D01*
X143802461Y-122648502D01*
X143823435Y-122665405D01*
X144585930Y-123427900D01*
X144619956Y-123490212D01*
X144614891Y-123561027D01*
X144572344Y-123617863D01*
X144515895Y-123641545D01*
X144304091Y-123673955D01*
X144091756Y-123743357D01*
X143893607Y-123846507D01*
X143889474Y-123849610D01*
X143889471Y-123849612D01*
X143719100Y-123977530D01*
X143714965Y-123980635D01*
X143675525Y-124021907D01*
X143621280Y-124078671D01*
X143560629Y-124142138D01*
X143453201Y-124299621D01*
X143398293Y-124344621D01*
X143327768Y-124352792D01*
X143264021Y-124321538D01*
X143243324Y-124297054D01*
X143162822Y-124172617D01*
X143162820Y-124172614D01*
X143160014Y-124168277D01*
X143009670Y-124003051D01*
X143005619Y-123999852D01*
X143005615Y-123999848D01*
X142838414Y-123867800D01*
X142838410Y-123867798D01*
X142834359Y-123864598D01*
X142638789Y-123756638D01*
X142633920Y-123754914D01*
X142633916Y-123754912D01*
X142433087Y-123683795D01*
X142433083Y-123683794D01*
X142428212Y-123682069D01*
X142423119Y-123681162D01*
X142423116Y-123681161D01*
X142213373Y-123643800D01*
X142213367Y-123643799D01*
X142208284Y-123642894D01*
X142134452Y-123641992D01*
X141990081Y-123640228D01*
X141990079Y-123640228D01*
X141984911Y-123640165D01*
X141764091Y-123673955D01*
X141551756Y-123743357D01*
X141353607Y-123846507D01*
X141349474Y-123849610D01*
X141349471Y-123849612D01*
X141179100Y-123977530D01*
X141174965Y-123980635D01*
X141135525Y-124021907D01*
X141081280Y-124078671D01*
X141020629Y-124142138D01*
X140913201Y-124299621D01*
X140858293Y-124344621D01*
X140787768Y-124352792D01*
X140724021Y-124321538D01*
X140703324Y-124297054D01*
X140622822Y-124172617D01*
X140622820Y-124172614D01*
X140620014Y-124168277D01*
X140469670Y-124003051D01*
X140465619Y-123999852D01*
X140465615Y-123999848D01*
X140298414Y-123867800D01*
X140298410Y-123867798D01*
X140294359Y-123864598D01*
X140098789Y-123756638D01*
X140093920Y-123754914D01*
X140093916Y-123754912D01*
X139893087Y-123683795D01*
X139893083Y-123683794D01*
X139888212Y-123682069D01*
X139883119Y-123681162D01*
X139883116Y-123681161D01*
X139673373Y-123643800D01*
X139673367Y-123643799D01*
X139668284Y-123642894D01*
X139594452Y-123641992D01*
X139450081Y-123640228D01*
X139450079Y-123640228D01*
X139444911Y-123640165D01*
X139224091Y-123673955D01*
X139011756Y-123743357D01*
X138813607Y-123846507D01*
X138809474Y-123849610D01*
X138809471Y-123849612D01*
X138639100Y-123977530D01*
X138634965Y-123980635D01*
X138595525Y-124021907D01*
X138541280Y-124078671D01*
X138480629Y-124142138D01*
X138373201Y-124299621D01*
X138318293Y-124344621D01*
X138247768Y-124352792D01*
X138184021Y-124321538D01*
X138163324Y-124297054D01*
X138082822Y-124172617D01*
X138082820Y-124172614D01*
X138080014Y-124168277D01*
X137929670Y-124003051D01*
X137925619Y-123999852D01*
X137925615Y-123999848D01*
X137758414Y-123867800D01*
X137758410Y-123867798D01*
X137754359Y-123864598D01*
X137558789Y-123756638D01*
X137553920Y-123754914D01*
X137553916Y-123754912D01*
X137353087Y-123683795D01*
X137353083Y-123683794D01*
X137348212Y-123682069D01*
X137343119Y-123681162D01*
X137343116Y-123681161D01*
X137133373Y-123643800D01*
X137133367Y-123643799D01*
X137128284Y-123642894D01*
X137054452Y-123641992D01*
X136910081Y-123640228D01*
X136910079Y-123640228D01*
X136904911Y-123640165D01*
X136684091Y-123673955D01*
X136471756Y-123743357D01*
X136273607Y-123846507D01*
X136269474Y-123849610D01*
X136269471Y-123849612D01*
X136099100Y-123977530D01*
X136094965Y-123980635D01*
X136055525Y-124021907D01*
X136001280Y-124078671D01*
X135940629Y-124142138D01*
X135833201Y-124299621D01*
X135778293Y-124344621D01*
X135707768Y-124352792D01*
X135644021Y-124321538D01*
X135623324Y-124297054D01*
X135542822Y-124172617D01*
X135542820Y-124172614D01*
X135540014Y-124168277D01*
X135389670Y-124003051D01*
X135385619Y-123999852D01*
X135385615Y-123999848D01*
X135218414Y-123867800D01*
X135218410Y-123867798D01*
X135214359Y-123864598D01*
X135018789Y-123756638D01*
X135013920Y-123754914D01*
X135013916Y-123754912D01*
X134813087Y-123683795D01*
X134813083Y-123683794D01*
X134808212Y-123682069D01*
X134803119Y-123681162D01*
X134803116Y-123681161D01*
X134593373Y-123643800D01*
X134593367Y-123643799D01*
X134588284Y-123642894D01*
X134514452Y-123641992D01*
X134370081Y-123640228D01*
X134370079Y-123640228D01*
X134364911Y-123640165D01*
X134144091Y-123673955D01*
X133931756Y-123743357D01*
X133733607Y-123846507D01*
X133729474Y-123849610D01*
X133729471Y-123849612D01*
X133559100Y-123977530D01*
X133554965Y-123980635D01*
X133515525Y-124021907D01*
X133461280Y-124078671D01*
X133400629Y-124142138D01*
X133293201Y-124299621D01*
X133238293Y-124344621D01*
X133167768Y-124352792D01*
X133104021Y-124321538D01*
X133083324Y-124297054D01*
X133002822Y-124172617D01*
X133002820Y-124172614D01*
X133000014Y-124168277D01*
X132849670Y-124003051D01*
X132845619Y-123999852D01*
X132845615Y-123999848D01*
X132678414Y-123867800D01*
X132678410Y-123867798D01*
X132674359Y-123864598D01*
X132478789Y-123756638D01*
X132473920Y-123754914D01*
X132473916Y-123754912D01*
X132273087Y-123683795D01*
X132273083Y-123683794D01*
X132268212Y-123682069D01*
X132263119Y-123681162D01*
X132263116Y-123681161D01*
X132053373Y-123643800D01*
X132053367Y-123643799D01*
X132048284Y-123642894D01*
X131974452Y-123641992D01*
X131830081Y-123640228D01*
X131830079Y-123640228D01*
X131824911Y-123640165D01*
X131604091Y-123673955D01*
X131391756Y-123743357D01*
X131193607Y-123846507D01*
X131189474Y-123849610D01*
X131189471Y-123849612D01*
X131019100Y-123977530D01*
X131014965Y-123980635D01*
X130975525Y-124021907D01*
X130921280Y-124078671D01*
X130860629Y-124142138D01*
X130734743Y-124326680D01*
X130640688Y-124529305D01*
X130580989Y-124744570D01*
X130557251Y-124966695D01*
X130570110Y-125189715D01*
X130571247Y-125194761D01*
X130571248Y-125194767D01*
X130595304Y-125301508D01*
X130619222Y-125407639D01*
X130703266Y-125614616D01*
X130740685Y-125675678D01*
X130817291Y-125800688D01*
X130819987Y-125805088D01*
X130966250Y-125973938D01*
X131138126Y-126116632D01*
X131331000Y-126229338D01*
X131335825Y-126231180D01*
X131335826Y-126231181D01*
X131379321Y-126247790D01*
X131435824Y-126290778D01*
X131460117Y-126357489D01*
X131444487Y-126426743D01*
X131393896Y-126476554D01*
X131334372Y-126491500D01*
X99364500Y-126491500D01*
X99296379Y-126471498D01*
X99249886Y-126417842D01*
X99238500Y-126365500D01*
X99238500Y-118574930D01*
X100087725Y-118574930D01*
X100105572Y-118801699D01*
X100107115Y-118811446D01*
X100160217Y-119032627D01*
X100163266Y-119042012D01*
X100250313Y-119252163D01*
X100254795Y-119260958D01*
X100357432Y-119428445D01*
X100367890Y-119437907D01*
X100376666Y-119434124D01*
X101227978Y-118582812D01*
X101234356Y-118571132D01*
X101964408Y-118571132D01*
X101964539Y-118572965D01*
X101968790Y-118579580D01*
X102820290Y-119431080D01*
X102832670Y-119437840D01*
X102840320Y-119432113D01*
X102857138Y-119404669D01*
X106192001Y-119404669D01*
X106192371Y-119411490D01*
X106197895Y-119462352D01*
X106201521Y-119477604D01*
X106246676Y-119598054D01*
X106255214Y-119613649D01*
X106331715Y-119715724D01*
X106344276Y-119728285D01*
X106446351Y-119804786D01*
X106461946Y-119813324D01*
X106582394Y-119858478D01*
X106597649Y-119862105D01*
X106648514Y-119867631D01*
X106655328Y-119868000D01*
X107677885Y-119868000D01*
X107693124Y-119863525D01*
X107694329Y-119862135D01*
X107696000Y-119854452D01*
X107696000Y-119849884D01*
X108204000Y-119849884D01*
X108208475Y-119865123D01*
X108209865Y-119866328D01*
X108217548Y-119867999D01*
X109244669Y-119867999D01*
X109251490Y-119867629D01*
X109302352Y-119862105D01*
X109317604Y-119858479D01*
X109438054Y-119813324D01*
X109453649Y-119804786D01*
X109555724Y-119728285D01*
X109568285Y-119715724D01*
X109644786Y-119613649D01*
X109653324Y-119598054D01*
X109698478Y-119477606D01*
X109702105Y-119462351D01*
X109707631Y-119411486D01*
X109708000Y-119404672D01*
X109708000Y-119380000D01*
X135846502Y-119380000D01*
X135866457Y-119608087D01*
X135867881Y-119613400D01*
X135867881Y-119613402D01*
X135906312Y-119756825D01*
X135925716Y-119829243D01*
X135928039Y-119834224D01*
X135928039Y-119834225D01*
X136020151Y-120031762D01*
X136020154Y-120031767D01*
X136022477Y-120036749D01*
X136153802Y-120224300D01*
X136315700Y-120386198D01*
X136320208Y-120389355D01*
X136320211Y-120389357D01*
X136368311Y-120423037D01*
X136503251Y-120517523D01*
X136508233Y-120519846D01*
X136508238Y-120519849D01*
X136705775Y-120611961D01*
X136710757Y-120614284D01*
X136716065Y-120615706D01*
X136716067Y-120615707D01*
X136926598Y-120672119D01*
X136926600Y-120672119D01*
X136931913Y-120673543D01*
X137160000Y-120693498D01*
X137388087Y-120673543D01*
X137393400Y-120672119D01*
X137393402Y-120672119D01*
X137603933Y-120615707D01*
X137603935Y-120615706D01*
X137609243Y-120614284D01*
X137614225Y-120611961D01*
X137811762Y-120519849D01*
X137811767Y-120519846D01*
X137816749Y-120517523D01*
X137951689Y-120423037D01*
X137999789Y-120389357D01*
X137999792Y-120389355D01*
X138004300Y-120386198D01*
X138166198Y-120224300D01*
X138297523Y-120036749D01*
X138299846Y-120031767D01*
X138299849Y-120031762D01*
X138391961Y-119834225D01*
X138391961Y-119834224D01*
X138394284Y-119829243D01*
X138413689Y-119756825D01*
X138452119Y-119613402D01*
X138452119Y-119613400D01*
X138453543Y-119608087D01*
X138473498Y-119380000D01*
X146006502Y-119380000D01*
X146026457Y-119608087D01*
X146027881Y-119613400D01*
X146027881Y-119613402D01*
X146066312Y-119756825D01*
X146085716Y-119829243D01*
X146088039Y-119834224D01*
X146088039Y-119834225D01*
X146180151Y-120031762D01*
X146180154Y-120031767D01*
X146182477Y-120036749D01*
X146313802Y-120224300D01*
X146475700Y-120386198D01*
X146480208Y-120389355D01*
X146480211Y-120389357D01*
X146528311Y-120423037D01*
X146663251Y-120517523D01*
X146668233Y-120519846D01*
X146668238Y-120519849D01*
X146865775Y-120611961D01*
X146870757Y-120614284D01*
X146876065Y-120615706D01*
X146876067Y-120615707D01*
X147086598Y-120672119D01*
X147086600Y-120672119D01*
X147091913Y-120673543D01*
X147320000Y-120693498D01*
X147548087Y-120673543D01*
X147553400Y-120672119D01*
X147553402Y-120672119D01*
X147763933Y-120615707D01*
X147763935Y-120615706D01*
X147769243Y-120614284D01*
X147774225Y-120611961D01*
X147971762Y-120519849D01*
X147971767Y-120519846D01*
X147976749Y-120517523D01*
X148111689Y-120423037D01*
X148159789Y-120389357D01*
X148159792Y-120389355D01*
X148164300Y-120386198D01*
X148326198Y-120224300D01*
X148457523Y-120036749D01*
X148459846Y-120031767D01*
X148459849Y-120031762D01*
X148551961Y-119834225D01*
X148551961Y-119834224D01*
X148554284Y-119829243D01*
X148573689Y-119756825D01*
X148612119Y-119613402D01*
X148612119Y-119613400D01*
X148613543Y-119608087D01*
X148633498Y-119380000D01*
X148613543Y-119151913D01*
X148581580Y-119032627D01*
X148555707Y-118936067D01*
X148555706Y-118936065D01*
X148554284Y-118930757D01*
X148494104Y-118801699D01*
X148459849Y-118728238D01*
X148459846Y-118728233D01*
X148457523Y-118723251D01*
X148353667Y-118574930D01*
X148329357Y-118540211D01*
X148329355Y-118540208D01*
X148326198Y-118535700D01*
X148164300Y-118373802D01*
X148159792Y-118370645D01*
X148159789Y-118370643D01*
X148081611Y-118315902D01*
X147976749Y-118242477D01*
X147971767Y-118240154D01*
X147971762Y-118240151D01*
X147774225Y-118148039D01*
X147774224Y-118148039D01*
X147769243Y-118145716D01*
X147763935Y-118144294D01*
X147763933Y-118144293D01*
X147553402Y-118087881D01*
X147553400Y-118087881D01*
X147548087Y-118086457D01*
X147320000Y-118066502D01*
X147091913Y-118086457D01*
X147086600Y-118087881D01*
X147086598Y-118087881D01*
X146876067Y-118144293D01*
X146876065Y-118144294D01*
X146870757Y-118145716D01*
X146865776Y-118148039D01*
X146865775Y-118148039D01*
X146668238Y-118240151D01*
X146668233Y-118240154D01*
X146663251Y-118242477D01*
X146558389Y-118315902D01*
X146480211Y-118370643D01*
X146480208Y-118370645D01*
X146475700Y-118373802D01*
X146313802Y-118535700D01*
X146310645Y-118540208D01*
X146310643Y-118540211D01*
X146286333Y-118574930D01*
X146182477Y-118723251D01*
X146180154Y-118728233D01*
X146180151Y-118728238D01*
X146145896Y-118801699D01*
X146085716Y-118930757D01*
X146084294Y-118936065D01*
X146084293Y-118936067D01*
X146058420Y-119032627D01*
X146026457Y-119151913D01*
X146006502Y-119380000D01*
X138473498Y-119380000D01*
X138453543Y-119151913D01*
X138421580Y-119032627D01*
X138395707Y-118936067D01*
X138395706Y-118936065D01*
X138394284Y-118930757D01*
X138334104Y-118801699D01*
X138299849Y-118728238D01*
X138299846Y-118728233D01*
X138297523Y-118723251D01*
X138193667Y-118574930D01*
X138169357Y-118540211D01*
X138169355Y-118540208D01*
X138166198Y-118535700D01*
X138004300Y-118373802D01*
X137999792Y-118370645D01*
X137999789Y-118370643D01*
X137921611Y-118315902D01*
X137816749Y-118242477D01*
X137811767Y-118240154D01*
X137811762Y-118240151D01*
X137614225Y-118148039D01*
X137614224Y-118148039D01*
X137609243Y-118145716D01*
X137603935Y-118144294D01*
X137603933Y-118144293D01*
X137393402Y-118087881D01*
X137393400Y-118087881D01*
X137388087Y-118086457D01*
X137160000Y-118066502D01*
X136931913Y-118086457D01*
X136926600Y-118087881D01*
X136926598Y-118087881D01*
X136716067Y-118144293D01*
X136716065Y-118144294D01*
X136710757Y-118145716D01*
X136705776Y-118148039D01*
X136705775Y-118148039D01*
X136508238Y-118240151D01*
X136508233Y-118240154D01*
X136503251Y-118242477D01*
X136398389Y-118315902D01*
X136320211Y-118370643D01*
X136320208Y-118370645D01*
X136315700Y-118373802D01*
X136153802Y-118535700D01*
X136150645Y-118540208D01*
X136150643Y-118540211D01*
X136126333Y-118574930D01*
X136022477Y-118723251D01*
X136020154Y-118728233D01*
X136020151Y-118728238D01*
X135985896Y-118801699D01*
X135925716Y-118930757D01*
X135924294Y-118936065D01*
X135924293Y-118936067D01*
X135898420Y-119032627D01*
X135866457Y-119151913D01*
X135846502Y-119380000D01*
X109708000Y-119380000D01*
X109708000Y-118382115D01*
X109703525Y-118366876D01*
X109702135Y-118365671D01*
X109694452Y-118364000D01*
X108222115Y-118364000D01*
X108206876Y-118368475D01*
X108205671Y-118369865D01*
X108204000Y-118377548D01*
X108204000Y-119849884D01*
X107696000Y-119849884D01*
X107696000Y-118382115D01*
X107691525Y-118366876D01*
X107690135Y-118365671D01*
X107682452Y-118364000D01*
X106210116Y-118364000D01*
X106194877Y-118368475D01*
X106193672Y-118369865D01*
X106192001Y-118377548D01*
X106192001Y-119404669D01*
X102857138Y-119404669D01*
X102945205Y-119260958D01*
X102949687Y-119252163D01*
X103036734Y-119042012D01*
X103039783Y-119032627D01*
X103092885Y-118811446D01*
X103094428Y-118801699D01*
X103112275Y-118574930D01*
X103112275Y-118565070D01*
X103094428Y-118338301D01*
X103092885Y-118328554D01*
X103039783Y-118107373D01*
X103036734Y-118097988D01*
X102949687Y-117887837D01*
X102945205Y-117879042D01*
X102919984Y-117837885D01*
X106192000Y-117837885D01*
X106196475Y-117853124D01*
X106197865Y-117854329D01*
X106205548Y-117856000D01*
X107677885Y-117856000D01*
X107693124Y-117851525D01*
X107694329Y-117850135D01*
X107696000Y-117842452D01*
X107696000Y-117837885D01*
X108204000Y-117837885D01*
X108208475Y-117853124D01*
X108209865Y-117854329D01*
X108217548Y-117856000D01*
X109689884Y-117856000D01*
X109705123Y-117851525D01*
X109706328Y-117850135D01*
X109707999Y-117842452D01*
X109707999Y-116815331D01*
X109707629Y-116808510D01*
X109702105Y-116757648D01*
X109698479Y-116742396D01*
X109653324Y-116621946D01*
X109644786Y-116606351D01*
X109568285Y-116504276D01*
X109555724Y-116491715D01*
X109453649Y-116415214D01*
X109438054Y-116406676D01*
X109317606Y-116361522D01*
X109302351Y-116357895D01*
X109251486Y-116352369D01*
X109244672Y-116352000D01*
X108222115Y-116352000D01*
X108206876Y-116356475D01*
X108205671Y-116357865D01*
X108204000Y-116365548D01*
X108204000Y-117837885D01*
X107696000Y-117837885D01*
X107696000Y-116370116D01*
X107691525Y-116354877D01*
X107690135Y-116353672D01*
X107682452Y-116352001D01*
X106655331Y-116352001D01*
X106648510Y-116352371D01*
X106597648Y-116357895D01*
X106582396Y-116361521D01*
X106461946Y-116406676D01*
X106446351Y-116415214D01*
X106344276Y-116491715D01*
X106331715Y-116504276D01*
X106255214Y-116606351D01*
X106246676Y-116621946D01*
X106201522Y-116742394D01*
X106197895Y-116757649D01*
X106192369Y-116808514D01*
X106192000Y-116815328D01*
X106192000Y-117837885D01*
X102919984Y-117837885D01*
X102842568Y-117711555D01*
X102832110Y-117702093D01*
X102823334Y-117705876D01*
X101972022Y-118557188D01*
X101964408Y-118571132D01*
X101234356Y-118571132D01*
X101235592Y-118568868D01*
X101235461Y-118567035D01*
X101231210Y-118560420D01*
X100379710Y-117708920D01*
X100367330Y-117702160D01*
X100359680Y-117707887D01*
X100254795Y-117879042D01*
X100250313Y-117887837D01*
X100163266Y-118097988D01*
X100160217Y-118107373D01*
X100107115Y-118328554D01*
X100105572Y-118338301D01*
X100087725Y-118565070D01*
X100087725Y-118574930D01*
X99238500Y-118574930D01*
X99238500Y-117337890D01*
X100732093Y-117337890D01*
X100735876Y-117346666D01*
X101587188Y-118197978D01*
X101601132Y-118205592D01*
X101602965Y-118205461D01*
X101609580Y-118201210D01*
X102461080Y-117349710D01*
X102467840Y-117337330D01*
X102462113Y-117329680D01*
X102290958Y-117224795D01*
X102282163Y-117220313D01*
X102072012Y-117133266D01*
X102062627Y-117130217D01*
X101841446Y-117077115D01*
X101831699Y-117075572D01*
X101604930Y-117057725D01*
X101595070Y-117057725D01*
X101368301Y-117075572D01*
X101358554Y-117077115D01*
X101137373Y-117130217D01*
X101127988Y-117133266D01*
X100917837Y-117220313D01*
X100909042Y-117224795D01*
X100741555Y-117327432D01*
X100732093Y-117337890D01*
X99238500Y-117337890D01*
X99238500Y-115482670D01*
X108352160Y-115482670D01*
X108357887Y-115490320D01*
X108529042Y-115595205D01*
X108537837Y-115599687D01*
X108747988Y-115686734D01*
X108757373Y-115689783D01*
X108978554Y-115742885D01*
X108988301Y-115744428D01*
X109215070Y-115762275D01*
X109224930Y-115762275D01*
X109451699Y-115744428D01*
X109461446Y-115742885D01*
X109682627Y-115689783D01*
X109692012Y-115686734D01*
X109902163Y-115599687D01*
X109910958Y-115595205D01*
X110078445Y-115492568D01*
X110087907Y-115482110D01*
X110084124Y-115473334D01*
X109232812Y-114622022D01*
X109218868Y-114614408D01*
X109217035Y-114614539D01*
X109210420Y-114618790D01*
X108358920Y-115470290D01*
X108352160Y-115482670D01*
X99238500Y-115482670D01*
X99238500Y-113041695D01*
X100262251Y-113041695D01*
X100262548Y-113046848D01*
X100262548Y-113046851D01*
X100271566Y-113203256D01*
X100275110Y-113264715D01*
X100276247Y-113269761D01*
X100276248Y-113269767D01*
X100289551Y-113328796D01*
X100324222Y-113482639D01*
X100408266Y-113689616D01*
X100524987Y-113880088D01*
X100671250Y-114048938D01*
X100843126Y-114191632D01*
X101036000Y-114304338D01*
X101244692Y-114384030D01*
X101249760Y-114385061D01*
X101249763Y-114385062D01*
X101357017Y-114406883D01*
X101463597Y-114428567D01*
X101468772Y-114428757D01*
X101468774Y-114428757D01*
X101681673Y-114436564D01*
X101681677Y-114436564D01*
X101686837Y-114436753D01*
X101691957Y-114436097D01*
X101691959Y-114436097D01*
X101903288Y-114409025D01*
X101903289Y-114409025D01*
X101908416Y-114408368D01*
X101943924Y-114397715D01*
X102117429Y-114345661D01*
X102117434Y-114345659D01*
X102122384Y-114344174D01*
X102304553Y-114254930D01*
X107707725Y-114254930D01*
X107725572Y-114481699D01*
X107727115Y-114491446D01*
X107780217Y-114712627D01*
X107783266Y-114722012D01*
X107870313Y-114932163D01*
X107874795Y-114940958D01*
X107977432Y-115108445D01*
X107987890Y-115117907D01*
X107996666Y-115114124D01*
X108847978Y-114262812D01*
X108854356Y-114251132D01*
X109584408Y-114251132D01*
X109584539Y-114252965D01*
X109588790Y-114259580D01*
X110440290Y-115111080D01*
X110452670Y-115117840D01*
X110460320Y-115112113D01*
X110565205Y-114940958D01*
X110569687Y-114932163D01*
X110656734Y-114722012D01*
X110659783Y-114712627D01*
X110712885Y-114491446D01*
X110714428Y-114481699D01*
X110732275Y-114254930D01*
X110732275Y-114245070D01*
X110714428Y-114018301D01*
X110712885Y-114008554D01*
X110659783Y-113787373D01*
X110656734Y-113777988D01*
X110569687Y-113567837D01*
X110565205Y-113559042D01*
X110462568Y-113391555D01*
X110452110Y-113382093D01*
X110443334Y-113385876D01*
X109592022Y-114237188D01*
X109584408Y-114251132D01*
X108854356Y-114251132D01*
X108855592Y-114248868D01*
X108855461Y-114247035D01*
X108851210Y-114240420D01*
X107999710Y-113388920D01*
X107987330Y-113382160D01*
X107979680Y-113387887D01*
X107874795Y-113559042D01*
X107870313Y-113567837D01*
X107783266Y-113777988D01*
X107780217Y-113787373D01*
X107727115Y-114008554D01*
X107725572Y-114018301D01*
X107707725Y-114245070D01*
X107707725Y-114254930D01*
X102304553Y-114254930D01*
X102322994Y-114245896D01*
X102504860Y-114116173D01*
X102517897Y-114103182D01*
X102659435Y-113962137D01*
X102663096Y-113958489D01*
X102722594Y-113875689D01*
X102790435Y-113781277D01*
X102793453Y-113777077D01*
X102821078Y-113721183D01*
X102890136Y-113581453D01*
X102890137Y-113581451D01*
X102892430Y-113576811D01*
X102951590Y-113382093D01*
X102955865Y-113368023D01*
X102955865Y-113368021D01*
X102957370Y-113363069D01*
X102986529Y-113141590D01*
X102988156Y-113075000D01*
X102969852Y-112852361D01*
X102915431Y-112635702D01*
X102826354Y-112430840D01*
X102766589Y-112338458D01*
X102707822Y-112247617D01*
X102707820Y-112247614D01*
X102705014Y-112243277D01*
X102554670Y-112078051D01*
X102550619Y-112074852D01*
X102550615Y-112074848D01*
X102383414Y-111942800D01*
X102383410Y-111942798D01*
X102379359Y-111939598D01*
X102338053Y-111916796D01*
X102288084Y-111866364D01*
X102273312Y-111796921D01*
X102298428Y-111730516D01*
X102325780Y-111703909D01*
X102384135Y-111662285D01*
X102504860Y-111576173D01*
X102544552Y-111536620D01*
X102659435Y-111422137D01*
X102663096Y-111418489D01*
X102668220Y-111411358D01*
X102679276Y-111395973D01*
X102735271Y-111352326D01*
X102781598Y-111343500D01*
X107599373Y-111343500D01*
X107667494Y-111363502D01*
X107713987Y-111417158D01*
X107724985Y-111479386D01*
X107709538Y-111675657D01*
X107706835Y-111710000D01*
X107725465Y-111946711D01*
X107726619Y-111951518D01*
X107726620Y-111951524D01*
X107750870Y-112052530D01*
X107780895Y-112177594D01*
X107782788Y-112182165D01*
X107782789Y-112182167D01*
X107863083Y-112376014D01*
X107871760Y-112396963D01*
X107874346Y-112401183D01*
X107993241Y-112595202D01*
X107993245Y-112595208D01*
X107995824Y-112599416D01*
X108150031Y-112779969D01*
X108153787Y-112783177D01*
X108153792Y-112783182D01*
X108306616Y-112913706D01*
X108345426Y-112973156D01*
X108347640Y-113007558D01*
X108355877Y-113026667D01*
X109207188Y-113877978D01*
X109221132Y-113885592D01*
X109222965Y-113885461D01*
X109229580Y-113881210D01*
X110081080Y-113029710D01*
X110090260Y-113012898D01*
X110104020Y-112949650D01*
X110132776Y-112914225D01*
X110286213Y-112783177D01*
X110289969Y-112779969D01*
X110444176Y-112599416D01*
X110446755Y-112595208D01*
X110446759Y-112595202D01*
X110565654Y-112401183D01*
X110568240Y-112396963D01*
X110576918Y-112376014D01*
X110657211Y-112182167D01*
X110657212Y-112182165D01*
X110659105Y-112177594D01*
X110689130Y-112052530D01*
X110713380Y-111951524D01*
X110713381Y-111951518D01*
X110714535Y-111946711D01*
X110733165Y-111710000D01*
X110714535Y-111473289D01*
X110702683Y-111423919D01*
X110672572Y-111298500D01*
X110659105Y-111242406D01*
X110657211Y-111237833D01*
X110570135Y-111027611D01*
X110570133Y-111027607D01*
X110568240Y-111023037D01*
X110518972Y-110942639D01*
X110446759Y-110824798D01*
X110446755Y-110824792D01*
X110444176Y-110820584D01*
X110289969Y-110640031D01*
X110109416Y-110485824D01*
X110105208Y-110483245D01*
X110105202Y-110483241D01*
X109911183Y-110364346D01*
X109906963Y-110361760D01*
X109902393Y-110359867D01*
X109902389Y-110359865D01*
X109692167Y-110272789D01*
X109692165Y-110272788D01*
X109687594Y-110270895D01*
X109607391Y-110251640D01*
X109461524Y-110216620D01*
X109461518Y-110216619D01*
X109456711Y-110215465D01*
X109220000Y-110196835D01*
X108983289Y-110215465D01*
X108959626Y-110221146D01*
X108888719Y-110217601D01*
X108841115Y-110187723D01*
X108623234Y-109969842D01*
X108622306Y-109968905D01*
X108564157Y-109909525D01*
X108564156Y-109909524D01*
X108559229Y-109904493D01*
X108522779Y-109881002D01*
X108512454Y-109873583D01*
X108478557Y-109846524D01*
X108448362Y-109831927D01*
X108434945Y-109824398D01*
X108406762Y-109806235D01*
X108400145Y-109803827D01*
X108400140Y-109803824D01*
X108366027Y-109791408D01*
X108354284Y-109786447D01*
X108321597Y-109770646D01*
X108321592Y-109770644D01*
X108315251Y-109767579D01*
X108308393Y-109765996D01*
X108308391Y-109765995D01*
X108282574Y-109760035D01*
X108267831Y-109755668D01*
X108236315Y-109744197D01*
X108229325Y-109743314D01*
X108229317Y-109743312D01*
X108193299Y-109738762D01*
X108180747Y-109736526D01*
X108145386Y-109728362D01*
X108145383Y-109728362D01*
X108138515Y-109726776D01*
X108131469Y-109726751D01*
X108131466Y-109726751D01*
X108097944Y-109726634D01*
X108097062Y-109726605D01*
X108096231Y-109726500D01*
X108059581Y-109726500D01*
X108059141Y-109726499D01*
X107960657Y-109726155D01*
X107960652Y-109726155D01*
X107957130Y-109726143D01*
X107955930Y-109726411D01*
X107954293Y-109726500D01*
X102781850Y-109726500D01*
X102713729Y-109706498D01*
X102688657Y-109685300D01*
X102557798Y-109541488D01*
X102526746Y-109477642D01*
X102535141Y-109407143D01*
X102580317Y-109352375D01*
X102606761Y-109338706D01*
X102713297Y-109298767D01*
X102721705Y-109295615D01*
X102838261Y-109208261D01*
X102925615Y-109091705D01*
X102976745Y-108955316D01*
X102981028Y-108915892D01*
X103008270Y-108850330D01*
X103066634Y-108809904D01*
X103106291Y-108803500D01*
X110147918Y-108803500D01*
X110216039Y-108823502D01*
X110237013Y-108840405D01*
X112184595Y-110787987D01*
X112218621Y-110850299D01*
X112221500Y-110877082D01*
X112221500Y-113020786D01*
X112221493Y-113022106D01*
X112220549Y-113112221D01*
X112229711Y-113154597D01*
X112231769Y-113167163D01*
X112236603Y-113210255D01*
X112238919Y-113216906D01*
X112238920Y-113216910D01*
X112247633Y-113241930D01*
X112251796Y-113256742D01*
X112253952Y-113266711D01*
X112258881Y-113289510D01*
X112277208Y-113328813D01*
X112281990Y-113340589D01*
X112296255Y-113381552D01*
X112299989Y-113387527D01*
X112299990Y-113387530D01*
X112314027Y-113409995D01*
X112321366Y-113423512D01*
X112332559Y-113447514D01*
X112335538Y-113453902D01*
X112339855Y-113459467D01*
X112339856Y-113459469D01*
X112362106Y-113488153D01*
X112369402Y-113498612D01*
X112392374Y-113535376D01*
X112397334Y-113540371D01*
X112397335Y-113540372D01*
X112420976Y-113564179D01*
X112421561Y-113564804D01*
X112422078Y-113565470D01*
X112448068Y-113591460D01*
X112520185Y-113664082D01*
X112521222Y-113664740D01*
X112522451Y-113665843D01*
X114991766Y-116135158D01*
X114992694Y-116136095D01*
X115055771Y-116200507D01*
X115092221Y-116223998D01*
X115102546Y-116231417D01*
X115136443Y-116258476D01*
X115142782Y-116261540D01*
X115142786Y-116261543D01*
X115166638Y-116273074D01*
X115180051Y-116280601D01*
X115202313Y-116294947D01*
X115202316Y-116294948D01*
X115208238Y-116298765D01*
X115214857Y-116301174D01*
X115214861Y-116301176D01*
X115248973Y-116313592D01*
X115260717Y-116318553D01*
X115293399Y-116334352D01*
X115293401Y-116334353D01*
X115299748Y-116337421D01*
X115316683Y-116341331D01*
X115332427Y-116344966D01*
X115347168Y-116349332D01*
X115378685Y-116360803D01*
X115385671Y-116361685D01*
X115385677Y-116361687D01*
X115421701Y-116366238D01*
X115434253Y-116368474D01*
X115469614Y-116376638D01*
X115469617Y-116376638D01*
X115476485Y-116378224D01*
X115483531Y-116378249D01*
X115483534Y-116378249D01*
X115517056Y-116378366D01*
X115517938Y-116378395D01*
X115518769Y-116378500D01*
X115555419Y-116378500D01*
X115555859Y-116378501D01*
X115654343Y-116378845D01*
X115654348Y-116378845D01*
X115657870Y-116378857D01*
X115659070Y-116378589D01*
X115660707Y-116378500D01*
X164712918Y-116378500D01*
X164781039Y-116398502D01*
X164802013Y-116415405D01*
X168657723Y-120271115D01*
X168691749Y-120333427D01*
X168691146Y-120389626D01*
X168685465Y-120413289D01*
X168666835Y-120650000D01*
X168685465Y-120886711D01*
X168740895Y-121117594D01*
X168742788Y-121122165D01*
X168742789Y-121122167D01*
X168818528Y-121305017D01*
X168831760Y-121336963D01*
X168834346Y-121341183D01*
X168953241Y-121535202D01*
X168953245Y-121535208D01*
X168955824Y-121539416D01*
X169110031Y-121719969D01*
X169113787Y-121723177D01*
X169113792Y-121723182D01*
X169266616Y-121853706D01*
X169305426Y-121913156D01*
X169307640Y-121947558D01*
X169315877Y-121966667D01*
X170167188Y-122817978D01*
X170181132Y-122825592D01*
X170182965Y-122825461D01*
X170189580Y-122821210D01*
X171041080Y-121969710D01*
X171050260Y-121952898D01*
X171064020Y-121889650D01*
X171092776Y-121854225D01*
X171246213Y-121723177D01*
X171249969Y-121719969D01*
X171404176Y-121539416D01*
X171406755Y-121535208D01*
X171406759Y-121535202D01*
X171525654Y-121341183D01*
X171528240Y-121336963D01*
X171541473Y-121305017D01*
X171617211Y-121122167D01*
X171617212Y-121122165D01*
X171619105Y-121117594D01*
X171674535Y-120886711D01*
X171693165Y-120650000D01*
X171674535Y-120413289D01*
X171673380Y-120408474D01*
X171630098Y-120228197D01*
X171619105Y-120182406D01*
X171612890Y-120167402D01*
X171530135Y-119967611D01*
X171530133Y-119967607D01*
X171528240Y-119963037D01*
X171470001Y-119868000D01*
X171406759Y-119764798D01*
X171406755Y-119764792D01*
X171404176Y-119760584D01*
X171249969Y-119580031D01*
X171069416Y-119425824D01*
X171065208Y-119423245D01*
X171065202Y-119423241D01*
X170871183Y-119304346D01*
X170866963Y-119301760D01*
X170862393Y-119299867D01*
X170862389Y-119299865D01*
X170652167Y-119212789D01*
X170652165Y-119212788D01*
X170647594Y-119210895D01*
X170567391Y-119191640D01*
X170421524Y-119156620D01*
X170421518Y-119156619D01*
X170416711Y-119155465D01*
X170180000Y-119136835D01*
X169943289Y-119155465D01*
X169919626Y-119161146D01*
X169848719Y-119157601D01*
X169801115Y-119127723D01*
X165678234Y-115004842D01*
X165677306Y-115003905D01*
X165619157Y-114944525D01*
X165619156Y-114944524D01*
X165614229Y-114939493D01*
X165577779Y-114916002D01*
X165567454Y-114908583D01*
X165533557Y-114881524D01*
X165503362Y-114866927D01*
X165489945Y-114859398D01*
X165461762Y-114841235D01*
X165455145Y-114838827D01*
X165455140Y-114838824D01*
X165421027Y-114826408D01*
X165409284Y-114821447D01*
X165376597Y-114805646D01*
X165376592Y-114805644D01*
X165370251Y-114802579D01*
X165363393Y-114800996D01*
X165363391Y-114800995D01*
X165337574Y-114795035D01*
X165322831Y-114790668D01*
X165291315Y-114779197D01*
X165284325Y-114778314D01*
X165284317Y-114778312D01*
X165248299Y-114773762D01*
X165235747Y-114771526D01*
X165200386Y-114763362D01*
X165200383Y-114763362D01*
X165193515Y-114761776D01*
X165186469Y-114761751D01*
X165186466Y-114761751D01*
X165152944Y-114761634D01*
X165152062Y-114761605D01*
X165151231Y-114761500D01*
X165114581Y-114761500D01*
X165114141Y-114761499D01*
X165015657Y-114761155D01*
X165015652Y-114761155D01*
X165012130Y-114761143D01*
X165010930Y-114761411D01*
X165009293Y-114761500D01*
X128775912Y-114761500D01*
X128707791Y-114741498D01*
X128661298Y-114687842D01*
X128651194Y-114617568D01*
X128675085Y-114559936D01*
X128694786Y-114533648D01*
X128703324Y-114518054D01*
X128748478Y-114397606D01*
X128752105Y-114382351D01*
X128757631Y-114331486D01*
X128758000Y-114324672D01*
X128758000Y-113302115D01*
X128753525Y-113286876D01*
X128752135Y-113285671D01*
X128744452Y-113284000D01*
X125260116Y-113284000D01*
X125244877Y-113288475D01*
X125243672Y-113289865D01*
X125242001Y-113297548D01*
X125242001Y-114324669D01*
X125242371Y-114331490D01*
X125247895Y-114382352D01*
X125251521Y-114397604D01*
X125296676Y-114518054D01*
X125305214Y-114533648D01*
X125324915Y-114559936D01*
X125349762Y-114626443D01*
X125334708Y-114695825D01*
X125284534Y-114746055D01*
X125224088Y-114761500D01*
X123696536Y-114761500D01*
X123628415Y-114741498D01*
X123581922Y-114687842D01*
X123571818Y-114617568D01*
X123595711Y-114559934D01*
X123615229Y-114533892D01*
X123615230Y-114533890D01*
X123620615Y-114526705D01*
X123671745Y-114390316D01*
X123678500Y-114328134D01*
X123678500Y-113030000D01*
X143466502Y-113030000D01*
X143486457Y-113258087D01*
X143487881Y-113263400D01*
X143487881Y-113263402D01*
X143540418Y-113459469D01*
X143545716Y-113479243D01*
X143548039Y-113484224D01*
X143548039Y-113484225D01*
X143640151Y-113681762D01*
X143640154Y-113681767D01*
X143642477Y-113686749D01*
X143773802Y-113874300D01*
X143935700Y-114036198D01*
X143940208Y-114039355D01*
X143940211Y-114039357D01*
X143997053Y-114079158D01*
X144123251Y-114167523D01*
X144128233Y-114169846D01*
X144128238Y-114169849D01*
X144297697Y-114248868D01*
X144330757Y-114264284D01*
X144336065Y-114265706D01*
X144336067Y-114265707D01*
X144546598Y-114322119D01*
X144546600Y-114322119D01*
X144551913Y-114323543D01*
X144780000Y-114343498D01*
X145008087Y-114323543D01*
X145013400Y-114322119D01*
X145013402Y-114322119D01*
X145223933Y-114265707D01*
X145223935Y-114265706D01*
X145229243Y-114264284D01*
X145262303Y-114248868D01*
X145431762Y-114169849D01*
X145431767Y-114169846D01*
X145436749Y-114167523D01*
X145562947Y-114079158D01*
X145619789Y-114039357D01*
X145619792Y-114039355D01*
X145624300Y-114036198D01*
X145786198Y-113874300D01*
X145917523Y-113686749D01*
X145919846Y-113681767D01*
X145919849Y-113681762D01*
X146011961Y-113484225D01*
X146011961Y-113484224D01*
X146014284Y-113479243D01*
X146019583Y-113459469D01*
X146072119Y-113263402D01*
X146072119Y-113263400D01*
X146073543Y-113258087D01*
X146093498Y-113030000D01*
X146073543Y-112801913D01*
X146065028Y-112770135D01*
X146015707Y-112586067D01*
X146015706Y-112586065D01*
X146014284Y-112580757D01*
X146005727Y-112562406D01*
X145919849Y-112378238D01*
X145919846Y-112378233D01*
X145917523Y-112373251D01*
X145823657Y-112239197D01*
X145789357Y-112190211D01*
X145789355Y-112190208D01*
X145786198Y-112185700D01*
X145624300Y-112023802D01*
X145619792Y-112020645D01*
X145619789Y-112020643D01*
X145528644Y-111956823D01*
X145436749Y-111892477D01*
X145431767Y-111890154D01*
X145431762Y-111890151D01*
X145234225Y-111798039D01*
X145234224Y-111798039D01*
X145229243Y-111795716D01*
X145223935Y-111794294D01*
X145223933Y-111794293D01*
X145013402Y-111737881D01*
X145013400Y-111737881D01*
X145008087Y-111736457D01*
X144780000Y-111716502D01*
X144551913Y-111736457D01*
X144546600Y-111737881D01*
X144546598Y-111737881D01*
X144336067Y-111794293D01*
X144336065Y-111794294D01*
X144330757Y-111795716D01*
X144325776Y-111798039D01*
X144325775Y-111798039D01*
X144128238Y-111890151D01*
X144128233Y-111890154D01*
X144123251Y-111892477D01*
X144031356Y-111956823D01*
X143940211Y-112020643D01*
X143940208Y-112020645D01*
X143935700Y-112023802D01*
X143773802Y-112185700D01*
X143770645Y-112190208D01*
X143770643Y-112190211D01*
X143736343Y-112239197D01*
X143642477Y-112373251D01*
X143640154Y-112378233D01*
X143640151Y-112378238D01*
X143554273Y-112562406D01*
X143545716Y-112580757D01*
X143544294Y-112586065D01*
X143544293Y-112586067D01*
X143494972Y-112770135D01*
X143486457Y-112801913D01*
X143466502Y-113030000D01*
X123678500Y-113030000D01*
X123678500Y-112757885D01*
X125242000Y-112757885D01*
X125246475Y-112773124D01*
X125247865Y-112774329D01*
X125255548Y-112776000D01*
X126727885Y-112776000D01*
X126743124Y-112771525D01*
X126744329Y-112770135D01*
X126746000Y-112762452D01*
X126746000Y-112757885D01*
X127254000Y-112757885D01*
X127258475Y-112773124D01*
X127259865Y-112774329D01*
X127267548Y-112776000D01*
X128739884Y-112776000D01*
X128755123Y-112771525D01*
X128756328Y-112770135D01*
X128757999Y-112762452D01*
X128757999Y-111735331D01*
X128757629Y-111728510D01*
X128752105Y-111677648D01*
X128748479Y-111662396D01*
X128703324Y-111541946D01*
X128694786Y-111526351D01*
X128618285Y-111424276D01*
X128605724Y-111411715D01*
X128503649Y-111335214D01*
X128488054Y-111326676D01*
X128367606Y-111281522D01*
X128352351Y-111277895D01*
X128301486Y-111272369D01*
X128294672Y-111272000D01*
X127272115Y-111272000D01*
X127256876Y-111276475D01*
X127255671Y-111277865D01*
X127254000Y-111285548D01*
X127254000Y-112757885D01*
X126746000Y-112757885D01*
X126746000Y-111290116D01*
X126741525Y-111274877D01*
X126740135Y-111273672D01*
X126732452Y-111272001D01*
X125705331Y-111272001D01*
X125698510Y-111272371D01*
X125647648Y-111277895D01*
X125632396Y-111281521D01*
X125511946Y-111326676D01*
X125496351Y-111335214D01*
X125394276Y-111411715D01*
X125381715Y-111424276D01*
X125305214Y-111526351D01*
X125296676Y-111541946D01*
X125251522Y-111662394D01*
X125247895Y-111677649D01*
X125242369Y-111728514D01*
X125242000Y-111735328D01*
X125242000Y-112757885D01*
X123678500Y-112757885D01*
X123678500Y-112467082D01*
X123698502Y-112398961D01*
X123715405Y-112377987D01*
X123755158Y-112338234D01*
X123756095Y-112337306D01*
X123815475Y-112279157D01*
X123815476Y-112279156D01*
X123820507Y-112274229D01*
X123843998Y-112237779D01*
X123851417Y-112227454D01*
X123878476Y-112193557D01*
X123882809Y-112184595D01*
X123893072Y-112163363D01*
X123900602Y-112149945D01*
X123914948Y-112127684D01*
X123918765Y-112121762D01*
X123921173Y-112115145D01*
X123921176Y-112115140D01*
X123933592Y-112081027D01*
X123938553Y-112069284D01*
X123954354Y-112036597D01*
X123954356Y-112036592D01*
X123957421Y-112030251D01*
X123964965Y-111997572D01*
X123969332Y-111982831D01*
X123980803Y-111951315D01*
X123981686Y-111944325D01*
X123981688Y-111944317D01*
X123986238Y-111908299D01*
X123988474Y-111895747D01*
X123996638Y-111860386D01*
X123996638Y-111860383D01*
X123998224Y-111853515D01*
X123998301Y-111831638D01*
X123998366Y-111812944D01*
X123998395Y-111812062D01*
X123998500Y-111811231D01*
X123998500Y-111774428D01*
X123998634Y-111735978D01*
X123998845Y-111675657D01*
X123998845Y-111675652D01*
X123998857Y-111672130D01*
X123998589Y-111670930D01*
X123998500Y-111669293D01*
X123998500Y-106566968D01*
X124018502Y-106498847D01*
X124051331Y-106464390D01*
X124065654Y-106454174D01*
X124065661Y-106454168D01*
X124069860Y-106451173D01*
X124114109Y-106407079D01*
X124178479Y-106342933D01*
X124240851Y-106309017D01*
X124311658Y-106314205D01*
X124368419Y-106356851D01*
X124385401Y-106387954D01*
X124426676Y-106498054D01*
X124435214Y-106513649D01*
X124511715Y-106615724D01*
X124524276Y-106628285D01*
X124626351Y-106704786D01*
X124641946Y-106713324D01*
X124762394Y-106758478D01*
X124777649Y-106762105D01*
X124828514Y-106767631D01*
X124835328Y-106768000D01*
X125457885Y-106768000D01*
X125473124Y-106763525D01*
X125474329Y-106762135D01*
X125476000Y-106754452D01*
X125476000Y-106749884D01*
X125984000Y-106749884D01*
X125988475Y-106765123D01*
X125989865Y-106766328D01*
X125997548Y-106767999D01*
X126624669Y-106767999D01*
X126631490Y-106767629D01*
X126682352Y-106762105D01*
X126697604Y-106758479D01*
X126818054Y-106713324D01*
X126833649Y-106704786D01*
X126935724Y-106628285D01*
X126948285Y-106615724D01*
X127024786Y-106513649D01*
X127033324Y-106498054D01*
X127078478Y-106377606D01*
X127082105Y-106362351D01*
X127087631Y-106311486D01*
X127088000Y-106304672D01*
X127088000Y-105682115D01*
X127083525Y-105666876D01*
X127082135Y-105665671D01*
X127074452Y-105664000D01*
X126002115Y-105664000D01*
X125986876Y-105668475D01*
X125985671Y-105669865D01*
X125984000Y-105677548D01*
X125984000Y-106749884D01*
X125476000Y-106749884D01*
X125476000Y-105137885D01*
X125984000Y-105137885D01*
X125988475Y-105153124D01*
X125989865Y-105154329D01*
X125997548Y-105156000D01*
X127069884Y-105156000D01*
X127085123Y-105151525D01*
X127086328Y-105150135D01*
X127087999Y-105142452D01*
X127087999Y-104515331D01*
X127087629Y-104508510D01*
X127082105Y-104457648D01*
X127078479Y-104442396D01*
X127033324Y-104321946D01*
X127024786Y-104306351D01*
X126948285Y-104204276D01*
X126935724Y-104191715D01*
X126833649Y-104115214D01*
X126818054Y-104106676D01*
X126697606Y-104061522D01*
X126682351Y-104057895D01*
X126631486Y-104052369D01*
X126624672Y-104052000D01*
X126002115Y-104052000D01*
X125986876Y-104056475D01*
X125985671Y-104057865D01*
X125984000Y-104065548D01*
X125984000Y-105137885D01*
X125476000Y-105137885D01*
X125476000Y-104070116D01*
X125471525Y-104054877D01*
X125470135Y-104053672D01*
X125462452Y-104052001D01*
X124835331Y-104052001D01*
X124828510Y-104052371D01*
X124777648Y-104057895D01*
X124762396Y-104061521D01*
X124641946Y-104106676D01*
X124626351Y-104115214D01*
X124524276Y-104191715D01*
X124511715Y-104204276D01*
X124435214Y-104306351D01*
X124426676Y-104321946D01*
X124385297Y-104432322D01*
X124342655Y-104489087D01*
X124276093Y-104513786D01*
X124206744Y-104498578D01*
X124174121Y-104472891D01*
X124123151Y-104416876D01*
X124123145Y-104416870D01*
X124119670Y-104413051D01*
X124115619Y-104409852D01*
X124115615Y-104409848D01*
X123948414Y-104277800D01*
X123948410Y-104277798D01*
X123944359Y-104274598D01*
X123748789Y-104166638D01*
X123743920Y-104164914D01*
X123743916Y-104164912D01*
X123543087Y-104093795D01*
X123543083Y-104093794D01*
X123538212Y-104092069D01*
X123533119Y-104091162D01*
X123533116Y-104091161D01*
X123323373Y-104053800D01*
X123323367Y-104053799D01*
X123318284Y-104052894D01*
X123244452Y-104051992D01*
X123100081Y-104050228D01*
X123100079Y-104050228D01*
X123094911Y-104050165D01*
X122874091Y-104083955D01*
X122661756Y-104153357D01*
X122463607Y-104256507D01*
X122459474Y-104259610D01*
X122459471Y-104259612D01*
X122289100Y-104387530D01*
X122284965Y-104390635D01*
X122130629Y-104552138D01*
X122023201Y-104709621D01*
X121968293Y-104754621D01*
X121897768Y-104762792D01*
X121834021Y-104731538D01*
X121813324Y-104707054D01*
X121732822Y-104582617D01*
X121732820Y-104582614D01*
X121730014Y-104578277D01*
X121579670Y-104413051D01*
X121575619Y-104409852D01*
X121575615Y-104409848D01*
X121408414Y-104277800D01*
X121408410Y-104277798D01*
X121404359Y-104274598D01*
X121208789Y-104166638D01*
X121203920Y-104164914D01*
X121203916Y-104164912D01*
X121003087Y-104093795D01*
X121003083Y-104093794D01*
X120998212Y-104092069D01*
X120993119Y-104091162D01*
X120993116Y-104091161D01*
X120783373Y-104053800D01*
X120783367Y-104053799D01*
X120778284Y-104052894D01*
X120704452Y-104051992D01*
X120560081Y-104050228D01*
X120560079Y-104050228D01*
X120554911Y-104050165D01*
X120334091Y-104083955D01*
X120121756Y-104153357D01*
X119923607Y-104256507D01*
X119919474Y-104259610D01*
X119919471Y-104259612D01*
X119749100Y-104387530D01*
X119744965Y-104390635D01*
X119590629Y-104552138D01*
X119483201Y-104709621D01*
X119428293Y-104754621D01*
X119357768Y-104762792D01*
X119294021Y-104731538D01*
X119273324Y-104707054D01*
X119192822Y-104582617D01*
X119192820Y-104582614D01*
X119190014Y-104578277D01*
X119039670Y-104413051D01*
X119035619Y-104409852D01*
X119035615Y-104409848D01*
X118868414Y-104277800D01*
X118868410Y-104277798D01*
X118864359Y-104274598D01*
X118668789Y-104166638D01*
X118663920Y-104164914D01*
X118663916Y-104164912D01*
X118463087Y-104093795D01*
X118463083Y-104093794D01*
X118458212Y-104092069D01*
X118453119Y-104091162D01*
X118453116Y-104091161D01*
X118243373Y-104053800D01*
X118243367Y-104053799D01*
X118238284Y-104052894D01*
X118164452Y-104051992D01*
X118020081Y-104050228D01*
X118020079Y-104050228D01*
X118014911Y-104050165D01*
X117794091Y-104083955D01*
X117581756Y-104153357D01*
X117383607Y-104256507D01*
X117379474Y-104259610D01*
X117379471Y-104259612D01*
X117209100Y-104387530D01*
X117204965Y-104390635D01*
X117050629Y-104552138D01*
X116924743Y-104736680D01*
X116830688Y-104939305D01*
X116770989Y-105154570D01*
X116747251Y-105376695D01*
X116747548Y-105381848D01*
X116747548Y-105381851D01*
X116753867Y-105491441D01*
X116760110Y-105599715D01*
X116761247Y-105604761D01*
X116761248Y-105604767D01*
X116775606Y-105668475D01*
X116809222Y-105817639D01*
X116893266Y-106024616D01*
X116944942Y-106108944D01*
X117007291Y-106210688D01*
X117009987Y-106215088D01*
X117156250Y-106383938D01*
X117328126Y-106526632D01*
X117521000Y-106639338D01*
X117525825Y-106641180D01*
X117525826Y-106641181D01*
X117562881Y-106655331D01*
X117729692Y-106719030D01*
X117734760Y-106720061D01*
X117734763Y-106720062D01*
X117842017Y-106741883D01*
X117948597Y-106763567D01*
X117953772Y-106763757D01*
X117953774Y-106763757D01*
X118166673Y-106771564D01*
X118166677Y-106771564D01*
X118171837Y-106771753D01*
X118176957Y-106771097D01*
X118176959Y-106771097D01*
X118388288Y-106744025D01*
X118388289Y-106744025D01*
X118393416Y-106743368D01*
X118414082Y-106737168D01*
X118602429Y-106680661D01*
X118602434Y-106680659D01*
X118607384Y-106679174D01*
X118807994Y-106580896D01*
X118989860Y-106451173D01*
X119148096Y-106293489D01*
X119207594Y-106210689D01*
X119278453Y-106112077D01*
X119279776Y-106113028D01*
X119326645Y-106069857D01*
X119396580Y-106057625D01*
X119462026Y-106085144D01*
X119489875Y-106116994D01*
X119549987Y-106215088D01*
X119696250Y-106383938D01*
X119868126Y-106526632D01*
X120061000Y-106639338D01*
X120065825Y-106641180D01*
X120065826Y-106641181D01*
X120102881Y-106655331D01*
X120269692Y-106719030D01*
X120274760Y-106720061D01*
X120274763Y-106720062D01*
X120382017Y-106741883D01*
X120488597Y-106763567D01*
X120493772Y-106763757D01*
X120493774Y-106763757D01*
X120706673Y-106771564D01*
X120706677Y-106771564D01*
X120711837Y-106771753D01*
X120716957Y-106771097D01*
X120716959Y-106771097D01*
X120928288Y-106744025D01*
X120928289Y-106744025D01*
X120933416Y-106743368D01*
X120954082Y-106737168D01*
X121142429Y-106680661D01*
X121142434Y-106680659D01*
X121147384Y-106679174D01*
X121347994Y-106580896D01*
X121529860Y-106451173D01*
X121688096Y-106293489D01*
X121747594Y-106210689D01*
X121818453Y-106112077D01*
X121819776Y-106113028D01*
X121866645Y-106069857D01*
X121936580Y-106057625D01*
X122002026Y-106085144D01*
X122029875Y-106116994D01*
X122089987Y-106215088D01*
X122236250Y-106383938D01*
X122240225Y-106387238D01*
X122240228Y-106387241D01*
X122335985Y-106466740D01*
X122375620Y-106525643D01*
X122381500Y-106563684D01*
X122381500Y-111145500D01*
X122361498Y-111213621D01*
X122307842Y-111260114D01*
X122255500Y-111271500D01*
X120621866Y-111271500D01*
X120559684Y-111278255D01*
X120423295Y-111329385D01*
X120306739Y-111416739D01*
X120219385Y-111533295D01*
X120168255Y-111669684D01*
X120161500Y-111731866D01*
X120161500Y-114328134D01*
X120168255Y-114390316D01*
X120219385Y-114526705D01*
X120224770Y-114533890D01*
X120224771Y-114533892D01*
X120244289Y-114559934D01*
X120269138Y-114626440D01*
X120254086Y-114695823D01*
X120203912Y-114746053D01*
X120143464Y-114761500D01*
X115957081Y-114761500D01*
X115888960Y-114741498D01*
X115867986Y-114724595D01*
X113875405Y-112732013D01*
X113841379Y-112669701D01*
X113838500Y-112642918D01*
X113838500Y-110499214D01*
X113838507Y-110497894D01*
X113839377Y-110414826D01*
X113839451Y-110407779D01*
X113830289Y-110365403D01*
X113828230Y-110352832D01*
X113824182Y-110316744D01*
X113823397Y-110309745D01*
X113812367Y-110278070D01*
X113808204Y-110263258D01*
X113802609Y-110237381D01*
X113801119Y-110230490D01*
X113782792Y-110191187D01*
X113778010Y-110179411D01*
X113763745Y-110138448D01*
X113760010Y-110132470D01*
X113745973Y-110110005D01*
X113738634Y-110096488D01*
X113727441Y-110072486D01*
X113727440Y-110072485D01*
X113724462Y-110066098D01*
X113719430Y-110059610D01*
X113697894Y-110031847D01*
X113690598Y-110021388D01*
X113671358Y-109990596D01*
X113671356Y-109990593D01*
X113667626Y-109984624D01*
X113639024Y-109955821D01*
X113638439Y-109955196D01*
X113637922Y-109954530D01*
X113611932Y-109928540D01*
X113539815Y-109855918D01*
X113538778Y-109855260D01*
X113537549Y-109854157D01*
X111113234Y-107429842D01*
X111112306Y-107428905D01*
X111054157Y-107369525D01*
X111054156Y-107369524D01*
X111049229Y-107364493D01*
X111012779Y-107341002D01*
X111002454Y-107333583D01*
X110968557Y-107306524D01*
X110938362Y-107291927D01*
X110924945Y-107284398D01*
X110896762Y-107266235D01*
X110890145Y-107263827D01*
X110890140Y-107263824D01*
X110856027Y-107251408D01*
X110844284Y-107246447D01*
X110811597Y-107230646D01*
X110811592Y-107230644D01*
X110805251Y-107227579D01*
X110798393Y-107225996D01*
X110798391Y-107225995D01*
X110772574Y-107220035D01*
X110757831Y-107215668D01*
X110726315Y-107204197D01*
X110719325Y-107203314D01*
X110719317Y-107203312D01*
X110683299Y-107198762D01*
X110670747Y-107196526D01*
X110635386Y-107188362D01*
X110635383Y-107188362D01*
X110628515Y-107186776D01*
X110621469Y-107186751D01*
X110621466Y-107186751D01*
X110587944Y-107186634D01*
X110587062Y-107186605D01*
X110586231Y-107186500D01*
X110549581Y-107186500D01*
X110549141Y-107186499D01*
X110450657Y-107186155D01*
X110450652Y-107186155D01*
X110447130Y-107186143D01*
X110445930Y-107186411D01*
X110444293Y-107186500D01*
X103106291Y-107186500D01*
X103038170Y-107166498D01*
X102991677Y-107112842D01*
X102981028Y-107074108D01*
X102979703Y-107061914D01*
X102976745Y-107034684D01*
X102925615Y-106898295D01*
X102838261Y-106781739D01*
X102721705Y-106694385D01*
X102585316Y-106643255D01*
X102523134Y-106636500D01*
X100726866Y-106636500D01*
X100664684Y-106643255D01*
X100528295Y-106694385D01*
X100411739Y-106781739D01*
X100324385Y-106898295D01*
X100273255Y-107034684D01*
X100266500Y-107096866D01*
X100266500Y-108893134D01*
X100273255Y-108955316D01*
X100324385Y-109091705D01*
X100411739Y-109208261D01*
X100528295Y-109295615D01*
X100536704Y-109298767D01*
X100536705Y-109298768D01*
X100645451Y-109339535D01*
X100702216Y-109382176D01*
X100726916Y-109448738D01*
X100711709Y-109518087D01*
X100692316Y-109544568D01*
X100565629Y-109677138D01*
X100562715Y-109681410D01*
X100562714Y-109681411D01*
X100508262Y-109761235D01*
X100439743Y-109861680D01*
X100421639Y-109900682D01*
X100382675Y-109984624D01*
X100345688Y-110064305D01*
X100285989Y-110279570D01*
X100262251Y-110501695D01*
X100275110Y-110724715D01*
X100276247Y-110729761D01*
X100276248Y-110729767D01*
X100289369Y-110787987D01*
X100324222Y-110942639D01*
X100385673Y-111093976D01*
X100397994Y-111124318D01*
X100408266Y-111149616D01*
X100427830Y-111181542D01*
X100521729Y-111334771D01*
X100524987Y-111340088D01*
X100671250Y-111508938D01*
X100843126Y-111651632D01*
X100887647Y-111677648D01*
X100916445Y-111694476D01*
X100965169Y-111746114D01*
X100978240Y-111815897D01*
X100951509Y-111881669D01*
X100911055Y-111915027D01*
X100898607Y-111921507D01*
X100894474Y-111924610D01*
X100894471Y-111924612D01*
X100757172Y-112027699D01*
X100719965Y-112055635D01*
X100716393Y-112059373D01*
X100588164Y-112193557D01*
X100565629Y-112217138D01*
X100562715Y-112221410D01*
X100562714Y-112221411D01*
X100521760Y-112281447D01*
X100439743Y-112401680D01*
X100424003Y-112435590D01*
X100354154Y-112586067D01*
X100345688Y-112604305D01*
X100285989Y-112819570D01*
X100262251Y-113041695D01*
X99238500Y-113041695D01*
X99238500Y-100634500D01*
X99258502Y-100566379D01*
X99312158Y-100519886D01*
X99364500Y-100508500D01*
X130779774Y-100508500D01*
X130847895Y-100528502D01*
G37*
%TD.AperFunction*%
%TD*%
M02*
